<svg xmlns="http://www.w3.org/2000/svg" id="raphael-paper-11" width="600" height="400" style="-webkit-tap-highlight-color:rgba(0, 0, 0, 0);-webkit-user-select:none;position:relative;background-color:rgb(255, 255, 255)" overflow="hidden" cursor="default"><defs><linearGradient id="11-90-rgba_204_204_204_1__0-rgba_255_255_255_1__100" x2="0" y1="1"><stop offset="0%" stop-color="#ccc"/><stop offset="100%" stop-color="#fff"/></linearGradient><clipPath id="18F5630F-9B24-4C87-AC28-6415C3F1A953"><path d="M73 41h467v282H73z"/></clipPath></defs><g class="raphael-group-12-background"><rect width="600" height="400" fill="#fff" fill-opacity=".5" rx="0" ry="0"/><rect width="600" height="400" fill="none" stroke="#767575" stroke-opacity=".5" stroke-width="0" rx="0" ry="0"/></g><g stroke-width="0" class="raphael-group-23-canvas"><rect width="467" height="282" x="73" y="41" fill="none" stroke="#545454" stroke-opacity="0" rx="0" ry="0"/><rect width="467" height="282" x="73" y="41" fill="#fff" rx="0" ry="0"/></g><g class="raphael-group-26-axisbottom"><g fill="#eee" fill-opacity="0" stroke="#000" stroke-width="0" class="raphael-group-35-y-axis-bands"><rect width="467" height="40.286" x="73" y="242.429" rx="0" ry="0"/><rect width="467" height="40.286" x="73" y="161.857" rx="0" ry="0"/><rect width="467" height="40.286" x="73" y="81.286" rx="0" ry="0"/></g><g fill="none" stroke="#999" class="raphael-group-37-y-axis-lines" stroke-dasharray="1 2" shape-rendering="crispedges"><path d="M73 283.5h467M73 242.5h467M73 202.5h467M73 162.5h467M73 122.5h467M73 81.5h467M73 41.5h467"/></g><g fill="none" stroke-opacity=".99" class="raphael-group-43-y-axis-lines" shape-rendering="crispedges"><path stroke="#ff4081" d="M73 297.5h467"/><path stroke="#34343e" d="M73 246.5h467"/><path stroke="#09a274" d="M73 195.5h467M73 144.5h467"/></g><g fill="#333" class="fusioncharts-xaxis-0-gridlabels" text-anchor="middle" font-family="'helvetica neue', arial" font-size="10"><text x="111.917" y="328" class="fusioncharts-label"><tspan x="111.917" dy="9.695">UDP_STREAM_</tspan><tspan x="111.917" dy="12">18</tspan></text><text x="189.75" y="328" class="fusioncharts-label"><tspan x="189.75" dy="9.695">UDP_STREAM_</tspan><tspan x="189.75" dy="12">82</tspan></text><text x="267.583" y="328" class="fusioncharts-label"><tspan x="267.583" dy="9.695">UDP_STREAM_</tspan><tspan x="267.583" dy="12">210</tspan></text><text x="345.417" y="328" class="fusioncharts-label"><tspan x="345.417" dy="9.695">UDP_STREAM_</tspan><tspan x="345.417" dy="12">466</tspan></text><text x="423.25" y="328" class="fusioncharts-label"><tspan x="423.25" dy="9.695">UDP_STREAM_</tspan><tspan x="423.25" dy="12">978</tspan></text><text x="501.083" y="328" class="fusioncharts-label"><tspan x="501.083" dy="9.695">UDP_STREAM_</tspan><tspan x="501.083" dy="12">1472</tspan></text></g><g fill="#333" class="fusioncharts-yaxis-0-gridlabels" text-anchor="end" font-family="'helvetica neue', arial" font-size="10" font-weight="undefined" font-style="undefined"><text x="67" y="323" class="fusioncharts-label"><tspan x="67" dy="3.695">0</tspan></text><text x="67" y="282.714" class="fusioncharts-label"><tspan x="67" dy="3.699">1,500</tspan></text><text x="67" y="242.429" class="fusioncharts-label"><tspan x="67" dy="3.694">3,000</tspan></text><text x="67" y="202.143" class="fusioncharts-label"><tspan x="67" dy="3.69">4,500</tspan></text><text x="67" y="161.857" class="fusioncharts-label"><tspan x="67" dy="3.701">6,000</tspan></text><text x="67" y="121.571" class="fusioncharts-label"><tspan x="67" dy="3.696">7,500</tspan></text><text x="67" y="81.286" class="fusioncharts-label"><tspan x="67" dy="3.692">9,000</tspan></text><text x="67" y="41" class="fusioncharts-label"><tspan x="67" dy="3.695">10,500</tspan></text></g><g fill="#333" class="fusioncharts-yaxis-1-gridlabels" font-family="'helvetica neue', arial" font-size="10" font-weight="undefined" font-style="undefined"><text x="546" y="323" class="fusioncharts-label"><tspan x="546" dy="3.695">85</tspan></text><text x="546" y="266.6" class="fusioncharts-label"><tspan x="546" dy="3.694">96</tspan></text><text x="546" y="210.2" class="fusioncharts-label"><tspan x="546" dy="3.7">107</tspan></text><text x="546" y="153.8" class="fusioncharts-label"><tspan x="546" dy="3.691">118</tspan></text><text x="546" y="97.4" class="fusioncharts-label"><tspan x="546" dy="3.697">129</tspan></text><text x="546" y="41" class="fusioncharts-label"><tspan x="546" dy="3.695">140</tspan></text></g><g fill="#333" class="raphael-group-46-axis-name" text-anchor="middle" font-size="10"><text class="fusioncharts-yaxis-0-title" transform="rotate(-90 99.5 82.5)"><tspan x="0" dy="9.797">Throughput (Mbps)</tspan></text><text class="fusioncharts-yaxis-1-title" transform="rotate(90 200.5 382.5)"><tspan x="0" dy="9.797">Performance Ratio (%)</tspan></text></g><path fill="none" stroke="#999" d="M73 323.5h467" class="raphael-group-87-axis-lines"/></g><g class="raphael-group-13-dataset"><g stroke="#333" stroke-opacity="0" class="raphael-group-90-columns" clip-path="url('#18F5630F-9B24-4C87-AC28-6415C3F1A953')"><rect width="31" height="12" x="80.5" y="311.5" fill="#09a274" rx="0" ry="0"/><rect width="31" height="53" x="158.5" y="270.5" fill="#09a274" rx="0" ry="0"/><rect width="31" height="145" x="236.5" y="178.5" fill="#09a274" rx="0" ry="0"/><rect width="31" height="236" x="314.5" y="87.5" fill="#09a274" rx="0" ry="0"/><rect width="31" height="253" x="392.5" y="70.5" fill="#09a274" rx="0" ry="0"/><rect width="32" height="258" x="469.5" y="65.5" fill="#09a274" rx="0" ry="0"/><rect width="32" height="16" x="111.5" y="307.5" fill="#3465aa" rx="0" ry="0"/><rect width="31" height="71" x="189.5" y="252.5" fill="#3465aa" rx="0" ry="0"/><rect width="31" height="187" x="267.5" y="136.5" fill="#3465aa" rx="0" ry="0"/><rect width="31" height="236" x="345.5" y="87.5" fill="#3465aa" rx="0" ry="0"/><rect width="31" height="253" x="423.5" y="70.5" fill="#3465aa" rx="0" ry="0"/><rect width="31" height="258" x="501.5" y="65.5" fill="#3465aa" rx="0" ry="0"/></g><g class="raphael-group-128-line-connector"><path fill="none" stroke="#7c378a" stroke-width="2" d="M112 73l78-5 78 29 77 148 78 1h78" stroke-linecap="round" stroke-linejoin="round" class="raphael-group-131-connector"/><g fill="#fff" stroke="#7c378a" class="raphael-group-132-anchors"><path d="M109 73a3 3 0 0 0 6 0 3 3 0 0 0-6 0zM187 68a3 3 0 0 0 6 0 3 3 0 0 0-6 0zM265 97a3 3 0 0 0 6 0 3 3 0 0 0-6 0zM342 245a3 3 0 0 0 6 0 3 3 0 0 0-6 0zM420 246a3 3 0 0 0 6 0 3 3 0 0 0-6 0zM498 246a3 3 0 0 0 6 0 3 3 0 0 0-6 0z"/></g></g></g><g class="raphael-group-27-axistop"><g class="fusioncharts-yaxis-1-gridlabels" font-family="'helvetica neue', arial" font-size="10"><text x="546" y="297.364" fill="#ff4081" class="fusioncharts-label"><tspan x="546" dy="3.692">90</tspan></text><text x="546" y="246.091" fill="#34343e" class="fusioncharts-label"><tspan x="546" dy="3.7">100</tspan></text><text x="546" y="194.818" fill="#09a274" class="fusioncharts-label"><tspan x="546" dy="3.693">110</tspan></text><text x="546" y="143.545" fill="#09a274" class="fusioncharts-label"><tspan x="546" dy="3.702">120</tspan></text></g></g><g fill="#fff" class="fusioncharts-datalabels" font-size="10" text-anchor="middle"><text x="96" y="288.5" class="fusioncharts-label" transform="rotate(-90 96 288.5)"><tspan x="96" dy="2.5">436.39</tspan></text><text x="174" y="299" class="fusioncharts-label" transform="rotate(-90 174 299)"><tspan x="174" dy="2.5">1,954.352</tspan></text><text x="252" y="204" class="fusioncharts-label" transform="rotate(-90 252 204)"><tspan x="252" dy="2.5">5,370.33</tspan></text><text x="330" y="116" class="fusioncharts-label" transform="rotate(-90 330 116)"><tspan x="330" dy="2.5">8,768.458</tspan></text><text x="408" y="96" class="fusioncharts-label" transform="rotate(-90 408 96)"><tspan x="408" dy="2.5">9,398.38</tspan></text><text x="485.5" y="94" class="fusioncharts-label" transform="rotate(-90 485.5 94)"><tspan x="485.5" dy="2.5">9,604.592</tspan></text><text x="127.5" y="283.5" class="fusioncharts-label" transform="rotate(-90 127.5 283.5)"><tspan x="127.5" dy="2.5">583.448</tspan></text><text x="205" y="275" class="fusioncharts-label" transform="rotate(-90 205 275)"><tspan x="205" dy="2.5">2,634.8</tspan></text><text x="283" y="165" class="fusioncharts-label" transform="rotate(-90 283 165)"><tspan x="283" dy="2.5">6,934.382</tspan></text><text x="361" y="116" class="fusioncharts-label" transform="rotate(-90 361 116)"><tspan x="361" dy="2.5">8,785.804</tspan></text><text x="439" y="99" class="fusioncharts-label" transform="rotate(-90 439 99)"><tspan x="439" dy="2.5">9,404.006</tspan></text><text x="517" y="94" class="fusioncharts-label" transform="rotate(-90 517 94)"><tspan x="517" dy="2.5">9,602.716</tspan></text><text x="112" y="89.484" class="fusioncharts-label" font-family="'helvetica neue', arial" transform="rotate(-90 112 89.484)"><tspan x="112" dy="3.695">133.7</tspan></text><text x="190" y="87.25" class="fusioncharts-label" font-family="'helvetica neue', arial" transform="rotate(-90 190 87.25)"><tspan x="190" dy="3.695">134.82</tspan></text><text x="268" y="116.25" class="fusioncharts-label" font-family="'helvetica neue', arial" transform="rotate(-90 268 116.25)"><tspan x="268" dy="3.695">129.12</tspan></text><text x="345" y="261.484" class="fusioncharts-label" font-family="'helvetica neue', arial" transform="rotate(-90 345 261.484)"><tspan x="345" dy="3.695">100.2</tspan></text><text x="423" y="265.25" class="fusioncharts-label" font-family="'helvetica neue', arial" transform="rotate(-90 423 265.25)"><tspan x="423" dy="3.695">100.06</tspan></text><text x="501" y="262.484" class="fusioncharts-label" font-family="'helvetica neue', arial" transform="rotate(-90 501 262.484)"><tspan x="501" dy="3.695">99.98</tspan></text></g><g class="fusioncharts-legend" transform="translate(231.5 360.5)"><rect width="150" height="25" fill="#fff" fill-opacity="0" stroke="#545454" stroke-opacity="0" rx="0" ry="0"/><text x="23" y="6.5" fill="#666" class="fusioncharts-legenditem" font-size="10" cursor="pointer"><tspan x="23" dy="8.5">old</tspan></text><path fill="#09a274" stroke="#6bc7ac" stroke-width=".5" d="M7 18v-7.7h2.75V18zm4.125 0V7h2.75v11zm4.125 0v-4.4H18V18z" cursor="pointer"/><rect width="36" height="17" x="4" y="4" fill="silver" fill-opacity="0" rx="0" ry="0" cursor="pointer"/><text x="69.85" y="6.5" fill="#666" class="fusioncharts-legenditem" font-size="10" cursor="pointer"><tspan x="69.85" dy="8.5">new</tspan></text><path fill="#3465aa" stroke="#85a3cc" stroke-width=".5" d="M53.85 18v-7.7h2.75V18zm4.125 0V7h2.75v11zm4.125 0v-4.4h2.75V18z" cursor="pointer"/><rect width="41" height="17" x="50.85" y="4" fill="silver" fill-opacity="0" rx="0" ry="0" cursor="pointer"/><text x="121.7" y="6.5" fill="#666" class="fusioncharts-legenditem" font-size="10" cursor="pointer"><tspan x="121.7" dy="8.5">ratio</tspan></text><path fill="none" stroke="#7c378a" stroke-width="2" d="M105.7 12.5h11" cursor="pointer"/><circle cx="111.2" cy="12.5" r="3.3" fill="#fff" stroke="#7c378a" cursor="pointer"/><rect width="42" height="17" x="102.7" y="4" fill="silver" fill-opacity="0" rx="0" ry="0" cursor="pointer"/></g><text x="306.5" y="15" fill="#333" class="raphael-group-164-caption fusioncharts-caption" text-anchor="middle" font-family="'helvetica neue', arial" font-size="14" font-weight="bold"><tspan x="306.5" dy="13.703">Receiver Throughput</tspan></text><g fill="silver" fill-opacity="0" stroke="silver" stroke-opacity="0" class="raphael-group-14-hot"><g class="raphael-group-89-col-hot"><rect width="31" height="15" x="80.5" y="310" rx="0" ry="0"/><rect width="31" height="53" x="158.5" y="270.5" rx="0" ry="0"/><rect width="31" height="145" x="236.5" y="178.5" rx="0" ry="0"/><rect width="31" height="236" x="314.5" y="87.5" rx="0" ry="0"/><rect width="31" height="253" x="392.5" y="70.5" rx="0" ry="0"/><rect width="32" height="258" x="469.5" y="65.5" rx="0" ry="0"/><rect width="32" height="16" x="111.5" y="307.5" rx="0" ry="0"/><rect width="31" height="71" x="189.5" y="252.5" rx="0" ry="0"/><rect width="31" height="187" x="267.5" y="136.5" rx="0" ry="0"/><rect width="31" height="236" x="345.5" y="87.5" rx="0" ry="0"/><rect width="31" height="253" x="423.5" y="70.5" rx="0" ry="0"/><rect width="31" height="258" x="501.5" y="65.5" rx="0" ry="0"/></g><g class="raphael-group-127-line-hot"><circle cx="112" cy="73" r="15"/><circle cx="190" cy="68" r="15"/><circle cx="268" cy="97" r="15"/><circle cx="345" cy="245" r="15"/><circle cx="423" cy="246" r="15"/><circle cx="501" cy="246" r="15"/></g></g><g class="raphael-group-17-buttons raphael-group-18-button"><rect width="18" height="17" x="572.5" y="6.5" fill="url('#11-90-rgba_204_204_204_1__0-rgba_255_255_255_1__100')" stroke="#bbb" rx="2" ry="2"/><path fill="#fff" stroke="#9a9a9a" d="M576.5 17.5v3h11v-3 3h-11zm5 2l-3-4.5h2V9.5h2V15h2z"/><rect width="18" height="17" x="572.5" y="6.5" fill="silver" fill-opacity="0" stroke="silver" stroke-opacity="0" rx="2" cursor="pointer" ry="2"/></g><text x="6" y="396" fill-opacity=".5" font-size="9" font-family="verdana, sans" cursor="pointer"><tspan x="6" dy="-1.813">FusionCharts XT Trial</tspan></text></svg>