<svg xmlns="http://www.w3.org/2000/svg" id="raphael-paper-11" width="600" height="400" style="-webkit-tap-highlight-color:rgba(0, 0, 0, 0);-webkit-user-select:none;position:relative;background-color:rgb(255, 255, 255)" overflow="hidden" cursor="default"><defs><linearGradient id="11-90-rgba_204_204_204_1__0-rgba_255_255_255_1__100" x2="0" y1="1"><stop offset="0%" stop-color="#ccc"/><stop offset="100%" stop-color="#fff"/></linearGradient><clipPath id="132F1678-FB49-431D-89E4-6702286E7D76"><path d="M78 41h462v277H78z"/></clipPath></defs><g class="raphael-group-12-background"><rect width="600" height="400" fill="#fff" fill-opacity=".5" rx="0" ry="0"/><rect width="600" height="400" fill="none" stroke="#767575" stroke-opacity=".5" stroke-width="0" rx="0" ry="0"/></g><g stroke-width="0" class="raphael-group-23-canvas"><rect width="462" height="277" x="78" y="41" fill="none" stroke="#545454" stroke-opacity="0" rx="0" ry="0"/><rect width="462" height="277" x="78" y="41" fill="#fff" rx="0" ry="0"/></g><g class="raphael-group-26-axisbottom"><g fill="#eee" fill-opacity="0" stroke="#000" stroke-width="0" class="raphael-group-35-y-axis-bands"><rect width="462" height="25.182" x="78" y="267.636" rx="0" ry="0"/><rect width="462" height="25.182" x="78" y="217.273" rx="0" ry="0"/><rect width="462" height="25.182" x="78" y="166.909" rx="0" ry="0"/><rect width="462" height="25.182" x="78" y="116.545" rx="0" ry="0"/><rect width="462" height="25.182" x="78" y="66.182" rx="0" ry="0"/></g><g fill="none" stroke="#999" class="raphael-group-37-y-axis-lines" stroke-dasharray="1 2" shape-rendering="crispedges"><path d="M78 293.5h462M78 268.5h462M78 242.5h462M78 217.5h462M78 192.5h462M78 167.5h462M78 142.5h462M78 117.5h462M78 91.5h462M78 66.5h462M78 41.5h462"/></g><g fill="none" stroke-opacity=".99" class="raphael-group-43-y-axis-lines" shape-rendering="crispedges"><path stroke="#ff4081" d="M78 235.5h462M78 207.5h462"/><path stroke="#34343e" d="M78 180.5h462"/><path stroke="#09a274" d="M78 152.5h462M78 124.5h462"/></g><g fill="#333" class="fusioncharts-xaxis-0-gridlabels" text-anchor="middle" font-family="'helvetica neue', arial" font-size="10"><text x="97.25" y="335" class="fusioncharts-label"><tspan x="97.25" dy="-2.305">4</tspan></text><text x="135.75" y="335" class="fusioncharts-label"><tspan x="135.75" dy="-2.305">8</tspan></text><text x="174.25" y="335" class="fusioncharts-label"><tspan x="174.25" dy="-2.305">512</tspan></text><text x="212.75" y="335" class="fusioncharts-label"><tspan x="212.75" dy="-2.305">4</tspan></text><text x="251.25" y="335" class="fusioncharts-label"><tspan x="251.25" dy="-2.305">8</tspan></text><text x="289.75" y="335" class="fusioncharts-label"><tspan x="289.75" dy="-2.305">512</tspan></text><text x="328.25" y="335" class="fusioncharts-label"><tspan x="328.25" dy="-2.305">4</tspan></text><text x="366.75" y="335" class="fusioncharts-label"><tspan x="366.75" dy="-2.305">8</tspan></text><text x="405.25" y="335" class="fusioncharts-label"><tspan x="405.25" dy="-2.305">512</tspan></text><text x="443.75" y="335" class="fusioncharts-label"><tspan x="443.75" dy="-2.305">4</tspan></text><text x="482.25" y="335" class="fusioncharts-label"><tspan x="482.25" dy="-2.305">8</tspan></text><text x="520.75" y="335" class="fusioncharts-label"><tspan x="520.75" dy="-2.305">512</tspan></text></g><g fill="#333" class="fusioncharts-yaxis-0-gridlabels" text-anchor="end" font-family="'helvetica neue', arial" font-size="10" font-weight="undefined" font-style="undefined"><text x="72" y="318" class="fusioncharts-label"><tspan x="72" dy="3.695">0</tspan></text><text x="72" y="292.818" class="fusioncharts-label"><tspan x="72" dy="3.693">70,000</tspan></text><text x="72" y="267.636" class="fusioncharts-label"><tspan x="72" dy="3.699">140,000</tspan></text><text x="72" y="242.455" class="fusioncharts-label"><tspan x="72" dy="3.689">210,000</tspan></text><text x="72" y="217.273" class="fusioncharts-label"><tspan x="72" dy="3.695">280,000</tspan></text><text x="72" y="192.091" class="fusioncharts-label"><tspan x="72" dy="3.7">350,000</tspan></text><text x="72" y="166.909" class="fusioncharts-label"><tspan x="72" dy="3.69">420,000</tspan></text><text x="72" y="141.727" class="fusioncharts-label"><tspan x="72" dy="3.696">490,000</tspan></text><text x="72" y="116.545" class="fusioncharts-label"><tspan x="72" dy="3.702">560,000</tspan></text><text x="72" y="91.364" class="fusioncharts-label"><tspan x="72" dy="3.692">630,000</tspan></text><text x="72" y="66.182" class="fusioncharts-label"><tspan x="72" dy="3.697">700,000</tspan></text><text x="72" y="41" class="fusioncharts-label"><tspan x="72" dy="3.695">770,000</tspan></text></g><g fill="#333" class="fusioncharts-yaxis-1-gridlabels" font-family="'helvetica neue', arial" font-size="10" font-weight="undefined" font-style="undefined"><text x="546" y="318" class="fusioncharts-label"><tspan x="546" dy="3.695">50</tspan></text><text x="546" y="290.3" class="fusioncharts-label"><tspan x="546" dy="3.691">60</tspan></text><text x="546" y="262.6" class="fusioncharts-label"><tspan x="546" dy="3.694">70</tspan></text><text x="546" y="234.9" class="fusioncharts-label"><tspan x="546" dy="3.697">80</tspan></text><text x="546" y="207.2" class="fusioncharts-label"><tspan x="546" dy="3.7">90</tspan></text><text x="546" y="179.5" class="fusioncharts-label"><tspan x="546" dy="3.695">100</tspan></text><text x="546" y="151.8" class="fusioncharts-label"><tspan x="546" dy="3.691">110</tspan></text><text x="546" y="124.1" class="fusioncharts-label"><tspan x="546" dy="3.694">120</tspan></text><text x="546" y="96.4" class="fusioncharts-label"><tspan x="546" dy="3.697">130</tspan></text><text x="546" y="68.7" class="fusioncharts-label"><tspan x="546" dy="3.7">140</tspan></text><text x="546" y="41" class="fusioncharts-label"><tspan x="546" dy="3.695">150</tspan></text></g><g fill="#333" class="raphael-group-46-axis-name" text-anchor="middle" font-size="10"><text class="fusioncharts-yaxis-0-title" transform="rotate(-90 98.25 81.25)"><tspan x="0" dy="9.797">Throughput (MB/s)</tspan></text><text class="fusioncharts-yaxis-1-title" transform="rotate(90 201.75 381.25)"><tspan x="0" dy="9.797">Performance Ratio (%)</tspan></text><text class="fusioncharts-xaxis-0-title" transform="translate(309 340)"><tspan x="0" dy="9.797">Block Size (KB)</tspan></text></g><path fill="none" stroke="#999" d="M78 318.5h462" class="raphael-group-111-axis-lines"/></g><g class="raphael-group-13-dataset"><g stroke="#333" stroke-opacity="0" class="raphael-group-114-columns" clip-path="url('#132F1678-FB49-431D-89E4-6702286E7D76')"><rect width="16" height="217" x="81.5" y="101.5" fill="#09a274" rx="0" ry="0"/><rect width="15" height="231" x="120.5" y="87.5" fill="#09a274" rx="0" ry="0"/><rect width="16" height="247" x="158.5" y="71.5" fill="#09a274" rx="0" ry="0"/><rect width="15" height="69" x="197.5" y="249.5" fill="#09a274" rx="0" ry="0"/><rect width="16" height="67" x="235.5" y="251.5" fill="#09a274" rx="0" ry="0"/><rect width="15" height="69" x="274.5" y="249.5" fill="#09a274" rx="0" ry="0"/><rect width="16" height="68" x="312.5" y="250.5" fill="#09a274" rx="0" ry="0"/><rect width="15" height="69" x="351.5" y="249.5" fill="#09a274" rx="0" ry="0"/><rect width="16" height="68" x="389.5" y="250.5" fill="#09a274" rx="0" ry="0"/><rect width="15" height="68" x="428.5" y="250.5" fill="#09a274" rx="0" ry="0"/><rect width="16" height="68" x="466.5" y="250.5" fill="#09a274" rx="0" ry="0"/><rect width="15" height="68" x="505.5" y="250.5" fill="#09a274" rx="0" ry="0"/><rect width="15" height="214" x="97.5" y="104.5" fill="#3465aa" rx="0" ry="0"/><rect width="16" height="231" x="135.5" y="87.5" fill="#3465aa" rx="0" ry="0"/><rect width="15" height="248" x="174.5" y="70.5" fill="#3465aa" rx="0" ry="0"/><rect width="16" height="69" x="212.5" y="249.5" fill="#3465aa" rx="0" ry="0"/><rect width="15" height="68" x="251.5" y="250.5" fill="#3465aa" rx="0" ry="0"/><rect width="16" height="68" x="289.5" y="250.5" fill="#3465aa" rx="0" ry="0"/><rect width="15" height="69" x="328.5" y="249.5" fill="#3465aa" rx="0" ry="0"/><rect width="16" height="69" x="366.5" y="249.5" fill="#3465aa" rx="0" ry="0"/><rect width="15" height="69" x="405.5" y="249.5" fill="#3465aa" rx="0" ry="0"/><rect width="16" height="68" x="443.5" y="250.5" fill="#3465aa" rx="0" ry="0"/><rect width="15" height="68" x="482.5" y="250.5" fill="#3465aa" rx="0" ry="0"/><rect width="16" height="68" x="520.5" y="250.5" fill="#3465aa" rx="0" ry="0"/></g><g class="raphael-group-188-line-connector"><path fill="none" stroke="#7c378a" stroke-width="2" d="M97 183l39-3 38-1 39 3 38-8 39 7 38-4 39 5 38-5 39 4 38-1h39" stroke-linecap="round" stroke-linejoin="round" class="raphael-group-191-connector"/><g fill="#fff" stroke="#7c378a" class="raphael-group-192-anchors"><path d="M94 183a3 3 0 0 0 6 0 3 3 0 0 0-6 0zM133 180a3 3 0 0 0 6 0 3 3 0 0 0-6 0zM171 179a3 3 0 0 0 6 0 3 3 0 0 0-6 0zM210 182a3 3 0 0 0 6 0 3 3 0 0 0-6 0zM248 174a3 3 0 0 0 6 0 3 3 0 0 0-6 0zM287 181a3 3 0 0 0 6 0 3 3 0 0 0-6 0zM325 177a3 3 0 0 0 6 0 3 3 0 0 0-6 0zM364 182a3 3 0 0 0 6 0 3 3 0 0 0-6 0zM402 177a3 3 0 0 0 6 0 3 3 0 0 0-6 0zM441 181a3 3 0 0 0 6 0 3 3 0 0 0-6 0zM479 180a3 3 0 0 0 6 0 3 3 0 0 0-6 0zM518 180a3 3 0 0 0 6 0 3 3 0 0 0-6 0z"/></g></g></g><g class="raphael-group-27-axistop"><g class="fusioncharts-yaxis-1-gridlabels" font-family="'helvetica neue', arial" font-size="10"><text x="546" y="234.9" fill="#ff4081" class="fusioncharts-label"><tspan x="546" dy="3.697">80</tspan></text><text x="546" y="207.2" fill="#ff4081" class="fusioncharts-label"><tspan x="546" dy="3.7">90</tspan></text><text x="546" y="179.5" fill="#34343e" class="fusioncharts-label"><tspan x="546" dy="3.695">100</tspan></text><text x="546" y="151.8" fill="#09a274" class="fusioncharts-label"><tspan x="546" dy="3.691">110</tspan></text><text x="546" y="124.1" fill="#09a274" class="fusioncharts-label"><tspan x="546" dy="3.694">120</tspan></text></g></g><g fill="#fff" class="fusioncharts-datalabels" font-size="10" text-anchor="middle"><text x="89.5" y="125.5" class="fusioncharts-label" transform="rotate(-90 89.5 125.5)"><tspan x="89.5" dy="2.5">601,851</tspan></text><text x="128" y="111.5" class="fusioncharts-label" transform="rotate(-90 128 111.5)"><tspan x="128" dy="2.5">641,036</tspan></text><text x="166.5" y="95.5" class="fusioncharts-label" transform="rotate(-90 166.5 95.5)"><tspan x="166.5" dy="2.5">685,679</tspan></text><text x="205" y="273.5" class="fusioncharts-label" transform="rotate(-90 205 273.5)"><tspan x="205" dy="2.5">191,084</tspan></text><text x="243.5" y="275.5" class="fusioncharts-label" transform="rotate(-90 243.5 275.5)"><tspan x="243.5" dy="2.5">185,015</tspan></text><text x="282" y="273.5" class="fusioncharts-label" transform="rotate(-90 282 273.5)"><tspan x="282" dy="2.5">189,333</tspan></text><text x="320.5" y="274.5" class="fusioncharts-label" transform="rotate(-90 320.5 274.5)"><tspan x="320.5" dy="2.5">188,949</tspan></text><text x="359" y="273.5" class="fusioncharts-label" transform="rotate(-90 359 273.5)"><tspan x="359" dy="2.5">191,311</tspan></text><text x="397.5" y="274.5" class="fusioncharts-label" transform="rotate(-90 397.5 274.5)"><tspan x="397.5" dy="2.5">188,788</tspan></text><text x="436" y="274.5" class="fusioncharts-label" transform="rotate(-90 436 274.5)"><tspan x="436" dy="2.5">187,975</tspan></text><text x="474.5" y="274.5" class="fusioncharts-label" transform="rotate(-90 474.5 274.5)"><tspan x="474.5" dy="2.5">187,891</tspan></text><text x="513" y="274.5" class="fusioncharts-label" transform="rotate(-90 513 274.5)"><tspan x="513" dy="2.5">188,228</tspan></text><text x="105" y="128.5" class="fusioncharts-label" transform="rotate(-90 105 128.5)"><tspan x="105" dy="2.5">593,337</tspan></text><text x="143.5" y="111.5" class="fusioncharts-label" transform="rotate(-90 143.5 111.5)"><tspan x="143.5" dy="2.5">640,351</tspan></text><text x="182" y="94.5" class="fusioncharts-label" transform="rotate(-90 182 94.5)"><tspan x="182" dy="2.5">688,041</tspan></text><text x="220.5" y="273.5" class="fusioncharts-label" transform="rotate(-90 220.5 273.5)"><tspan x="220.5" dy="2.5">189,667</tspan></text><text x="259" y="274.5" class="fusioncharts-label" transform="rotate(-90 259 274.5)"><tspan x="259" dy="2.5">188,355</tspan></text><text x="297.5" y="274.5" class="fusioncharts-label" transform="rotate(-90 297.5 274.5)"><tspan x="297.5" dy="2.5">188,060</tspan></text><text x="336" y="273.5" class="fusioncharts-label" transform="rotate(-90 336 273.5)"><tspan x="336" dy="2.5">190,494</tspan></text><text x="374.5" y="273.5" class="fusioncharts-label" transform="rotate(-90 374.5 273.5)"><tspan x="374.5" dy="2.5">189,925</tspan></text><text x="413" y="273.5" class="fusioncharts-label" transform="rotate(-90 413 273.5)"><tspan x="413" dy="2.5">190,442</tspan></text><text x="451.5" y="274.5" class="fusioncharts-label" transform="rotate(-90 451.5 274.5)"><tspan x="451.5" dy="2.5">187,187</tspan></text><text x="490" y="274.5" class="fusioncharts-label" transform="rotate(-90 490 274.5)"><tspan x="490" dy="2.5">187,287</tspan></text><text x="528.5" y="274.5" class="fusioncharts-label" transform="rotate(-90 528.5 274.5)"><tspan x="528.5" dy="2.5">187,874</tspan></text><text x="97" y="166.516" class="fusioncharts-label" font-family="'helvetica neue', arial" transform="rotate(-90 97 166.516)"><tspan x="97" dy="3.695">98.59</tspan></text><text x="136" y="163.516" class="fusioncharts-label" font-family="'helvetica neue', arial" transform="rotate(-90 136 163.516)"><tspan x="136" dy="3.695">99.89</tspan></text><text x="174" y="159.75" class="fusioncharts-label" font-family="'helvetica neue', arial" transform="rotate(-90 174 159.75)"><tspan x="174" dy="3.695">100.34</tspan></text><text x="213" y="198.484" class="fusioncharts-label" font-family="'helvetica neue', arial" transform="rotate(-90 213 198.484)"><tspan x="213" dy="3.695">99.26</tspan></text><text x="251" y="154.75" class="fusioncharts-label" font-family="'helvetica neue', arial" transform="rotate(-90 251 154.75)"><tspan x="251" dy="3.695">101.81</tspan></text><text x="290" y="197.484" class="fusioncharts-label" font-family="'helvetica neue', arial" transform="rotate(-90 290 197.484)"><tspan x="290" dy="3.695">99.33</tspan></text><text x="328" y="157.75" class="fusioncharts-label" font-family="'helvetica neue', arial" transform="rotate(-90 328 157.75)"><tspan x="328" dy="3.695">100.82</tspan></text><text x="367" y="198.484" class="fusioncharts-label" font-family="'helvetica neue', arial" transform="rotate(-90 367 198.484)"><tspan x="367" dy="3.695">99.28</tspan></text><text x="405" y="157.75" class="fusioncharts-label" font-family="'helvetica neue', arial" transform="rotate(-90 405 157.75)"><tspan x="405" dy="3.695">100.88</tspan></text><text x="444" y="197.484" class="fusioncharts-label" font-family="'helvetica neue', arial" transform="rotate(-90 444 197.484)"><tspan x="444" dy="3.695">99.58</tspan></text><text x="482" y="163.516" class="fusioncharts-label" font-family="'helvetica neue', arial" transform="rotate(-90 482 163.516)"><tspan x="482" dy="3.695">99.68</tspan></text><text x="521" y="163.516" class="fusioncharts-label" font-family="'helvetica neue', arial" transform="rotate(-90 521 163.516)"><tspan x="521" dy="3.695">99.81</tspan></text></g><g class="fusioncharts-legend" transform="translate(233.5 360.5)"><rect width="151" height="25" fill="#fff" fill-opacity="0" stroke="#545454" stroke-opacity="0" rx="0" ry="0"/><text x="23" y="6.5" fill="#666" class="fusioncharts-legenditem" font-size="10" cursor="pointer"><tspan x="23" dy="8.5">old</tspan></text><path fill="#09a274" stroke="#6bc7ac" stroke-width=".5" d="M7 18v-7.7h2.75V18zm4.125 0V7h2.75v11zm4.125 0v-4.4H18V18z" cursor="pointer"/><rect width="36" height="17" x="4" y="4" fill="silver" fill-opacity="0" rx="0" ry="0" cursor="pointer"/><text x="69.85" y="6.5" fill="#666" class="fusioncharts-legenditem" font-size="10" cursor="pointer"><tspan x="69.85" dy="8.5">new</tspan></text><path fill="#3465aa" stroke="#85a3cc" stroke-width=".5" d="M53.85 18v-7.7h2.75V18zm4.125 0V7h2.75v11zm4.125 0v-4.4h2.75V18z" cursor="pointer"/><rect width="41" height="17" x="50.85" y="4" fill="silver" fill-opacity="0" rx="0" ry="0" cursor="pointer"/><text x="121.7" y="6.5" fill="#666" class="fusioncharts-legenditem" font-size="10" cursor="pointer"><tspan x="121.7" dy="8.5">ratio</tspan></text><path fill="none" stroke="#7c378a" stroke-width="2" d="M105.7 12.5h11" cursor="pointer"/><circle cx="111.2" cy="12.5" r="3.3" fill="#fff" stroke="#7c378a" cursor="pointer"/><rect width="42" height="17" x="102.7" y="4" fill="silver" fill-opacity="0" rx="0" ry="0" cursor="pointer"/></g><text x="309" y="15" fill="#333" class="raphael-group-242-caption fusioncharts-caption" text-anchor="middle" font-family="'helvetica neue', arial" font-size="14" font-weight="bold"><tspan x="309" dy="13.703">Buffered_Write</tspan></text><g fill="silver" fill-opacity="0" stroke="silver" stroke-opacity="0" class="raphael-group-14-hot"><g class="raphael-group-113-col-hot"><rect width="16" height="217" x="81.5" y="101.5" rx="0" ry="0"/><rect width="15" height="231" x="120.5" y="87.5" rx="0" ry="0"/><rect width="16" height="247" x="158.5" y="71.5" rx="0" ry="0"/><rect width="15" height="69" x="197.5" y="249.5" rx="0" ry="0"/><rect width="16" height="67" x="235.5" y="251.5" rx="0" ry="0"/><rect width="15" height="69" x="274.5" y="249.5" rx="0" ry="0"/><rect width="16" height="68" x="312.5" y="250.5" rx="0" ry="0"/><rect width="15" height="69" x="351.5" y="249.5" rx="0" ry="0"/><rect width="16" height="68" x="389.5" y="250.5" rx="0" ry="0"/><rect width="15" height="68" x="428.5" y="250.5" rx="0" ry="0"/><rect width="16" height="68" x="466.5" y="250.5" rx="0" ry="0"/><rect width="15" height="68" x="505.5" y="250.5" rx="0" ry="0"/><rect width="15" height="214" x="97.5" y="104.5" rx="0" ry="0"/><rect width="16" height="231" x="135.5" y="87.5" rx="0" ry="0"/><rect width="15" height="248" x="174.5" y="70.5" rx="0" ry="0"/><rect width="16" height="69" x="212.5" y="249.5" rx="0" ry="0"/><rect width="15" height="68" x="251.5" y="250.5" rx="0" ry="0"/><rect width="16" height="68" x="289.5" y="250.5" rx="0" ry="0"/><rect width="15" height="69" x="328.5" y="249.5" rx="0" ry="0"/><rect width="16" height="69" x="366.5" y="249.5" rx="0" ry="0"/><rect width="15" height="69" x="405.5" y="249.5" rx="0" ry="0"/><rect width="16" height="68" x="443.5" y="250.5" rx="0" ry="0"/><rect width="15" height="68" x="482.5" y="250.5" rx="0" ry="0"/><rect width="16" height="68" x="520.5" y="250.5" rx="0" ry="0"/></g><g class="raphael-group-187-line-hot"><circle cx="97" cy="183" r="15"/><circle cx="136" cy="180" r="15"/><circle cx="174" cy="179" r="15"/><circle cx="213" cy="182" r="15"/><circle cx="251" cy="174" r="15"/><circle cx="290" cy="181" r="15"/><circle cx="328" cy="177" r="15"/><circle cx="367" cy="182" r="15"/><circle cx="405" cy="177" r="15"/><circle cx="444" cy="181" r="15"/><circle cx="482" cy="180" r="15"/><circle cx="521" cy="180" r="15"/></g></g><g class="raphael-group-17-buttons raphael-group-18-button"><rect width="18" height="17" x="572.5" y="6.5" fill="url('#11-90-rgba_204_204_204_1__0-rgba_255_255_255_1__100')" stroke="#bbb" rx="2" ry="2"/><path fill="#fff" stroke="#9a9a9a" d="M576.5 17.5v3h11v-3 3h-11zm5 2l-3-4.5h2V9.5h2V15h2z"/><rect width="18" height="17" x="572.5" y="6.5" fill="silver" fill-opacity="0" stroke="silver" stroke-opacity="0" rx="2" cursor="pointer" ry="2"/></g><text x="6" y="396" fill-opacity=".5" font-size="9" font-family="verdana, sans" cursor="pointer"><tspan x="6" dy="-1.813">FusionCharts XT Trial</tspan></text></svg>