<svg xmlns="http://www.w3.org/2000/svg" id="raphael-paper-11" width="600" height="400" style="-webkit-tap-highlight-color:rgba(0, 0, 0, 0);-webkit-user-select:none;position:relative;background-color:rgb(255, 255, 255)" overflow="hidden" cursor="default"><defs><linearGradient id="11-90-rgba_204_204_204_1__0-rgba_255_255_255_1__100" x2="0" y1="1"><stop offset="0%" stop-color="#ccc"/><stop offset="100%" stop-color="#fff"/></linearGradient><clipPath id="41DCBF1D-D822-4E70-BB42-6269489EE442"><path d="M56 41h484v282H56z"/></clipPath></defs><g class="raphael-group-12-background"><rect width="600" height="400" fill="#fff" fill-opacity=".5" rx="0" ry="0"/><rect width="600" height="400" fill="none" stroke="#767575" stroke-opacity=".5" stroke-width="0" rx="0" ry="0"/></g><g stroke-width="0" class="raphael-group-23-canvas"><rect width="484" height="282" x="56" y="41" fill="none" stroke="#545454" stroke-opacity="0" rx="0" ry="0"/><rect width="484" height="282" x="56" y="41" fill="#fff" rx="0" ry="0"/></g><g class="raphael-group-26-axisbottom"><g fill="#eee" fill-opacity="0" stroke="#000" stroke-width="0" class="raphael-group-35-y-axis-bands"><rect width="484" height="40.286" x="56" y="242.429" rx="0" ry="0"/><rect width="484" height="40.286" x="56" y="161.857" rx="0" ry="0"/><rect width="484" height="40.286" x="56" y="81.286" rx="0" ry="0"/></g><g fill="none" stroke="#999" class="raphael-group-37-y-axis-lines" stroke-dasharray="1 2" shape-rendering="crispedges"><path d="M56 283.5h484M56 242.5h484M56 202.5h484M56 162.5h484M56 122.5h484M56 81.5h484M56 41.5h484"/></g><g fill="none" stroke-opacity=".99" class="raphael-group-43-y-axis-lines" shape-rendering="crispedges"><path stroke="#ff4081" d="M56 276.5h484"/><path stroke="#34343e" d="M56 182.5h484"/><path stroke="#09a274" d="M56 88.5h484"/></g><g fill="#333" class="fusioncharts-xaxis-0-gridlabels" text-anchor="middle" font-family="'helvetica neue', arial" font-size="10"><text x="90.571" y="340" class="fusioncharts-label"><tspan x="90.571" dy="-2.305">2p/0K ctxsw</tspan></text><text x="159.714" y="340" class="fusioncharts-label"><tspan x="159.714" dy="-2.305">2p/16K ctxsw</tspan></text><text x="228.857" y="340" class="fusioncharts-label"><tspan x="228.857" dy="-2.305">2p/64K ctxsw</tspan></text><text x="298" y="340" class="fusioncharts-label"><tspan x="298" dy="-2.305">8p/16K ctxsw</tspan></text><text x="367.143" y="340" class="fusioncharts-label"><tspan x="367.143" dy="-2.305">8p/64K ctxsw</tspan></text><text x="436.286" y="328" class="fusioncharts-label"><tspan x="436.286" dy="9.695">16p/16K</tspan><tspan x="436.286" dy="12">ctxsw</tspan></text><text x="505.429" y="328" class="fusioncharts-label"><tspan x="505.429" dy="9.695">16p/64K</tspan><tspan x="505.429" dy="12">ctxsw</tspan></text></g><g fill="#333" class="fusioncharts-yaxis-0-gridlabels" text-anchor="end" font-family="'helvetica neue', arial" font-size="10" font-weight="undefined" font-style="undefined"><text x="50" y="323" class="fusioncharts-label"><tspan x="50" dy="3.695">0</tspan></text><text x="50" y="282.714" class="fusioncharts-label"><tspan x="50" dy="3.699">0.3</tspan></text><text x="50" y="242.429" class="fusioncharts-label"><tspan x="50" dy="3.694">0.6</tspan></text><text x="50" y="202.143" class="fusioncharts-label"><tspan x="50" dy="3.69">0.9</tspan></text><text x="50" y="161.857" class="fusioncharts-label"><tspan x="50" dy="3.701">1.2</tspan></text><text x="50" y="121.571" class="fusioncharts-label"><tspan x="50" dy="3.696">1.5</tspan></text><text x="50" y="81.286" class="fusioncharts-label"><tspan x="50" dy="3.692">1.8</tspan></text><text x="50" y="41" class="fusioncharts-label"><tspan x="50" dy="3.695">2.1</tspan></text></g><g fill="#333" class="fusioncharts-yaxis-1-gridlabels" font-family="'helvetica neue', arial" font-size="10" font-weight="undefined" font-style="undefined"><text x="546" y="323" class="fusioncharts-label"><tspan x="546" dy="3.695">85</tspan></text><text x="546" y="276" class="fusioncharts-label"><tspan x="546" dy="3.695">90</tspan></text><text x="546" y="229" class="fusioncharts-label"><tspan x="546" dy="3.695">95</tspan></text><text x="546" y="182" class="fusioncharts-label"><tspan x="546" dy="3.695">100</tspan></text><text x="546" y="135" class="fusioncharts-label"><tspan x="546" dy="3.695">105</tspan></text><text x="546" y="88" class="fusioncharts-label"><tspan x="546" dy="3.695">110</tspan></text><text x="546" y="41" class="fusioncharts-label"><tspan x="546" dy="3.695">115</tspan></text></g><g fill="#333" class="raphael-group-46-axis-name" text-anchor="middle" font-size="10"><text class="fusioncharts-yaxis-0-title" transform="rotate(-90 99.5 82.5)"><tspan x="0" dy="9.797">Latency (μs)</tspan></text><text class="fusioncharts-yaxis-1-title" transform="rotate(90 200.5 382.5)"><tspan x="0" dy="9.797">Performance Ratio (%)</tspan></text></g><path fill="none" stroke="#999" d="M56 323.5h484" class="raphael-group-87-axis-lines"/></g><g class="raphael-group-13-dataset"><g stroke="#333" stroke-opacity="0" class="raphael-group-90-columns" clip-path="url('#41DCBF1D-D822-4E70-BB42-6269489EE442')"><rect width="28" height="107" x="62.5" y="216.5" fill="#09a274" rx="0" ry="0"/><rect width="27" height="119" x="132.5" y="204.5" fill="#09a274" rx="0" ry="0"/><rect width="27" height="108" x="201.5" y="215.5" fill="#09a274" rx="0" ry="0"/><rect width="28" height="164" x="270.5" y="159.5" fill="#09a274" rx="0" ry="0"/><rect width="28" height="217" x="339.5" y="106.5" fill="#09a274" rx="0" ry="0"/><rect width="28" height="213" x="408.5" y="110.5" fill="#09a274" rx="0" ry="0"/><rect width="28" height="221" x="477.5" y="102.5" fill="#09a274" rx="0" ry="0"/><rect width="28" height="103" x="90.5" y="220.5" fill="#3465aa" rx="0" ry="0"/><rect width="28" height="117" x="159.5" y="206.5" fill="#3465aa" rx="0" ry="0"/><rect width="28" height="110" x="228.5" y="213.5" fill="#3465aa" rx="0" ry="0"/><rect width="27" height="165" x="298.5" y="158.5" fill="#3465aa" rx="0" ry="0"/><rect width="27" height="222" x="367.5" y="101.5" fill="#3465aa" rx="0" ry="0"/><rect width="27" height="212" x="436.5" y="111.5" fill="#3465aa" rx="0" ry="0"/><rect width="28" height="228" x="505.5" y="95.5" fill="#3465aa" rx="0" ry="0"/></g><g class="raphael-group-134-line-connector"><path fill="none" stroke="#7c378a" stroke-width="2" d="M91 214l69-17 69-36 69 15 69-16 69 27 69-33" stroke-linecap="round" stroke-linejoin="round" class="raphael-group-137-connector"/><g fill="#fff" stroke="#7c378a" class="raphael-group-138-anchors"><path d="M88 214a3 3 0 0 0 6 0 3 3 0 0 0-6 0zM157 197a3 3 0 0 0 6 0 3 3 0 0 0-6 0zM226 161a3 3 0 0 0 6 0 3 3 0 0 0-6 0zM295 176a3 3 0 0 0 6 0 3 3 0 0 0-6 0zM364 160a3 3 0 0 0 6 0 3 3 0 0 0-6 0zM433 187a3 3 0 0 0 6 0 3 3 0 0 0-6 0zM502 154a3 3 0 0 0 6 0 3 3 0 0 0-6 0z"/></g></g></g><g class="raphael-group-27-axistop"><g class="fusioncharts-yaxis-1-gridlabels" font-family="'helvetica neue', arial" font-size="10"><text x="546" y="276" fill="#ff4081" class="fusioncharts-label"><tspan x="546" dy="3.695">90</tspan></text><text x="546" y="182" fill="#34343e" class="fusioncharts-label"><tspan x="546" dy="3.695">100</tspan></text><text x="546" y="88" fill="#09a274" class="fusioncharts-label"><tspan x="546" dy="3.695">110</tspan></text></g></g><g fill="#fff" class="fusioncharts-datalabels" font-size="10" text-anchor="middle"><text x="76.5" y="235" class="fusioncharts-label" transform="rotate(-90 76.5 235)"><tspan x="76.5" dy="2.5">0.792</tspan></text><text x="146" y="259" class="fusioncharts-label" transform="rotate(-90 146 259)"><tspan x="146" dy="2.5">0.8800000000000001</tspan></text><text x="215" y="228.5" class="fusioncharts-label" transform="rotate(-90 215 228.5)"><tspan x="215" dy="2.5">0.8</tspan></text><text x="284.5" y="214" class="fusioncharts-label" transform="rotate(-90 284.5 214)"><tspan x="284.5" dy="2.5">1.2179999999999997</tspan></text><text x="353.5" y="125" class="fusioncharts-label" transform="rotate(-90 353.5 125)"><tspan x="353.5" dy="2.5">1.614</tspan></text><text x="422.5" y="126.5" class="fusioncharts-label" transform="rotate(-90 422.5 126.5)"><tspan x="422.5" dy="2.5">1.58</tspan></text><text x="491.5" y="157" class="fusioncharts-label" transform="rotate(-90 491.5 157)"><tspan x="491.5" dy="2.5">1.6440000000000001</tspan></text><text x="104.5" y="275" class="fusioncharts-label" transform="rotate(-90 104.5 275)"><tspan x="104.5" dy="2.5">0.7659999999999999</tspan></text><text x="173.5" y="225" class="fusioncharts-label" transform="rotate(-90 173.5 225)"><tspan x="173.5" dy="2.5">0.866</tspan></text><text x="242.5" y="232" class="fusioncharts-label" transform="rotate(-90 242.5 232)"><tspan x="242.5" dy="2.5">0.818</tspan></text><text x="312" y="177" class="fusioncharts-label" transform="rotate(-90 312 177)"><tspan x="312" dy="2.5">1.226</tspan></text><text x="381" y="120" class="fusioncharts-label" transform="rotate(-90 381 120)"><tspan x="381" dy="2.5">1.652</tspan></text><text x="450" y="166" class="fusioncharts-label" transform="rotate(-90 450 166)"><tspan x="450" dy="2.5">1.5719999999999998</tspan></text><text x="519.5" y="150" class="fusioncharts-label" transform="rotate(-90 519.5 150)"><tspan x="519.5" dy="2.5">1.6939999999999997</tspan></text><text x="91" y="197.516" class="fusioncharts-label" font-family="'helvetica neue', arial" transform="rotate(-90 91 197.516)"><tspan x="91" dy="3.695">96.61</tspan></text><text x="160" y="180.516" class="fusioncharts-label" font-family="'helvetica neue', arial" transform="rotate(-90 160 180.516)"><tspan x="160" dy="3.695">98.38</tspan></text><text x="229" y="144.516" class="fusioncharts-label" font-family="'helvetica neue', arial" transform="rotate(-90 229 144.516)"><tspan x="229" dy="3.695">102.2</tspan></text><text x="298" y="195.25" class="fusioncharts-label" font-family="'helvetica neue', arial" transform="rotate(-90 298 195.25)"><tspan x="298" dy="3.695">100.65</tspan></text><text x="367" y="143.516" class="fusioncharts-label" font-family="'helvetica neue', arial" transform="rotate(-90 367 143.516)"><tspan x="367" dy="3.695">102.3</tspan></text><text x="436" y="203.484" class="fusioncharts-label" font-family="'helvetica neue', arial" transform="rotate(-90 436 203.484)"><tspan x="436" dy="3.695">99.49</tspan></text><text x="505" y="134.75" class="fusioncharts-label" font-family="'helvetica neue', arial" transform="rotate(-90 505 134.75)"><tspan x="505" dy="3.695">102.95</tspan></text></g><g class="fusioncharts-legend" transform="translate(222.5 360.5)"><rect width="151" height="25" fill="#fff" fill-opacity="0" stroke="#545454" stroke-opacity="0" rx="0" ry="0"/><text x="23" y="6.5" fill="#666" class="fusioncharts-legenditem" font-size="10" cursor="pointer"><tspan x="23" dy="8.5">old</tspan></text><path fill="#09a274" stroke="#6bc7ac" stroke-width=".5" d="M7 18v-7.7h2.75V18zm4.125 0V7h2.75v11zm4.125 0v-4.4H18V18z" cursor="pointer"/><rect width="36" height="17" x="4" y="4" fill="silver" fill-opacity="0" rx="0" ry="0" cursor="pointer"/><text x="69.85" y="6.5" fill="#666" class="fusioncharts-legenditem" font-size="10" cursor="pointer"><tspan x="69.85" dy="8.5">new</tspan></text><path fill="#3465aa" stroke="#85a3cc" stroke-width=".5" d="M53.85 18v-7.7h2.75V18zm4.125 0V7h2.75v11zm4.125 0v-4.4h2.75V18z" cursor="pointer"/><rect width="41" height="17" x="50.85" y="4" fill="silver" fill-opacity="0" rx="0" ry="0" cursor="pointer"/><text x="121.7" y="6.5" fill="#666" class="fusioncharts-legenditem" font-size="10" cursor="pointer"><tspan x="121.7" dy="8.5">ratio</tspan></text><path fill="none" stroke="#7c378a" stroke-width="2" d="M105.7 12.5h11" cursor="pointer"/><circle cx="111.2" cy="12.5" r="3.3" fill="#fff" stroke="#7c378a" cursor="pointer"/><rect width="42" height="17" x="102.7" y="4" fill="silver" fill-opacity="0" rx="0" ry="0" cursor="pointer"/></g><text x="298" y="15" fill="#333" class="raphael-group-173-caption fusioncharts-caption" text-anchor="middle" font-family="'helvetica neue', arial" font-size="14" font-weight="bold"><tspan x="298" dy="13.703">Context switching</tspan></text><g fill="silver" fill-opacity="0" stroke="silver" stroke-opacity="0" class="raphael-group-14-hot"><g class="raphael-group-89-col-hot"><rect width="28" height="107" x="62.5" y="216.5" rx="0" ry="0"/><rect width="27" height="119" x="132.5" y="204.5" rx="0" ry="0"/><rect width="27" height="108" x="201.5" y="215.5" rx="0" ry="0"/><rect width="28" height="164" x="270.5" y="159.5" rx="0" ry="0"/><rect width="28" height="217" x="339.5" y="106.5" rx="0" ry="0"/><rect width="28" height="213" x="408.5" y="110.5" rx="0" ry="0"/><rect width="28" height="221" x="477.5" y="102.5" rx="0" ry="0"/><rect width="28" height="103" x="90.5" y="220.5" rx="0" ry="0"/><rect width="28" height="117" x="159.5" y="206.5" rx="0" ry="0"/><rect width="28" height="110" x="228.5" y="213.5" rx="0" ry="0"/><rect width="27" height="165" x="298.5" y="158.5" rx="0" ry="0"/><rect width="27" height="222" x="367.5" y="101.5" rx="0" ry="0"/><rect width="27" height="212" x="436.5" y="111.5" rx="0" ry="0"/><rect width="28" height="228" x="505.5" y="95.5" rx="0" ry="0"/></g><g class="raphael-group-133-line-hot"><circle cx="91" cy="214" r="15"/><circle cx="160" cy="197" r="15"/><circle cx="229" cy="161" r="15"/><circle cx="298" cy="176" r="15"/><circle cx="367" cy="160" r="15"/><circle cx="436" cy="187" r="15"/><circle cx="505" cy="154" r="15"/></g></g><g class="raphael-group-17-buttons raphael-group-18-button"><rect width="18" height="17" x="572.5" y="6.5" fill="url('#11-90-rgba_204_204_204_1__0-rgba_255_255_255_1__100')" stroke="#bbb" rx="2" ry="2"/><path fill="#fff" stroke="#9a9a9a" d="M576.5 17.5v3h11v-3 3h-11zm5 2l-3-4.5h2V9.5h2V15h2z"/><rect width="18" height="17" x="572.5" y="6.5" fill="silver" fill-opacity="0" stroke="silver" stroke-opacity="0" rx="2" cursor="pointer" ry="2"/></g><text x="6" y="396" fill-opacity=".5" font-size="9" font-family="verdana, sans" cursor="pointer"><tspan x="6" dy="-1.813">FusionCharts XT Trial</tspan></text></svg>