<svg xmlns="http://www.w3.org/2000/svg" id="raphael-paper-11" width="600" height="400" style="-webkit-tap-highlight-color:rgba(0, 0, 0, 0);-webkit-user-select:none;position:relative;background-color:rgb(255, 255, 255)" overflow="hidden" cursor="default"><defs><linearGradient id="11-90-rgba_204_204_204_1__0-rgba_255_255_255_1__100" x2="0" y1="1"><stop offset="0%" stop-color="#ccc"/><stop offset="100%" stop-color="#fff"/></linearGradient><clipPath id="EE18FF0F-BFA4-4FAF-90A7-C74981F1C1AF"><path d="M54 41h486v294H54z"/></clipPath></defs><g class="raphael-group-12-background"><rect width="600" height="400" fill="#fff" fill-opacity=".5" rx="0" ry="0"/><rect width="600" height="400" fill="none" stroke="#767575" stroke-opacity=".5" stroke-width="0" rx="0" ry="0"/></g><g stroke-width="0" class="raphael-group-23-canvas"><rect width="486" height="294" x="54" y="41" fill="none" stroke="#545454" stroke-opacity="0" rx="0" ry="0"/><rect width="486" height="294" x="54" y="41" fill="#fff" rx="0" ry="0"/></g><g class="raphael-group-26-axisbottom"><g fill="#eee" fill-opacity="0" stroke="#000" stroke-width="0" class="raphael-group-35-y-axis-bands"><rect width="486" height="42" x="54" y="251" rx="0" ry="0"/><rect width="486" height="42" x="54" y="167" rx="0" ry="0"/><rect width="486" height="42" x="54" y="83" rx="0" ry="0"/></g><g fill="none" stroke="#999" class="raphael-group-37-y-axis-lines" stroke-dasharray="1 2" shape-rendering="crispedges"><path d="M54 293.5h486M54 251.5h486M54 209.5h486M54 167.5h486M54 125.5h486M54 83.5h486M54 41.5h486"/></g><g fill="none" stroke-opacity=".99" class="raphael-group-43-y-axis-lines" shape-rendering="crispedges"><path stroke="#ff4081" d="M54 247.5h486M54 188.5h486"/><path stroke="#34343e" d="M54 129.5h486"/><path stroke="#09a274" d="M54 70.5h486"/></g><g fill="#333" class="fusioncharts-xaxis-0-gridlabels" text-anchor="middle" font-family="'helvetica neue', arial" font-size="10"><text x="114.75" y="352" class="fusioncharts-label"><tspan x="114.75" dy="-2.305">0K File Create</tspan></text><text x="236.25" y="352" class="fusioncharts-label"><tspan x="236.25" dy="-2.305">0K File Delete</tspan></text><text x="357.75" y="352" class="fusioncharts-label"><tspan x="357.75" dy="-2.305">10K File Create</tspan></text><text x="479.25" y="352" class="fusioncharts-label"><tspan x="479.25" dy="-2.305">10K File Delete</tspan></text></g><g fill="#333" class="fusioncharts-yaxis-0-gridlabels" text-anchor="end" font-family="'helvetica neue', arial" font-size="10" font-weight="undefined" font-style="undefined"><text x="48" y="335" class="fusioncharts-label"><tspan x="48" dy="3.695">0</tspan></text><text x="48" y="293" class="fusioncharts-label"><tspan x="48" dy="3.695">3</tspan></text><text x="48" y="251" class="fusioncharts-label"><tspan x="48" dy="3.695">6</tspan></text><text x="48" y="209" class="fusioncharts-label"><tspan x="48" dy="3.695">9</tspan></text><text x="48" y="167" class="fusioncharts-label"><tspan x="48" dy="3.695">12</tspan></text><text x="48" y="125" class="fusioncharts-label"><tspan x="48" dy="3.695">15</tspan></text><text x="48" y="83" class="fusioncharts-label"><tspan x="48" dy="3.695">18</tspan></text><text x="48" y="41" class="fusioncharts-label"><tspan x="48" dy="3.695">21</tspan></text></g><g fill="#333" class="fusioncharts-yaxis-1-gridlabels" font-family="'helvetica neue', arial" font-size="10" font-weight="undefined" font-style="undefined"><text x="546" y="335" class="fusioncharts-label"><tspan x="546" dy="3.695">65</tspan></text><text x="546" y="276.2" class="fusioncharts-label"><tspan x="546" dy="3.7">75</tspan></text><text x="546" y="217.4" class="fusioncharts-label"><tspan x="546" dy="3.697">85</tspan></text><text x="546" y="158.6" class="fusioncharts-label"><tspan x="546" dy="3.694">95</tspan></text><text x="546" y="99.8" class="fusioncharts-label"><tspan x="546" dy="3.691">105</tspan></text><text x="546" y="41" class="fusioncharts-label"><tspan x="546" dy="3.695">115</tspan></text></g><g fill="#333" class="raphael-group-46-axis-name" text-anchor="middle" font-size="10"><text class="fusioncharts-yaxis-0-title" transform="rotate(-90 102.5 85.5)"><tspan x="0" dy="9.797">Latency (μs)</tspan></text><text class="fusioncharts-yaxis-1-title" transform="rotate(90 197.5 385.5)"><tspan x="0" dy="9.797">Performance Ratio (%)</tspan></text></g><path fill="none" stroke="#999" d="M54 335.5h486" class="raphael-group-85-axis-lines"/></g><g class="raphael-group-13-dataset"><g stroke="#333" stroke-opacity="0" class="raphael-group-88-columns" clip-path="url('#EE18FF0F-BFA4-4FAF-90A7-C74981F1C1AF')"><rect width="48" height="192" x="66.5" y="143.5" fill="#09a274" rx="0" ry="0"/><rect width="49" height="106" x="187.5" y="229.5" fill="#09a274" rx="0" ry="0"/><rect width="48" height="253" x="309.5" y="82.5" fill="#09a274" rx="0" ry="0"/><rect width="49" height="161" x="430.5" y="174.5" fill="#09a274" rx="0" ry="0"/><rect width="49" height="143" x="114.5" y="192.5" fill="#3465aa" rx="0" ry="0"/><rect width="48" height="103" x="236.5" y="232.5" fill="#3465aa" rx="0" ry="0"/><rect width="49" height="252" x="357.5" y="83.5" fill="#3465aa" rx="0" ry="0"/><rect width="48" height="156" x="479.5" y="179.5" fill="#3465aa" rx="0" ry="0"/></g><g class="raphael-group-114-line-connector"><path fill="none" stroke="#7c378a" stroke-width="2" d="M115 331l121-183 122-17 121 18" stroke-linecap="round" stroke-linejoin="round" class="raphael-group-117-connector"/><g fill="#fff" stroke="#7c378a" class="raphael-group-118-anchors"><path d="M112 331a3 3 0 0 0 6 0 3 3 0 0 0-6 0zM233 148a3 3 0 0 0 6 0 3 3 0 0 0-6 0zM355 131a3 3 0 0 0 6 0 3 3 0 0 0-6 0zM476 149a3 3 0 0 0 6 0 3 3 0 0 0-6 0z"/></g></g></g><g class="raphael-group-27-axistop"><g class="fusioncharts-yaxis-1-gridlabels" font-family="'helvetica neue', arial" font-size="10"><text x="546" y="246.8" fill="#ff4081" class="fusioncharts-label"><tspan x="546" dy="3.691">80</tspan></text><text x="546" y="188" fill="#ff4081" class="fusioncharts-label"><tspan x="546" dy="3.695">90</tspan></text><text x="546" y="129.2" fill="#34343e" class="fusioncharts-label"><tspan x="546" dy="3.7">100</tspan></text><text x="546" y="70.4" fill="#09a274" class="fusioncharts-label"><tspan x="546" dy="3.697">110</tspan></text></g></g><g fill="#fff" class="fusioncharts-datalabels" font-size="10" text-anchor="middle"><text x="90.5" y="159" class="fusioncharts-label" transform="rotate(-90 90.5 159)"><tspan x="90.5" dy="2.5">13.7</tspan></text><text x="212" y="281" class="fusioncharts-label" transform="rotate(-90 212 281)"><tspan x="212" dy="2.5">7.555459999999999</tspan></text><text x="333.5" y="137" class="fusioncharts-label" transform="rotate(-90 333.5 137)"><tspan x="333.5" dy="2.5">18.060000000000002</tspan></text><text x="455" y="190" class="fusioncharts-label" transform="rotate(-90 455 190)"><tspan x="455" dy="2.5">11.5</tspan></text><text x="139" y="208" class="fusioncharts-label" transform="rotate(-90 139 208)"><tspan x="139" dy="2.5">10.2</tspan></text><text x="260.5" y="284" class="fusioncharts-label" transform="rotate(-90 260.5 284)"><tspan x="260.5" dy="2.5">7.327119999999999</tspan></text><text x="382" y="95" class="fusioncharts-label" transform="rotate(-90 382 95)"><tspan x="382" dy="2.5">18</tspan></text><text x="503.5" y="198" class="fusioncharts-label" transform="rotate(-90 503.5 198)"><tspan x="503.5" dy="2.5">11.12</tspan></text><text x="115" y="314.516" class="fusioncharts-label" font-family="'helvetica neue', arial" transform="rotate(-90 115 314.516)"><tspan x="115" dy="3.695">65.69</tspan></text><text x="236" y="131.516" class="fusioncharts-label" font-family="'helvetica neue', arial" transform="rotate(-90 236 131.516)"><tspan x="236" dy="3.695">96.88</tspan></text><text x="358" y="114.516" class="fusioncharts-label" font-family="'helvetica neue', arial" transform="rotate(-90 358 114.516)"><tspan x="358" dy="3.695">99.67</tspan></text><text x="479" y="165.484" class="fusioncharts-label" font-family="'helvetica neue', arial" transform="rotate(-90 479 165.484)"><tspan x="479" dy="3.695">96.58</tspan></text></g><g class="fusioncharts-legend" transform="translate(223.5 360.5)"><rect width="147" height="25" fill="#fff" fill-opacity="0" stroke="#545454" stroke-opacity="0" rx="0" ry="0"/><text x="23" y="6.5" fill="#666" class="fusioncharts-legenditem" font-size="10" cursor="pointer"><tspan x="23" dy="8.5">old</tspan></text><path fill="#09a274" stroke="#6bc7ac" stroke-width=".5" d="M7 18v-7.7h2.75V18zm4.125 0V7h2.75v11zm4.125 0v-4.4H18V18z" cursor="pointer"/><rect width="35" height="17" x="4" y="4" fill="silver" fill-opacity="0" rx="0" ry="0" cursor="pointer"/><text x="68.85" y="6.5" fill="#666" class="fusioncharts-legenditem" font-size="10" cursor="pointer"><tspan x="68.85" dy="8.5">new</tspan></text><path fill="#3465aa" stroke="#85a3cc" stroke-width=".5" d="M52.85 18v-7.7h2.75V18zm4.125 0V7h2.75v11zm4.125 0v-4.4h2.75V18z" cursor="pointer"/><rect width="40" height="17" x="49.85" y="4" fill="silver" fill-opacity="0" rx="0" ry="0" cursor="pointer"/><text x="119.7" y="6.5" fill="#666" class="fusioncharts-legenditem" font-size="10" cursor="pointer"><tspan x="119.7" dy="8.5">ratio</tspan></text><path fill="none" stroke="#7c378a" stroke-width="2" d="M103.7 12.5h11" cursor="pointer"/><circle cx="109.2" cy="12.5" r="3.3" fill="#fff" stroke="#7c378a" cursor="pointer"/><rect width="41" height="17" x="100.7" y="4" fill="silver" fill-opacity="0" rx="0" ry="0" cursor="pointer"/></g><text x="297" y="15" fill="#333" class="raphael-group-144-caption fusioncharts-caption" text-anchor="middle" font-family="'helvetica neue', arial" font-size="14" font-weight="bold"><tspan x="297" dy="13.703">File &amp; VM system 1/3</tspan></text><g fill="silver" fill-opacity="0" stroke="silver" stroke-opacity="0" class="raphael-group-14-hot"><g class="raphael-group-87-col-hot"><rect width="48" height="192" x="66.5" y="143.5" rx="0" ry="0"/><rect width="49" height="106" x="187.5" y="229.5" rx="0" ry="0"/><rect width="48" height="253" x="309.5" y="82.5" rx="0" ry="0"/><rect width="49" height="161" x="430.5" y="174.5" rx="0" ry="0"/><rect width="49" height="143" x="114.5" y="192.5" rx="0" ry="0"/><rect width="48" height="103" x="236.5" y="232.5" rx="0" ry="0"/><rect width="49" height="252" x="357.5" y="83.5" rx="0" ry="0"/><rect width="48" height="156" x="479.5" y="179.5" rx="0" ry="0"/></g><g class="raphael-group-113-line-hot"><circle cx="115" cy="331" r="15"/><circle cx="236" cy="148" r="15"/><circle cx="358" cy="131" r="15"/><circle cx="479" cy="149" r="15"/></g></g><g class="raphael-group-17-buttons raphael-group-18-button"><rect width="18" height="17" x="572.5" y="6.5" fill="url('#11-90-rgba_204_204_204_1__0-rgba_255_255_255_1__100')" stroke="#bbb" rx="2" ry="2"/><path fill="#fff" stroke="#9a9a9a" d="M576.5 17.5v3h11v-3 3h-11zm5 2l-3-4.5h2V9.5h2V15h2z"/><rect width="18" height="17" x="572.5" y="6.5" fill="silver" fill-opacity="0" stroke="silver" stroke-opacity="0" rx="2" cursor="pointer" ry="2"/></g><text x="6" y="396" fill-opacity=".5" font-size="9" font-family="verdana, sans" cursor="pointer"><tspan x="6" dy="-1.813">FusionCharts XT Trial</tspan></text></svg>