<svg xmlns="http://www.w3.org/2000/svg" id="raphael-paper-11" width="600" height="400" style="-webkit-tap-highlight-color:rgba(0, 0, 0, 0);-webkit-user-select:none;position:relative;background-color:rgb(255, 255, 255)" overflow="hidden" cursor="default"><defs><linearGradient id="11-90-rgba_204_204_204_1__0-rgba_255_255_255_1__100" x2="0" y1="1"><stop offset="0%" stop-color="#ccc"/><stop offset="100%" stop-color="#fff"/></linearGradient><clipPath id="70D3D231-5966-475A-A618-35FDEA3D5F47"><path d="M54 41h486v282H54z"/></clipPath></defs><g class="raphael-group-12-background"><rect width="600" height="400" fill="#fff" fill-opacity=".5" rx="0" ry="0"/><rect width="600" height="400" fill="none" stroke="#767575" stroke-opacity=".5" stroke-width="0" rx="0" ry="0"/></g><g stroke-width="0" class="raphael-group-23-canvas"><rect width="486" height="282" x="54" y="41" fill="none" stroke="#545454" stroke-opacity="0" rx="0" ry="0"/><rect width="486" height="282" x="54" y="41" fill="#fff" rx="0" ry="0"/></g><g class="raphael-group-26-axisbottom"><g fill="#eee" fill-opacity="0" stroke="#000" stroke-width="0" class="raphael-group-35-y-axis-bands"><rect width="486" height="40.286" x="54" y="242.429" rx="0" ry="0"/><rect width="486" height="40.286" x="54" y="161.857" rx="0" ry="0"/><rect width="486" height="40.286" x="54" y="81.286" rx="0" ry="0"/></g><g fill="none" stroke="#999" class="raphael-group-37-y-axis-lines" stroke-dasharray="1 2" shape-rendering="crispedges"><path d="M54 283.5h486M54 242.5h486M54 202.5h486M54 162.5h486M54 122.5h486M54 81.5h486M54 41.5h486"/></g><g fill="none" stroke-opacity=".99" class="raphael-group-43-y-axis-lines" shape-rendering="crispedges"><path stroke="#ff4081" d="M54 117.5h486M54 95.5h486"/><path stroke="#34343e" d="M54 74.5h486"/><path stroke="#09a274" d="M54 52.5h486"/></g><g fill="#333" class="fusioncharts-xaxis-0-gridlabels" text-anchor="middle" font-family="'helvetica neue', arial" font-size="10"><text x="88.714" y="340" class="fusioncharts-label"><tspan x="88.714" dy="-2.305">2p/0K ctxsw</tspan></text><text x="158.143" y="340" class="fusioncharts-label"><tspan x="158.143" dy="-2.305">2p/16K ctxsw</tspan></text><text x="227.571" y="340" class="fusioncharts-label"><tspan x="227.571" dy="-2.305">2p/64K ctxsw</tspan></text><text x="297" y="340" class="fusioncharts-label"><tspan x="297" dy="-2.305">8p/16K ctxsw</tspan></text><text x="366.429" y="340" class="fusioncharts-label"><tspan x="366.429" dy="-2.305">8p/64K ctxsw</tspan></text><text x="435.857" y="328" class="fusioncharts-label"><tspan x="435.857" dy="9.695">16p/16K</tspan><tspan x="435.857" dy="12">ctxsw</tspan></text><text x="505.286" y="328" class="fusioncharts-label"><tspan x="505.286" dy="9.695">16p/64K</tspan><tspan x="505.286" dy="12">ctxsw</tspan></text></g><g fill="#333" class="fusioncharts-yaxis-0-gridlabels" text-anchor="end" font-family="'helvetica neue', arial" font-size="10" font-weight="undefined" font-style="undefined"><text x="48" y="323" class="fusioncharts-label"><tspan x="48" dy="3.695">0</tspan></text><text x="48" y="282.714" class="fusioncharts-label"><tspan x="48" dy="3.699">5</tspan></text><text x="48" y="242.429" class="fusioncharts-label"><tspan x="48" dy="3.694">10</tspan></text><text x="48" y="202.143" class="fusioncharts-label"><tspan x="48" dy="3.69">15</tspan></text><text x="48" y="161.857" class="fusioncharts-label"><tspan x="48" dy="3.701">20</tspan></text><text x="48" y="121.571" class="fusioncharts-label"><tspan x="48" dy="3.696">25</tspan></text><text x="48" y="81.286" class="fusioncharts-label"><tspan x="48" dy="3.692">30</tspan></text><text x="48" y="41" class="fusioncharts-label"><tspan x="48" dy="3.695">35</tspan></text></g><g fill="#333" class="fusioncharts-yaxis-1-gridlabels" font-family="'helvetica neue', arial" font-size="10" font-weight="undefined" font-style="undefined"><text x="546" y="323" class="fusioncharts-label"><tspan x="546" dy="3.695">-15</tspan></text><text x="546" y="266.6" class="fusioncharts-label"><tspan x="546" dy="3.694">11</tspan></text><text x="546" y="210.2" class="fusioncharts-label"><tspan x="546" dy="3.7">37</tspan></text><text x="546" y="153.8" class="fusioncharts-label"><tspan x="546" dy="3.691">63</tspan></text><text x="546" y="97.4" class="fusioncharts-label"><tspan x="546" dy="3.697">89</tspan></text><text x="546" y="41" class="fusioncharts-label"><tspan x="546" dy="3.695">115</tspan></text></g><g fill="#333" class="raphael-group-46-axis-name" text-anchor="middle" font-size="10"><text class="fusioncharts-yaxis-0-title" transform="rotate(-90 99.5 82.5)"><tspan x="0" dy="9.797">Latency (μs)</tspan></text><text class="fusioncharts-yaxis-1-title" transform="rotate(90 200.5 382.5)"><tspan x="0" dy="9.797">Performance Ratio (%)</tspan></text></g><path fill="none" stroke="#999" d="M54 323.5h486" class="raphael-group-89-axis-lines"/></g><g class="raphael-group-13-dataset"><g stroke="#333" stroke-opacity="0" class="raphael-group-92-columns" clip-path="url('#70D3D231-5966-475A-A618-35FDEA3D5F47')"><rect width="28" height="18" x="60.5" y="305.5" fill="#09a274" rx="0" ry="0"/><rect width="28" height="18" x="130.5" y="305.5" fill="#09a274" rx="0" ry="0"/><rect width="28" height="17" x="199.5" y="306.5" fill="#09a274" rx="0" ry="0"/><rect width="28" height="26" x="269.5" y="297.5" fill="#09a274" rx="0" ry="0"/><rect width="28" height="27" x="338.5" y="296.5" fill="#09a274" rx="0" ry="0"/><rect width="27" height="53" x="408.5" y="270.5" fill="#09a274" rx="0" ry="0"/><rect width="28" height="208" x="477.5" y="115.5" fill="#09a274" rx="0" ry="0"/><rect width="28" height="18" x="88.5" y="305.5" fill="#3465aa" rx="0" ry="0"/><rect width="27" height="18" x="158.5" y="305.5" fill="#3465aa" rx="0" ry="0"/><rect width="28" height="17" x="227.5" y="306.5" fill="#3465aa" rx="0" ry="0"/><rect width="27" height="27" x="297.5" y="296.5" fill="#3465aa" rx="0" ry="0"/><rect width="28" height="28" x="366.5" y="295.5" fill="#3465aa" rx="0" ry="0"/><rect width="28" height="25" x="435.5" y="298.5" fill="#3465aa" rx="0" ry="0"/><rect width="28" height="192" x="505.5" y="131.5" fill="#3465aa" rx="0" ry="0"/></g><g class="raphael-group-136-line-connector"><path fill="none" stroke="#7c378a" stroke-width="2" d="M89 74l69-2 70 1 69-7 69 5 70 250 69-229" stroke-linecap="round" stroke-linejoin="round" class="raphael-group-139-connector"/><g fill="#fff" stroke="#7c378a" class="raphael-group-140-anchors"><path d="M86 74a3 3 0 0 0 6 0 3 3 0 0 0-6 0zM155 72a3 3 0 0 0 6 0 3 3 0 0 0-6 0zM225 73a3 3 0 0 0 6 0 3 3 0 0 0-6 0zM294 66a3 3 0 0 0 6 0 3 3 0 0 0-6 0zM363 71a3 3 0 0 0 6 0 3 3 0 0 0-6 0zM433 321a3 3 0 0 0 6 0 3 3 0 0 0-6 0zM502 92a3 3 0 0 0 6 0 3 3 0 0 0-6 0z"/></g></g></g><g class="raphael-group-27-axistop"><g class="fusioncharts-yaxis-1-gridlabels" font-family="'helvetica neue', arial" font-size="10"><text x="546" y="290.462" fill="#333" class="fusioncharts-label" font-weight="undefined" font-style="undefined"><tspan x="546" dy="3.696">0</tspan></text><text x="546" y="116.923" fill="#ff4081" class="fusioncharts-label"><tspan x="546" dy="3.689">80</tspan></text><text x="546" y="95.231" fill="#ff4081" class="fusioncharts-label"><tspan x="546" dy="3.7">90</tspan></text><text x="546" y="73.538" fill="#34343e" class="fusioncharts-label"><tspan x="546" dy="3.695">100</tspan></text><text x="546" y="51.846" fill="#09a274" class="fusioncharts-label"><tspan x="546" dy="3.69">110</tspan></text></g></g><g fill="#fff" class="fusioncharts-datalabels" font-size="10" text-anchor="middle"><text x="74.5" y="251" class="fusioncharts-label" transform="rotate(-90 74.5 251)"><tspan x="74.5" dy="2.5">2.2039999999999997</tspan></text><text x="144.5" y="251" class="fusioncharts-label" transform="rotate(-90 144.5 251)"><tspan x="144.5" dy="2.5">2.2060000000000004</tspan></text><text x="213.5" y="288" class="fusioncharts-label" transform="rotate(-90 213.5 288)"><tspan x="213.5" dy="2.5">2.058</tspan></text><text x="283.5" y="279" class="fusioncharts-label" transform="rotate(-90 283.5 279)"><tspan x="283.5" dy="2.5">3.154</tspan></text><text x="352.5" y="278" class="fusioncharts-label" transform="rotate(-90 352.5 278)"><tspan x="352.5" dy="2.5">3.342</tspan></text><text x="422" y="216" class="fusioncharts-label" transform="rotate(-90 422 216)"><tspan x="422" dy="2.5">6.4719999999999995</tspan></text><text x="491.5" y="134" class="fusioncharts-label" transform="rotate(-90 491.5 134)"><tspan x="491.5" dy="2.5">25.73</tspan></text><text x="102.5" y="287" class="fusioncharts-label" transform="rotate(-90 102.5 287)"><tspan x="102.5" dy="2.5">2.198</tspan></text><text x="172" y="287" class="fusioncharts-label" transform="rotate(-90 172 287)"><tspan x="172" dy="2.5">2.222</tspan></text><text x="241.5" y="252" class="fusioncharts-label" transform="rotate(-90 241.5 252)"><tspan x="241.5" dy="2.5">2.0620000000000003</tspan></text><text x="311" y="242" class="fusioncharts-label" transform="rotate(-90 311 242)"><tspan x="311" dy="2.5">3.2600000000000002</tspan></text><text x="380.5" y="241" class="fusioncharts-label" transform="rotate(-90 380.5 241)"><tspan x="380.5" dy="2.5">3.3879999999999995</tspan></text><text x="449.5" y="244" class="fusioncharts-label" transform="rotate(-90 449.5 244)"><tspan x="449.5" dy="2.5">3.0200000000000005</tspan></text><text x="519.5" y="150" class="fusioncharts-label" transform="rotate(-90 519.5 150)"><tspan x="519.5" dy="2.5">23.74</tspan></text><text x="89" y="57.516" class="fusioncharts-label" font-family="'helvetica neue', arial" transform="rotate(-90 89 57.516)"><tspan x="89" dy="3.695">99.73</tspan></text><text x="158" y="91.25" class="fusioncharts-label" font-family="'helvetica neue', arial" transform="rotate(-90 158 91.25)"><tspan x="158" dy="3.695">100.72</tspan></text><text x="228" y="92.25" class="fusioncharts-label" font-family="'helvetica neue', arial" transform="rotate(-90 228 92.25)"><tspan x="228" dy="3.695">100.19</tspan></text><text x="297" y="85.25" class="fusioncharts-label" font-family="'helvetica neue', arial" transform="rotate(-90 297 85.25)"><tspan x="297" dy="3.695">103.25</tspan></text><text x="366" y="90.25" class="fusioncharts-label" font-family="'helvetica neue', arial" transform="rotate(-90 366 90.25)"><tspan x="366" dy="3.695">101.36</tspan></text><text x="436" y="305.359" class="fusioncharts-label" font-family="'helvetica neue', arial" transform="rotate(-90 436 305.36)"><tspan x="436" dy="3.695">-14.3</tspan></text><text x="505" y="75.516" class="fusioncharts-label" font-family="'helvetica neue', arial" transform="rotate(-90 505 75.516)"><tspan x="505" dy="3.695">91.62</tspan></text></g><g class="fusioncharts-legend" transform="translate(223.5 360.5)"><rect width="147" height="25" fill="#fff" fill-opacity="0" stroke="#545454" stroke-opacity="0" rx="0" ry="0"/><text x="23" y="6.5" fill="#666" class="fusioncharts-legenditem" font-size="10" cursor="pointer"><tspan x="23" dy="8.5">old</tspan></text><path fill="#09a274" stroke="#6bc7ac" stroke-width=".5" d="M7 18v-7.7h2.75V18zm4.125 0V7h2.75v11zm4.125 0v-4.4H18V18z" cursor="pointer"/><rect width="35" height="17" x="4" y="4" fill="silver" fill-opacity="0" rx="0" ry="0" cursor="pointer"/><text x="68.85" y="6.5" fill="#666" class="fusioncharts-legenditem" font-size="10" cursor="pointer"><tspan x="68.85" dy="8.5">new</tspan></text><path fill="#3465aa" stroke="#85a3cc" stroke-width=".5" d="M52.85 18v-7.7h2.75V18zm4.125 0V7h2.75v11zm4.125 0v-4.4h2.75V18z" cursor="pointer"/><rect width="40" height="17" x="49.85" y="4" fill="silver" fill-opacity="0" rx="0" ry="0" cursor="pointer"/><text x="119.7" y="6.5" fill="#666" class="fusioncharts-legenditem" font-size="10" cursor="pointer"><tspan x="119.7" dy="8.5">ratio</tspan></text><path fill="none" stroke="#7c378a" stroke-width="2" d="M103.7 12.5h11" cursor="pointer"/><circle cx="109.2" cy="12.5" r="3.3" fill="#fff" stroke="#7c378a" cursor="pointer"/><rect width="41" height="17" x="100.7" y="4" fill="silver" fill-opacity="0" rx="0" ry="0" cursor="pointer"/></g><text x="297" y="15" fill="#333" class="raphael-group-175-caption fusioncharts-caption" text-anchor="middle" font-family="'helvetica neue', arial" font-size="14" font-weight="bold"><tspan x="297" dy="13.703">Context switching</tspan></text><g fill="silver" fill-opacity="0" stroke="silver" stroke-opacity="0" class="raphael-group-14-hot"><g class="raphael-group-91-col-hot"><rect width="28" height="18" x="60.5" y="305.5" rx="0" ry="0"/><rect width="28" height="18" x="130.5" y="305.5" rx="0" ry="0"/><rect width="28" height="17" x="199.5" y="306.5" rx="0" ry="0"/><rect width="28" height="26" x="269.5" y="297.5" rx="0" ry="0"/><rect width="28" height="27" x="338.5" y="296.5" rx="0" ry="0"/><rect width="27" height="53" x="408.5" y="270.5" rx="0" ry="0"/><rect width="28" height="208" x="477.5" y="115.5" rx="0" ry="0"/><rect width="28" height="18" x="88.5" y="305.5" rx="0" ry="0"/><rect width="27" height="18" x="158.5" y="305.5" rx="0" ry="0"/><rect width="28" height="17" x="227.5" y="306.5" rx="0" ry="0"/><rect width="27" height="27" x="297.5" y="296.5" rx="0" ry="0"/><rect width="28" height="28" x="366.5" y="295.5" rx="0" ry="0"/><rect width="28" height="25" x="435.5" y="298.5" rx="0" ry="0"/><rect width="28" height="192" x="505.5" y="131.5" rx="0" ry="0"/></g><g class="raphael-group-135-line-hot"><circle cx="89" cy="74" r="15"/><circle cx="158" cy="72" r="15"/><circle cx="228" cy="73" r="15"/><circle cx="297" cy="66" r="15"/><circle cx="366" cy="71" r="15"/><circle cx="436" cy="321" r="15"/><circle cx="505" cy="92" r="15"/></g></g><g class="raphael-group-17-buttons raphael-group-18-button"><rect width="18" height="17" x="572.5" y="6.5" fill="url('#11-90-rgba_204_204_204_1__0-rgba_255_255_255_1__100')" stroke="#bbb" rx="2" ry="2"/><path fill="#fff" stroke="#9a9a9a" d="M576.5 17.5v3h11v-3 3h-11zm5 2l-3-4.5h2V9.5h2V15h2z"/><rect width="18" height="17" x="572.5" y="6.5" fill="silver" fill-opacity="0" stroke="silver" stroke-opacity="0" rx="2" cursor="pointer" ry="2"/></g><text x="6" y="396" fill-opacity=".5" font-size="9" font-family="verdana, sans" cursor="pointer"><tspan x="6" dy="-1.813">FusionCharts XT Trial</tspan></text></svg>