<svg xmlns="http://www.w3.org/2000/svg" id="raphael-paper-11" width="600" height="400" style="-webkit-tap-highlight-color:rgba(0, 0, 0, 0);-webkit-user-select:none;position:relative;background-color:rgb(255, 255, 255)" overflow="hidden" cursor="default"><defs><linearGradient id="11-90-rgba_204_204_204_1__0-rgba_255_255_255_1__100" x2="0" y1="1"><stop offset="0%" stop-color="#ccc"/><stop offset="100%" stop-color="#fff"/></linearGradient><clipPath id="9F6F45F3-CC47-427C-8239-02AA5331A039"><path d="M48 41h492v294H48z"/></clipPath></defs><g class="raphael-group-12-background"><rect width="600" height="400" fill="#fff" fill-opacity=".5" rx="0" ry="0"/><rect width="600" height="400" fill="none" stroke="#767575" stroke-opacity=".5" stroke-width="0" rx="0" ry="0"/></g><g stroke-width="0" class="raphael-group-23-canvas"><rect width="492" height="294" x="48" y="41" fill="none" stroke="#545454" stroke-opacity="0" rx="0" ry="0"/><rect width="492" height="294" x="48" y="41" fill="#fff" rx="0" ry="0"/></g><g class="raphael-group-26-axisbottom"><g fill="#eee" fill-opacity="0" stroke="#000" stroke-width="0" class="raphael-group-35-y-axis-bands"><rect width="492" height="42" x="48" y="251" rx="0" ry="0"/><rect width="492" height="42" x="48" y="167" rx="0" ry="0"/><rect width="492" height="42" x="48" y="83" rx="0" ry="0"/></g><g fill="none" stroke="#999" class="raphael-group-37-y-axis-lines" stroke-dasharray="1 2" shape-rendering="crispedges"><path d="M48 293.5h492M48 251.5h492M48 209.5h492M48 167.5h492M48 125.5h492M48 83.5h492M48 41.5h492"/></g><g fill="none" stroke-opacity=".99" class="raphael-group-43-y-axis-lines" shape-rendering="crispedges"><path stroke="#ff4081" d="M48 286.5h492"/><path stroke="#34343e" d="M48 188.5h492"/><path stroke="#09a274" d="M48 90.5h492"/></g><g fill="#333" class="fusioncharts-xaxis-0-gridlabels" text-anchor="middle" font-family="'helvetica neue', arial" font-size="10"><text x="83.143" y="352" class="fusioncharts-label"><tspan x="83.143" dy="-2.305">null call</tspan></text><text x="153.429" y="352" class="fusioncharts-label"><tspan x="153.429" dy="-2.305">null I/O</tspan></text><text x="223.714" y="352" class="fusioncharts-label"><tspan x="223.714" dy="-2.305">stat</tspan></text><text x="294" y="352" class="fusioncharts-label"><tspan x="294" dy="-2.305">open clos</tspan></text><text x="364.286" y="352" class="fusioncharts-label"><tspan x="364.286" dy="-2.305">slct TCP</tspan></text><text x="434.571" y="352" class="fusioncharts-label"><tspan x="434.571" dy="-2.305">sig inst</tspan></text><text x="504.857" y="352" class="fusioncharts-label"><tspan x="504.857" dy="-2.305">sig hndl</tspan></text></g><g fill="#333" class="fusioncharts-yaxis-0-gridlabels" text-anchor="end" font-family="'helvetica neue', arial" font-size="10" font-weight="undefined" font-style="undefined"><text x="42" y="335" class="fusioncharts-label"><tspan x="42" dy="3.695">0</tspan></text><text x="42" y="293" class="fusioncharts-label"><tspan x="42" dy="3.695">1</tspan></text><text x="42" y="251" class="fusioncharts-label"><tspan x="42" dy="3.695">2</tspan></text><text x="42" y="209" class="fusioncharts-label"><tspan x="42" dy="3.695">3</tspan></text><text x="42" y="167" class="fusioncharts-label"><tspan x="42" dy="3.695">4</tspan></text><text x="42" y="125" class="fusioncharts-label"><tspan x="42" dy="3.695">5</tspan></text><text x="42" y="83" class="fusioncharts-label"><tspan x="42" dy="3.695">6</tspan></text><text x="42" y="41" class="fusioncharts-label"><tspan x="42" dy="3.695">7</tspan></text></g><g fill="#333" class="fusioncharts-yaxis-1-gridlabels" font-family="'helvetica neue', arial" font-size="10" font-weight="undefined" font-style="undefined"><text x="546" y="335" class="fusioncharts-label"><tspan x="546" dy="3.695">85</tspan></text><text x="546" y="286" class="fusioncharts-label"><tspan x="546" dy="3.695">90</tspan></text><text x="546" y="237" class="fusioncharts-label"><tspan x="546" dy="3.695">95</tspan></text><text x="546" y="188" class="fusioncharts-label"><tspan x="546" dy="3.695">100</tspan></text><text x="546" y="139" class="fusioncharts-label"><tspan x="546" dy="3.695">105</tspan></text><text x="546" y="90" class="fusioncharts-label"><tspan x="546" dy="3.695">110</tspan></text><text x="546" y="41" class="fusioncharts-label"><tspan x="546" dy="3.695">115</tspan></text></g><g fill="#333" class="raphael-group-46-axis-name" text-anchor="middle" font-size="10"><text class="fusioncharts-yaxis-0-title" transform="rotate(-90 102.5 85.5)"><tspan x="0" dy="9.797">Latency (μs)</tspan></text><text class="fusioncharts-yaxis-1-title" transform="rotate(90 197.5 385.5)"><tspan x="0" dy="9.797">Performance Ratio (%)</tspan></text></g><path fill="none" stroke="#999" d="M48 335.5h492" class="raphael-group-87-axis-lines"/></g><g class="raphael-group-13-dataset"><g stroke="#333" stroke-opacity="0" class="raphael-group-90-columns" clip-path="url('#9F6F45F3-CC47-427C-8239-02AA5331A039')"><rect width="28" height="5" x="55.5" y="330.5" fill="#09a274" rx="0" ry="0"/><rect width="28" height="8" x="125.5" y="327.5" fill="#09a274" rx="0" ry="0"/><rect width="28" height="38" x="195.5" y="297.5" fill="#09a274" rx="0" ry="0"/><rect width="29" height="81" x="265.5" y="254.5" fill="#09a274" rx="0" ry="0"/><rect width="28" height="125" x="336.5" y="210.5" fill="#09a274" rx="0" ry="0"/><rect width="28" height="8" x="406.5" y="327.5" fill="#09a274" rx="0" ry="0"/><rect width="28" height="43" x="476.5" y="292.5" fill="#09a274" rx="0" ry="0"/><rect width="28" height="4" x="83.5" y="331.5" fill="#3465aa" rx="0" ry="0"/><rect width="28" height="8" x="153.5" y="327.5" fill="#3465aa" rx="0" ry="0"/><rect width="28" height="39" x="223.5" y="296.5" fill="#3465aa" rx="0" ry="0"/><rect width="28" height="89" x="294.5" y="246.5" fill="#3465aa" rx="0" ry="0"/><rect width="28" height="143" x="364.5" y="192.5" fill="#3465aa" rx="0" ry="0"/><rect width="28" height="8" x="434.5" y="327.5" fill="#3465aa" rx="0" ry="0"/><rect width="28" height="43" x="504.5" y="292.5" fill="#3465aa" rx="0" ry="0"/></g><g class="raphael-group-134-line-connector"><path fill="none" stroke="#7c378a" stroke-width="2" d="M83 231l70-43 71-28 70-61 70-35 71 103 70 25" stroke-linecap="round" stroke-linejoin="round" class="raphael-group-137-connector"/><g fill="#fff" stroke="#7c378a" class="raphael-group-138-anchors"><path d="M80 231a3 3 0 0 0 6 0 3 3 0 0 0-6 0zM150 188a3 3 0 0 0 6 0 3 3 0 0 0-6 0zM221 160a3 3 0 0 0 6 0 3 3 0 0 0-6 0zM291 99a3 3 0 0 0 6 0 3 3 0 0 0-6 0zM361 64a3 3 0 0 0 6 0 3 3 0 0 0-6 0zM432 167a3 3 0 0 0 6 0 3 3 0 0 0-6 0zM502 192a3 3 0 0 0 6 0 3 3 0 0 0-6 0z"/></g></g></g><g class="raphael-group-27-axistop"><g class="fusioncharts-yaxis-1-gridlabels" font-family="'helvetica neue', arial" font-size="10"><text x="546" y="286" fill="#ff4081" class="fusioncharts-label"><tspan x="546" dy="3.695">90</tspan></text><text x="546" y="188" fill="#34343e" class="fusioncharts-label"><tspan x="546" dy="3.695">100</tspan></text><text x="546" y="90" fill="#09a274" class="fusioncharts-label"><tspan x="546" dy="3.695">110</tspan></text></g></g><g fill="#fff" class="fusioncharts-datalabels" font-size="10" text-anchor="middle"><text x="69.5" y="307" class="fusioncharts-label" transform="rotate(-90 69.5 307)"><tspan x="69.5" dy="2.5">0.096</tspan></text><text x="139.5" y="308.5" class="fusioncharts-label" transform="rotate(-90 139.5 308.5)"><tspan x="139.5" dy="2.5">0.17</tspan></text><text x="209.5" y="310.5" class="fusioncharts-label" transform="rotate(-90 209.5 310.5)"><tspan x="209.5" dy="2.5">0.9</tspan></text><text x="280" y="273" class="fusioncharts-label" transform="rotate(-90 280 273)"><tspan x="280" dy="2.5">1.912</tspan></text><text x="350.5" y="229" class="fusioncharts-label" transform="rotate(-90 350.5 229)"><tspan x="350.5" dy="2.5">2.968</tspan></text><text x="420.5" y="308.5" class="fusioncharts-label" transform="rotate(-90 420.5 308.5)"><tspan x="420.5" dy="2.5">0.18</tspan></text><text x="490.5" y="311" class="fusioncharts-label" transform="rotate(-90 490.5 311)"><tspan x="490.5" dy="2.5">1.018</tspan></text><text x="97.5" y="307.5" class="fusioncharts-label" transform="rotate(-90 97.5 307.5)"><tspan x="97.5" dy="2.5">0.092</tspan></text><text x="167.5" y="308.5" class="fusioncharts-label" transform="rotate(-90 167.5 308.5)"><tspan x="167.5" dy="2.5">0.17</tspan></text><text x="237.5" y="315" class="fusioncharts-label" transform="rotate(-90 237.5 315)"><tspan x="237.5" dy="2.5">0.926</tspan></text><text x="308.5" y="192" class="fusioncharts-label" transform="rotate(-90 308.5 192)"><tspan x="308.5" dy="2.5">2.1019999999999994</tspan></text><text x="378.5" y="247" class="fusioncharts-label" transform="rotate(-90 378.5 247)"><tspan x="378.5" dy="2.5">3.3980000000000006</tspan></text><text x="448.5" y="305.5" class="fusioncharts-label" transform="rotate(-90 448.5 305.5)"><tspan x="448.5" dy="2.5">0.184</tspan></text><text x="518.5" y="311" class="fusioncharts-label" transform="rotate(-90 518.5 311)"><tspan x="518.5" dy="2.5">1.014</tspan></text><text x="83" y="214.516" class="fusioncharts-label" font-family="'helvetica neue', arial" transform="rotate(-90 83 214.516)"><tspan x="83" dy="3.695">95.65</tspan></text><text x="153" y="175.672" class="fusioncharts-label" font-family="'helvetica neue', arial" transform="rotate(-90 153 175.672)"><tspan x="153" dy="3.695">100</tspan></text><text x="224" y="140.75" class="fusioncharts-label" font-family="'helvetica neue', arial" transform="rotate(-90 224 140.75)"><tspan x="224" dy="3.695">102.81</tspan></text><text x="294" y="79.75" class="fusioncharts-label" font-family="'helvetica neue', arial" transform="rotate(-90 294 79.75)"><tspan x="294" dy="3.695">109.04</tspan></text><text x="364" y="83.25" class="fusioncharts-label" font-family="'helvetica neue', arial" transform="rotate(-90 364 83.25)"><tspan x="364" dy="3.695">112.65</tspan></text><text x="435" y="186.25" class="fusioncharts-label" font-family="'helvetica neue', arial" transform="rotate(-90 435 186.25)"><tspan x="435" dy="3.695">102.17</tspan></text><text x="505" y="208.484" class="fusioncharts-label" font-family="'helvetica neue', arial" transform="rotate(-90 505 208.484)"><tspan x="505" dy="3.695">99.61</tspan></text></g><g class="fusioncharts-legend" transform="translate(219.5 360.5)"><rect width="149" height="25" fill="#fff" fill-opacity="0" stroke="#545454" stroke-opacity="0" rx="0" ry="0"/><text x="23" y="6.5" fill="#666" class="fusioncharts-legenditem" font-size="10" cursor="pointer"><tspan x="23" dy="8.5">old</tspan></text><path fill="#09a274" stroke="#6bc7ac" stroke-width=".5" d="M7 18v-7.7h2.75V18zm4.125 0V7h2.75v11zm4.125 0v-4.4H18V18z" cursor="pointer"/><rect width="36" height="17" x="4" y="4" fill="silver" fill-opacity="0" rx="0" ry="0" cursor="pointer"/><text x="69.85" y="6.5" fill="#666" class="fusioncharts-legenditem" font-size="10" cursor="pointer"><tspan x="69.85" dy="8.5">new</tspan></text><path fill="#3465aa" stroke="#85a3cc" stroke-width=".5" d="M53.85 18v-7.7h2.75V18zm4.125 0V7h2.75v11zm4.125 0v-4.4h2.75V18z" cursor="pointer"/><rect width="40" height="17" x="50.85" y="4" fill="silver" fill-opacity="0" rx="0" ry="0" cursor="pointer"/><text x="120.7" y="6.5" fill="#666" class="fusioncharts-legenditem" font-size="10" cursor="pointer"><tspan x="120.7" dy="8.5">ratio</tspan></text><path fill="none" stroke="#7c378a" stroke-width="2" d="M104.7 12.5h11" cursor="pointer"/><circle cx="110.2" cy="12.5" r="3.3" fill="#fff" stroke="#7c378a" cursor="pointer"/><rect width="42" height="17" x="101.7" y="4" fill="silver" fill-opacity="0" rx="0" ry="0" cursor="pointer"/></g><text x="294" y="15" fill="#333" class="raphael-group-173-caption fusioncharts-caption" text-anchor="middle" font-family="'helvetica neue', arial" font-size="14" font-weight="bold"><tspan x="294" dy="13.703">Processor, Processes 1/2</tspan></text><g fill="silver" fill-opacity="0" stroke="silver" stroke-opacity="0" class="raphael-group-14-hot"><g class="raphael-group-89-col-hot"><rect width="28" height="15" x="55.5" y="325.5" rx="0" ry="0"/><rect width="28" height="15" x="125.5" y="324" rx="0" ry="0"/><rect width="28" height="38" x="195.5" y="297.5" rx="0" ry="0"/><rect width="29" height="81" x="265.5" y="254.5" rx="0" ry="0"/><rect width="28" height="125" x="336.5" y="210.5" rx="0" ry="0"/><rect width="28" height="15" x="406.5" y="324" rx="0" ry="0"/><rect width="28" height="43" x="476.5" y="292.5" rx="0" ry="0"/><rect width="28" height="15" x="83.5" y="326" rx="0" ry="0"/><rect width="28" height="15" x="153.5" y="324" rx="0" ry="0"/><rect width="28" height="39" x="223.5" y="296.5" rx="0" ry="0"/><rect width="28" height="89" x="294.5" y="246.5" rx="0" ry="0"/><rect width="28" height="143" x="364.5" y="192.5" rx="0" ry="0"/><rect width="28" height="15" x="434.5" y="324" rx="0" ry="0"/><rect width="28" height="43" x="504.5" y="292.5" rx="0" ry="0"/></g><g class="raphael-group-133-line-hot"><circle cx="83" cy="231" r="15"/><circle cx="153" cy="188" r="15"/><circle cx="224" cy="160" r="15"/><circle cx="294" cy="99" r="15"/><circle cx="364" cy="64" r="15"/><circle cx="435" cy="167" r="15"/><circle cx="505" cy="192" r="15"/></g></g><g class="raphael-group-17-buttons raphael-group-18-button"><rect width="18" height="17" x="572.5" y="6.5" fill="url('#11-90-rgba_204_204_204_1__0-rgba_255_255_255_1__100')" stroke="#bbb" rx="2" ry="2"/><path fill="#fff" stroke="#9a9a9a" d="M576.5 17.5v3h11v-3 3h-11zm5 2l-3-4.5h2V9.5h2V15h2z"/><rect width="18" height="17" x="572.5" y="6.5" fill="silver" fill-opacity="0" stroke="silver" stroke-opacity="0" rx="2" cursor="pointer" ry="2"/></g><text x="6" y="396" fill-opacity=".5" font-size="9" font-family="verdana, sans" cursor="pointer"><tspan x="6" dy="-1.813">FusionCharts XT Trial</tspan></text></svg>