<svg xmlns="http://www.w3.org/2000/svg" id="raphael-paper-11" width="600" height="400" style="-webkit-tap-highlight-color:rgba(0, 0, 0, 0);-webkit-user-select:none;position:relative;background-color:rgb(255, 255, 255)" overflow="hidden" cursor="default"><defs><linearGradient id="11-90-rgba_204_204_204_1__0-rgba_255_255_255_1__100" x2="0" y1="1"><stop offset="0%" stop-color="#ccc"/><stop offset="100%" stop-color="#fff"/></linearGradient><clipPath id="8DE0039A-5871-4325-938B-7F67509F688B"><path d="M67 41h473v282H67z"/></clipPath></defs><g class="raphael-group-12-background"><rect width="600" height="400" fill="#fff" fill-opacity=".5" rx="0" ry="0"/><rect width="600" height="400" fill="none" stroke="#767575" stroke-opacity=".5" stroke-width="0" rx="0" ry="0"/></g><g stroke-width="0" class="raphael-group-23-canvas"><rect width="473" height="282" x="67" y="41" fill="none" stroke="#545454" stroke-opacity="0" rx="0" ry="0"/><rect width="473" height="282" x="67" y="41" fill="#fff" rx="0" ry="0"/></g><g class="raphael-group-26-axisbottom"><g fill="#eee" fill-opacity="0" stroke="#000" stroke-width="0" class="raphael-group-35-y-axis-bands"><rect width="473" height="40.286" x="67" y="242.429" rx="0" ry="0"/><rect width="473" height="40.286" x="67" y="161.857" rx="0" ry="0"/><rect width="473" height="40.286" x="67" y="81.286" rx="0" ry="0"/></g><g fill="none" stroke="#999" class="raphael-group-37-y-axis-lines" stroke-dasharray="1 2" shape-rendering="crispedges"><path d="M67 283.5h473M67 242.5h473M67 202.5h473M67 162.5h473M67 122.5h473M67 81.5h473M67 41.5h473"/></g><g fill="none" stroke-opacity=".99" class="raphael-group-43-y-axis-lines" shape-rendering="crispedges"><path stroke="#ff4081" d="M67 276.5h473"/><path stroke="#34343e" d="M67 182.5h473"/><path stroke="#09a274" d="M67 88.5h473"/></g><g fill="#333" class="fusioncharts-xaxis-0-gridlabels" text-anchor="middle" font-family="'helvetica neue', arial" font-size="10"><text x="93.278" y="340" class="fusioncharts-label"><tspan x="93.278" dy="-2.305">Pipe</tspan></text><text x="145.833" y="340" class="fusioncharts-label"><tspan x="145.833" dy="-2.305">AF UNIX</tspan></text><text x="198.389" y="340" class="fusioncharts-label"><tspan x="198.389" dy="-2.305">TCP</tspan></text><text x="250.944" y="340" class="fusioncharts-label"><tspan x="250.944" dy="-2.305">File reread</tspan></text><text x="303.5" y="328" class="fusioncharts-label"><tspan x="303.5" dy="9.695">Mmap</tspan><tspan x="303.5" dy="12">reread</tspan></text><text x="356.056" y="328" class="fusioncharts-label"><tspan x="356.056" dy="9.695">Bcopy</tspan><tspan x="356.056" dy="12">(libc)</tspan></text><text x="408.611" y="328" class="fusioncharts-label"><tspan x="408.611" dy="9.695">Bcopy</tspan><tspan x="408.611" dy="12">(hand)</tspan></text><text x="461.167" y="340" class="fusioncharts-label"><tspan x="461.167" dy="-2.305">Mem read</tspan></text><text x="513.722" y="340" class="fusioncharts-label"><tspan x="513.722" dy="-2.305">Mem write</tspan></text></g><g fill="#333" class="fusioncharts-yaxis-0-gridlabels" text-anchor="end" font-family="'helvetica neue', arial" font-size="10" font-weight="undefined" font-style="undefined"><text x="61" y="323" class="fusioncharts-label"><tspan x="61" dy="3.695">0</tspan></text><text x="61" y="282.714" class="fusioncharts-label"><tspan x="61" dy="3.699">1,300</tspan></text><text x="61" y="242.429" class="fusioncharts-label"><tspan x="61" dy="3.694">2,600</tspan></text><text x="61" y="202.143" class="fusioncharts-label"><tspan x="61" dy="3.69">3,900</tspan></text><text x="61" y="161.857" class="fusioncharts-label"><tspan x="61" dy="3.701">5,200</tspan></text><text x="61" y="121.571" class="fusioncharts-label"><tspan x="61" dy="3.696">6,500</tspan></text><text x="61" y="81.286" class="fusioncharts-label"><tspan x="61" dy="3.692">7,800</tspan></text><text x="61" y="41" class="fusioncharts-label"><tspan x="61" dy="3.695">9,100</tspan></text></g><g fill="#333" class="fusioncharts-yaxis-1-gridlabels" font-family="'helvetica neue', arial" font-size="10" font-weight="undefined" font-style="undefined"><text x="546" y="323" class="fusioncharts-label"><tspan x="546" dy="3.695">85</tspan></text><text x="546" y="276" class="fusioncharts-label"><tspan x="546" dy="3.695">90</tspan></text><text x="546" y="229" class="fusioncharts-label"><tspan x="546" dy="3.695">95</tspan></text><text x="546" y="182" class="fusioncharts-label"><tspan x="546" dy="3.695">100</tspan></text><text x="546" y="135" class="fusioncharts-label"><tspan x="546" dy="3.695">105</tspan></text><text x="546" y="88" class="fusioncharts-label"><tspan x="546" dy="3.695">110</tspan></text><text x="546" y="41" class="fusioncharts-label"><tspan x="546" dy="3.695">115</tspan></text></g><g fill="#333" class="raphael-group-46-axis-name" text-anchor="middle" font-size="10"><text class="fusioncharts-yaxis-0-title" transform="rotate(-90 99.5 82.5)"><tspan x="0" dy="9.797">Latency (μs)</tspan></text><text class="fusioncharts-yaxis-1-title" transform="rotate(90 200.5 382.5)"><tspan x="0" dy="9.797">Performance Ratio (%)</tspan></text></g><path fill="none" stroke="#999" d="M67 323.5h473" class="raphael-group-89-axis-lines"/></g><g class="raphael-group-13-dataset"><g stroke="#333" stroke-opacity="0" class="raphael-group-92-columns" clip-path="url('#8DE0039A-5871-4325-938B-7F67509F688B')"><rect width="21" height="150" x="72.5" y="173.5" fill="#09a274" rx="0" ry="0"/><rect width="21" height="151" x="124.5" y="172.5" fill="#09a274" rx="0" ry="0"/><rect width="21" height="135" x="177.5" y="188.5" fill="#09a274" rx="0" ry="0"/><rect width="21" height="167" x="229.5" y="156.5" fill="#09a274" rx="0" ry="0"/><rect width="21" height="239" x="282.5" y="84.5" fill="#09a274" rx="0" ry="0"/><rect width="21" height="211" x="335.5" y="112.5" fill="#09a274" rx="0" ry="0"/><rect width="21" height="149" x="387.5" y="174.5" fill="#09a274" rx="0" ry="0"/><rect width="21" height="255" x="440.5" y="68.5" fill="#09a274" rx="0" ry="0"/><rect width="21" height="189" x="492.5" y="134.5" fill="#09a274" rx="0" ry="0"/><rect width="21" height="148" x="93.5" y="175.5" fill="#3465aa" rx="0" ry="0"/><rect width="21" height="160" x="145.5" y="163.5" fill="#3465aa" rx="0" ry="0"/><rect width="21" height="132" x="198.5" y="191.5" fill="#3465aa" rx="0" ry="0"/><rect width="21" height="167" x="250.5" y="156.5" fill="#3465aa" rx="0" ry="0"/><rect width="21" height="238" x="303.5" y="85.5" fill="#3465aa" rx="0" ry="0"/><rect width="21" height="213" x="356.5" y="110.5" fill="#3465aa" rx="0" ry="0"/><rect width="21" height="148" x="408.5" y="175.5" fill="#3465aa" rx="0" ry="0"/><rect width="21" height="254" x="461.5" y="69.5" fill="#3465aa" rx="0" ry="0"/><rect width="21" height="188" x="513.5" y="135.5" fill="#3465aa" rx="0" ry="0"/></g><g class="raphael-group-148-line-connector"><path fill="none" stroke="#7c378a" stroke-width="2" d="M93 191l53-64 52 80 53-22 53-1 52-10 53 11 52-1 53 1" stroke-linecap="round" stroke-linejoin="round" class="raphael-group-151-connector"/><g fill="#fff" stroke="#7c378a" class="raphael-group-152-anchors"><path d="M90 191a3 3 0 0 0 6 0 3 3 0 0 0-6 0zM143 127a3 3 0 0 0 6 0 3 3 0 0 0-6 0zM195 207a3 3 0 0 0 6 0 3 3 0 0 0-6 0zM248 185a3 3 0 0 0 6 0 3 3 0 0 0-6 0zM301 184a3 3 0 0 0 6 0 3 3 0 0 0-6 0zM353 174a3 3 0 0 0 6 0 3 3 0 0 0-6 0zM406 185a3 3 0 0 0 6 0 3 3 0 0 0-6 0zM458 184a3 3 0 0 0 6 0 3 3 0 0 0-6 0zM511 185a3 3 0 0 0 6 0 3 3 0 0 0-6 0z"/></g></g></g><g class="raphael-group-27-axistop"><g class="fusioncharts-yaxis-1-gridlabels" font-family="'helvetica neue', arial" font-size="10"><text x="546" y="276" fill="#ff4081" class="fusioncharts-label"><tspan x="546" dy="3.695">90</tspan></text><text x="546" y="182" fill="#34343e" class="fusioncharts-label"><tspan x="546" dy="3.695">100</tspan></text><text x="546" y="88" fill="#09a274" class="fusioncharts-label"><tspan x="546" dy="3.695">110</tspan></text></g></g><g fill="#fff" class="fusioncharts-datalabels" font-size="10" text-anchor="middle"><text x="83" y="196" class="fusioncharts-label" transform="rotate(-90 83 196)"><tspan x="83" dy="2.5">4,812.4</tspan></text><text x="135" y="191" class="fusioncharts-label" transform="rotate(-90 135 191)"><tspan x="135" dy="2.5">4,853</tspan></text><text x="188" y="211" class="fusioncharts-label" transform="rotate(-90 188 211)"><tspan x="188" dy="2.5">4,344.6</tspan></text><text x="240" y="179" class="fusioncharts-label" transform="rotate(-90 240 179)"><tspan x="240" dy="2.5">5,382.8</tspan></text><text x="293" y="107" class="fusioncharts-label" transform="rotate(-90 293 107)"><tspan x="293" dy="2.5">7,681.7</tspan></text><text x="346" y="138" class="fusioncharts-label" transform="rotate(-90 346 138)"><tspan x="346" dy="2.5">6,804.32</tspan></text><text x="398" y="200" class="fusioncharts-label" transform="rotate(-90 398 200)"><tspan x="398" dy="2.5">4,789.54</tspan></text><text x="451" y="91" class="fusioncharts-label" transform="rotate(-90 451 91)"><tspan x="451" dy="2.5">8,212.8</tspan></text><text x="503" y="157" class="fusioncharts-label" transform="rotate(-90 503 157)"><tspan x="503" dy="2.5">6,067.4</tspan></text><text x="104" y="198" class="fusioncharts-label" transform="rotate(-90 104 198)"><tspan x="104" dy="2.5">4,768.4</tspan></text><text x="156" y="186" class="fusioncharts-label" transform="rotate(-90 156 186)"><tspan x="156" dy="2.5">5,153.4</tspan></text><text x="209" y="214" class="fusioncharts-label" transform="rotate(-90 209 214)"><tspan x="209" dy="2.5">4,230.2</tspan></text><text x="261" y="212.5" class="fusioncharts-label" transform="rotate(-90 261 212.5)"><tspan x="261" dy="2.5">5,366.5199999999995</tspan></text><text x="314" y="138.5" class="fusioncharts-label" transform="rotate(-90 314 138.5)"><tspan x="314" dy="2.5">7,664.160000000001</tspan></text><text x="367" y="133" class="fusioncharts-label" transform="rotate(-90 367 133)"><tspan x="367" dy="2.5">6,865.6</tspan></text><text x="419" y="198" class="fusioncharts-label" transform="rotate(-90 419 198)"><tspan x="419" dy="2.5">4,774.2</tspan></text><text x="472" y="92" class="fusioncharts-label" transform="rotate(-90 472 92)"><tspan x="472" dy="2.5">8,194.6</tspan></text><text x="524" y="158" class="fusioncharts-label" transform="rotate(-90 524 158)"><tspan x="524" dy="2.5">6,045.2</tspan></text><text x="93" y="174.516" class="fusioncharts-label" font-family="'helvetica neue', arial" transform="rotate(-90 93 174.516)"><tspan x="93" dy="3.695">99.08</tspan></text><text x="146" y="107.75" class="fusioncharts-label" font-family="'helvetica neue', arial" transform="rotate(-90 146 107.75)"><tspan x="146" dy="3.695">105.83</tspan></text><text x="198" y="220.703" class="fusioncharts-label" font-family="'helvetica neue', arial" transform="rotate(-90 198 220.703)"><tspan x="198" dy="3.695">97.3</tspan></text><text x="251" y="171.297" class="fusioncharts-label" font-family="'helvetica neue', arial" transform="rotate(-90 251 171.297)"><tspan x="251" dy="3.695">99.7</tspan></text><text x="304" y="167.516" class="fusioncharts-label" font-family="'helvetica neue', arial" transform="rotate(-90 304 167.516)"><tspan x="304" dy="3.695">99.77</tspan></text><text x="356" y="154.75" class="fusioncharts-label" font-family="'helvetica neue', arial" transform="rotate(-90 356 154.75)"><tspan x="356" dy="3.695">100.89</tspan></text><text x="409" y="201.484" class="fusioncharts-label" font-family="'helvetica neue', arial" transform="rotate(-90 409 201.484)"><tspan x="409" dy="3.695">99.68</tspan></text><text x="461" y="167.516" class="fusioncharts-label" font-family="'helvetica neue', arial" transform="rotate(-90 461 167.516)"><tspan x="461" dy="3.695">99.78</tspan></text><text x="514" y="201.484" class="fusioncharts-label" font-family="'helvetica neue', arial" transform="rotate(-90 514 201.484)"><tspan x="514" dy="3.695">99.63</tspan></text></g><g class="fusioncharts-legend" transform="translate(228.5 360.5)"><rect width="150" height="25" fill="#fff" fill-opacity="0" stroke="#545454" stroke-opacity="0" rx="0" ry="0"/><text x="23" y="6.5" fill="#666" class="fusioncharts-legenditem" font-size="10" cursor="pointer"><tspan x="23" dy="8.5">old</tspan></text><path fill="#09a274" stroke="#6bc7ac" stroke-width=".5" d="M7 18v-7.7h2.75V18zm4.125 0V7h2.75v11zm4.125 0v-4.4H18V18z" cursor="pointer"/><rect width="36" height="17" x="4" y="4" fill="silver" fill-opacity="0" rx="0" ry="0" cursor="pointer"/><text x="69.85" y="6.5" fill="#666" class="fusioncharts-legenditem" font-size="10" cursor="pointer"><tspan x="69.85" dy="8.5">new</tspan></text><path fill="#3465aa" stroke="#85a3cc" stroke-width=".5" d="M53.85 18v-7.7h2.75V18zm4.125 0V7h2.75v11zm4.125 0v-4.4h2.75V18z" cursor="pointer"/><rect width="41" height="17" x="50.85" y="4" fill="silver" fill-opacity="0" rx="0" ry="0" cursor="pointer"/><text x="121.7" y="6.5" fill="#666" class="fusioncharts-legenditem" font-size="10" cursor="pointer"><tspan x="121.7" dy="8.5">ratio</tspan></text><path fill="none" stroke="#7c378a" stroke-width="2" d="M105.7 12.5h11" cursor="pointer"/><circle cx="111.2" cy="12.5" r="3.3" fill="#fff" stroke="#7c378a" cursor="pointer"/><rect width="42" height="17" x="102.7" y="4" fill="silver" fill-opacity="0" rx="0" ry="0" cursor="pointer"/></g><text x="303.5" y="15" fill="#333" class="raphael-group-193-caption fusioncharts-caption" text-anchor="middle" font-family="'helvetica neue', arial" font-size="14" font-weight="bold"><tspan x="303.5" dy="13.703">*Local* Communication</tspan></text><g fill="silver" fill-opacity="0" stroke="silver" stroke-opacity="0" class="raphael-group-14-hot"><g class="raphael-group-91-col-hot"><rect width="21" height="150" x="72.5" y="173.5" rx="0" ry="0"/><rect width="21" height="151" x="124.5" y="172.5" rx="0" ry="0"/><rect width="21" height="135" x="177.5" y="188.5" rx="0" ry="0"/><rect width="21" height="167" x="229.5" y="156.5" rx="0" ry="0"/><rect width="21" height="239" x="282.5" y="84.5" rx="0" ry="0"/><rect width="21" height="211" x="335.5" y="112.5" rx="0" ry="0"/><rect width="21" height="149" x="387.5" y="174.5" rx="0" ry="0"/><rect width="21" height="255" x="440.5" y="68.5" rx="0" ry="0"/><rect width="21" height="189" x="492.5" y="134.5" rx="0" ry="0"/><rect width="21" height="148" x="93.5" y="175.5" rx="0" ry="0"/><rect width="21" height="160" x="145.5" y="163.5" rx="0" ry="0"/><rect width="21" height="132" x="198.5" y="191.5" rx="0" ry="0"/><rect width="21" height="167" x="250.5" y="156.5" rx="0" ry="0"/><rect width="21" height="238" x="303.5" y="85.5" rx="0" ry="0"/><rect width="21" height="213" x="356.5" y="110.5" rx="0" ry="0"/><rect width="21" height="148" x="408.5" y="175.5" rx="0" ry="0"/><rect width="21" height="254" x="461.5" y="69.5" rx="0" ry="0"/><rect width="21" height="188" x="513.5" y="135.5" rx="0" ry="0"/></g><g class="raphael-group-147-line-hot"><circle cx="93" cy="191" r="15"/><circle cx="146" cy="127" r="15"/><circle cx="198" cy="207" r="15"/><circle cx="251" cy="185" r="15"/><circle cx="304" cy="184" r="15"/><circle cx="356" cy="174" r="15"/><circle cx="409" cy="185" r="15"/><circle cx="461" cy="184" r="15"/><circle cx="514" cy="185" r="15"/></g></g><g class="raphael-group-17-buttons raphael-group-18-button"><rect width="18" height="17" x="572.5" y="6.5" fill="url('#11-90-rgba_204_204_204_1__0-rgba_255_255_255_1__100')" stroke="#bbb" rx="2" ry="2"/><path fill="#fff" stroke="#9a9a9a" d="M576.5 17.5v3h11v-3 3h-11zm5 2l-3-4.5h2V9.5h2V15h2z"/><rect width="18" height="17" x="572.5" y="6.5" fill="silver" fill-opacity="0" stroke="silver" stroke-opacity="0" rx="2" cursor="pointer" ry="2"/></g><text x="6" y="396" fill-opacity=".5" font-size="9" font-family="verdana, sans" cursor="pointer"><tspan x="6" dy="-1.813">FusionCharts XT Trial</tspan></text></svg>