<svg xmlns="http://www.w3.org/2000/svg" id="raphael-paper-11" width="600" height="400" style="-webkit-tap-highlight-color:rgba(0, 0, 0, 0);-webkit-user-select:none;position:relative;background-color:rgb(255, 255, 255)" overflow="hidden" cursor="default"><defs><linearGradient id="11-90-rgba_204_204_204_1__0-rgba_255_255_255_1__100" x2="0" y1="1"><stop offset="0%" stop-color="#ccc"/><stop offset="100%" stop-color="#fff"/></linearGradient><clipPath id="CD0ADF06-4EEC-4E5F-B202-E6724F5195CF"><path d="M59 41h526v260H59z"/></clipPath></defs><g class="raphael-group-12-background"><rect width="600" height="400" fill="#fff" fill-opacity=".5" rx="0" ry="0"/><rect width="600" height="400" fill="none" stroke="#767575" stroke-opacity=".5" stroke-width="0" rx="0" ry="0"/></g><g stroke-width="0" class="raphael-group-23-canvas"><rect width="526" height="260" x="59" y="41" fill="none" stroke="#545454" stroke-opacity="0" rx="0" ry="0"/><rect width="526" height="260" x="59" y="41" fill="#fff" rx="0" ry="0"/></g><g class="raphael-group-26-axisbottom"><g fill="#eee" fill-opacity="0" stroke="#000" stroke-width="0" class="raphael-group-35-y-axis-bands"><rect width="526" height="52" x="59" y="197" rx="0" ry="0"/><rect width="526" height="52" x="59" y="93" rx="0" ry="0"/></g><g fill="none" stroke="#999" class="raphael-group-37-y-axis-lines" stroke-dasharray="1 2" shape-rendering="crispedges"><path d="M59 249.5h526M59 197.5h526M59 145.5h526M59 93.5h526M59 41.5h526"/></g><g fill="#333" class="fusioncharts-xaxis-0-gridlabels" text-anchor="middle" font-family="'helvetica neue', arial" font-size="10"><text x="190.5" y="318" class="fusioncharts-label"><tspan x="190.5" dy="-2.305">TCP_RR</tspan></text><text x="453.5" y="318" class="fusioncharts-label"><tspan x="453.5" dy="-2.305">UDP_RR</tspan></text></g><g fill="#333" class="fusioncharts-yaxis-0-gridlabels" text-anchor="end" font-family="'helvetica neue', arial" font-size="10" font-weight="undefined" font-style="undefined"><text x="53" y="301" class="fusioncharts-label"><tspan x="53" dy="3.695">0</tspan></text><text x="53" y="249" class="fusioncharts-label"><tspan x="53" dy="3.695">20</tspan></text><text x="53" y="197" class="fusioncharts-label"><tspan x="53" dy="3.695">40</tspan></text><text x="53" y="145" class="fusioncharts-label"><tspan x="53" dy="3.695">60</tspan></text><text x="53" y="93" class="fusioncharts-label"><tspan x="53" dy="3.695">80</tspan></text><text x="53" y="41" class="fusioncharts-label"><tspan x="53" dy="3.695">100</tspan></text></g><text fill="#333" class="raphael-group-46-axis-name fusioncharts-yaxis-0-title" text-anchor="middle" transform="rotate(-90 94 77)" font-size="10"><tspan x="0" dy="9.797">CPU Usage (%)</tspan></text><path fill="none" stroke="#999" d="M59 301.5h526" class="raphael-group-63-axis-lines"/></g><g class="raphael-group-13-dataset"><g stroke="#333" stroke-opacity="0" class="raphael-group-67-columns" clip-path="url('#CD0ADF06-4EEC-4E5F-B202-E6724F5195CF')"><rect width="50" height="1" x="140.5" y="301.5" fill="#09a274" rx="0" ry="0"/><rect width="50" height="1" x="403.5" y="301.5" fill="#09a274" rx="0" ry="0"/><rect width="50" height="1" x="140.5" y="301.5" fill="#3465aa" rx="0" ry="0"/><rect width="50" height="1" x="403.5" y="301.5" fill="#3465aa" rx="0" ry="0"/><rect width="50" height="1" x="140.5" y="301.5" fill="#7c378a" rx="0" ry="0"/><rect width="50" height="1" x="403.5" y="301.5" fill="#7c378a" rx="0" ry="0"/><rect width="50" height="1" x="140.5" y="300.5" fill="#e91c63" rx="0" ry="0"/><rect width="50" height="1" x="403.5" y="300.5" fill="#e91c63" rx="0" ry="0"/><rect width="50" height="1" x="140.5" y="300.5" fill="#ff5622" rx="0" ry="0"/><rect width="50" height="1" x="403.5" y="300.5" fill="#ff5622" rx="0" ry="0"/><rect width="50" height="80" x="140.5" y="220.5" fill="#ff9800" rx="0" ry="0"/><rect width="50" height="111" x="403.5" y="189.5" fill="#ff9800" rx="0" ry="0"/><rect width="50" height="148" x="140.5" y="72.5" fill="#4baf4f" rx="0" ry="0"/><rect width="50" height="126" x="403.5" y="63.5" fill="#4baf4f" rx="0" ry="0"/><rect width="50" height="22" x="140.5" y="50.5" fill="#03a9f4" rx="0" ry="0"/><rect width="50" height="12" x="403.5" y="51.5" fill="#03a9f4" rx="0" ry="0"/><rect width="50" height="1" x="190.5" y="301.5" fill="#09a274" rx="0" ry="0"/><rect width="50" height="1" x="453.5" y="301.5" fill="#09a274" rx="0" ry="0"/><rect width="50" height="1" x="190.5" y="301.5" fill="#3465aa" rx="0" ry="0"/><rect width="50" height="1" x="453.5" y="301.5" fill="#3465aa" rx="0" ry="0"/><rect width="50" height="1" x="190.5" y="301.5" fill="#7c378a" rx="0" ry="0"/><rect width="50" height="1" x="453.5" y="301.5" fill="#7c378a" rx="0" ry="0"/><rect width="50" height="1" x="190.5" y="301.5" fill="#e91c63" rx="0" ry="0"/><rect width="50" height="1" x="453.5" y="301.5" fill="#e91c63" rx="0" ry="0"/><rect width="50" height="1" x="190.5" y="301.5" fill="#ff5622" rx="0" ry="0"/><rect width="50" height="1" x="453.5" y="301.5" fill="#ff5622" rx="0" ry="0"/><rect width="50" height="74" x="190.5" y="227.5" fill="#ff9800" rx="0" ry="0"/><rect width="50" height="79" x="453.5" y="222.5" fill="#ff9800" rx="0" ry="0"/><rect width="50" height="153" x="190.5" y="74.5" fill="#4baf4f" rx="0" ry="0"/><rect width="50" height="135" x="453.5" y="87.5" fill="#4baf4f" rx="0" ry="0"/><rect width="50" height="23" x="190.5" y="51.5" fill="#03a9f4" rx="0" ry="0"/><rect width="50" height="21" x="453.5" y="66.5" fill="#03a9f4" rx="0" ry="0"/></g></g><g class="fusioncharts-legend" transform="translate(77.5 326.5)"><rect width="489" height="59" fill="#fff" fill-opacity="0" stroke="#545454" stroke-opacity="0" rx="0" ry="0"/><text x="23" y="6.5" fill="#666" class="fusioncharts-legenditem" font-size="10" cursor="pointer"><tspan x="23" dy="8.5">%gnice</tspan></text><path fill="#09a274" stroke="#6bc7ac" stroke-width=".5" d="M7 18v-7.7h2.75V18zm4.125 0V7h2.75v11zm4.125 0v-4.4H18V18z" cursor="pointer"/><rect width="57" height="17" x="4" y="4" fill="silver" fill-opacity="0" rx="0" ry="0" cursor="pointer"/><text x="92.85" y="6.5" fill="#666" class="fusioncharts-legenditem" font-size="10" cursor="pointer"><tspan x="92.85" dy="8.5">%guest</tspan></text><path fill="#3465aa" stroke="#85a3cc" stroke-width=".5" d="M76.85 18v-7.7h2.75V18zm4.125 0V7h2.75v11zm4.125 0v-4.4h2.75V18z" cursor="pointer"/><rect width="57" height="17" x="73.85" y="4" fill="silver" fill-opacity="0" rx="0" ry="0" cursor="pointer"/><text x="162.7" y="6.5" fill="#666" class="fusioncharts-legenditem" font-size="10" cursor="pointer"><tspan x="162.7" dy="8.5">%iowait</tspan></text><path fill="#7c378a" stroke="#b087b9" stroke-width=".5" d="M146.7 18v-7.7h2.75V18zm4.125 0V7h2.75v11zm4.125 0v-4.4h2.75V18z" cursor="pointer"/><rect width="59" height="17" x="143.7" y="4" fill="silver" fill-opacity="0" rx="0" ry="0" cursor="pointer"/><text x="232.55" y="6.5" fill="#666" class="fusioncharts-legenditem" font-size="10" cursor="pointer"><tspan x="232.55" dy="8.5">%irq</tspan></text><path fill="#e91c63" stroke="#f277a1" stroke-width=".5" d="M216.55 18v-7.7h2.75V18zm4.125 0V7h2.75v11zm4.125 0v-4.4h2.75V18z" cursor="pointer"/><rect width="44" height="17" x="213.55" y="4" fill="silver" fill-opacity="0" rx="0" ry="0" cursor="pointer"/><text x="302.4" y="6.5" fill="#666" class="fusioncharts-legenditem" font-size="10" cursor="pointer"><tspan x="302.4" dy="8.5">%nice</tspan></text><path fill="#ff5622" stroke="#ff9a7a" stroke-width=".5" d="M286.4 18v-7.7h2.75V18zm4.125 0V7h2.75v11zm4.125 0v-4.4h2.75V18z" cursor="pointer"/><rect width="51" height="17" x="283.4" y="4" fill="silver" fill-opacity="0" rx="0" ry="0" cursor="pointer"/><text x="372.25" y="6.5" fill="#666" class="fusioncharts-legenditem" font-size="10" cursor="pointer"><tspan x="372.25" dy="8.5">%soft</tspan></text><path fill="#ff9800" stroke="#ffc166" stroke-width=".5" d="M356.25 18v-7.7H359V18zm4.125 0V7h2.75v11zm4.125 0v-4.4h2.75V18z" cursor="pointer"/><rect width="49" height="17" x="353.25" y="4" fill="silver" fill-opacity="0" rx="0" ry="0" cursor="pointer"/><text x="442.1" y="6.5" fill="#666" class="fusioncharts-legenditem" font-size="10" cursor="pointer"><tspan x="442.1" dy="8.5">%steal</tspan></text><path fill="#8bc34a" stroke="#b9db92" stroke-width=".5" d="M426.1 18v-7.7h2.75V18zm4.125 0V7h2.75v11zm4.125 0v-4.4h2.75V18z" cursor="pointer"/><rect width="53" height="17" x="423.1" y="4" fill="silver" fill-opacity="0" rx="0" ry="0" cursor="pointer"/><text x="23" y="23.5" fill="#666" class="fusioncharts-legenditem" font-size="10" cursor="pointer"><tspan x="23" dy="8.5">%sys</tspan></text><path fill="#4baf4f" stroke="#93cf95" stroke-width=".5" d="M7 35v-7.7h2.75V35zm4.125 0V24h2.75v11zm4.125 0v-4.4H18V35z" cursor="pointer"/><rect width="47" height="17" x="4" y="21" fill="silver" fill-opacity="0" rx="0" ry="0" cursor="pointer"/><text x="92.85" y="23.5" fill="#666" class="fusioncharts-legenditem" font-size="10" cursor="pointer"><tspan x="92.85" dy="8.5">%usr</tspan></text><path fill="#03a9f4" stroke="#68cbf8" stroke-width=".5" d="M76.85 35v-7.7h2.75V35zm4.125 0V24h2.75v11zm4.125 0v-4.4h2.75V35z" cursor="pointer"/><rect width="46" height="17" x="73.85" y="21" fill="silver" fill-opacity="0" rx="0" ry="0" cursor="pointer"/><text x="162.7" y="23.5" fill="#666" class="fusioncharts-legenditem" font-size="10" cursor="pointer"><tspan x="162.7" dy="8.5">%gnice</tspan></text><path fill="#09a274" stroke="#6bc7ac" stroke-width=".5" d="M146.7 35v-7.7h2.75V35zm4.125 0V24h2.75v11zm4.125 0v-4.4h2.75V35z" cursor="pointer"/><rect width="57" height="17" x="143.7" y="21" fill="silver" fill-opacity="0" rx="0" ry="0" cursor="pointer"/><text x="232.55" y="23.5" fill="#666" class="fusioncharts-legenditem" font-size="10" cursor="pointer"><tspan x="232.55" dy="8.5">%guest</tspan></text><path fill="#3465aa" stroke="#85a3cc" stroke-width=".5" d="M216.55 35v-7.7h2.75V35zm4.125 0V24h2.75v11zm4.125 0v-4.4h2.75V35z" cursor="pointer"/><rect width="57" height="17" x="213.55" y="21" fill="silver" fill-opacity="0" rx="0" ry="0" cursor="pointer"/><text x="302.4" y="23.5" fill="#666" class="fusioncharts-legenditem" font-size="10" cursor="pointer"><tspan x="302.4" dy="8.5">%iowait</tspan></text><path fill="#7c378a" stroke="#b087b9" stroke-width=".5" d="M286.4 35v-7.7h2.75V35zm4.125 0V24h2.75v11zm4.125 0v-4.4h2.75V35z" cursor="pointer"/><rect width="59" height="17" x="283.4" y="21" fill="silver" fill-opacity="0" rx="0" ry="0" cursor="pointer"/><text x="372.25" y="23.5" fill="#666" class="fusioncharts-legenditem" font-size="10" cursor="pointer"><tspan x="372.25" dy="8.5">%irq</tspan></text><path fill="#e91c63" stroke="#f277a1" stroke-width=".5" d="M356.25 35v-7.7H359V35zm4.125 0V24h2.75v11zm4.125 0v-4.4h2.75V35z" cursor="pointer"/><rect width="44" height="17" x="353.25" y="21" fill="silver" fill-opacity="0" rx="0" ry="0" cursor="pointer"/><text x="442.1" y="23.5" fill="#666" class="fusioncharts-legenditem" font-size="10" cursor="pointer"><tspan x="442.1" dy="8.5">%nice</tspan></text><path fill="#ff5622" stroke="#ff9a7a" stroke-width=".5" d="M426.1 35v-7.7h2.75V35zm4.125 0V24h2.75v11zm4.125 0v-4.4h2.75V35z" cursor="pointer"/><rect width="51" height="17" x="423.1" y="21" fill="silver" fill-opacity="0" rx="0" ry="0" cursor="pointer"/><text x="23" y="40.5" fill="#666" class="fusioncharts-legenditem" font-size="10" cursor="pointer"><tspan x="23" dy="8.5">%soft</tspan></text><path fill="#ff9800" stroke="#ffc166" stroke-width=".5" d="M7 52v-7.7h2.75V52zm4.125 0V41h2.75v11zm4.125 0v-4.4H18V52z" cursor="pointer"/><rect width="49" height="17" x="4" y="38" fill="silver" fill-opacity="0" rx="0" ry="0" cursor="pointer"/><text x="92.85" y="40.5" fill="#666" class="fusioncharts-legenditem" font-size="10" cursor="pointer"><tspan x="92.85" dy="8.5">%steal</tspan></text><path fill="#8bc34a" stroke="#b9db92" stroke-width=".5" d="M76.85 52v-7.7h2.75V52zm4.125 0V41h2.75v11zm4.125 0v-4.4h2.75V52z" cursor="pointer"/><rect width="53" height="17" x="73.85" y="38" fill="silver" fill-opacity="0" rx="0" ry="0" cursor="pointer"/><text x="162.7" y="40.5" fill="#666" class="fusioncharts-legenditem" font-size="10" cursor="pointer"><tspan x="162.7" dy="8.5">%sys</tspan></text><path fill="#4baf4f" stroke="#93cf95" stroke-width=".5" d="M146.7 52v-7.7h2.75V52zm4.125 0V41h2.75v11zm4.125 0v-4.4h2.75V52z" cursor="pointer"/><rect width="47" height="17" x="143.7" y="38" fill="silver" fill-opacity="0" rx="0" ry="0" cursor="pointer"/><text x="232.55" y="40.5" fill="#666" class="fusioncharts-legenditem" font-size="10" cursor="pointer"><tspan x="232.55" dy="8.5">%usr</tspan></text><path fill="#03a9f4" stroke="#68cbf8" stroke-width=".5" d="M216.55 52v-7.7h2.75V52zm4.125 0V41h2.75v11zm4.125 0v-4.4h2.75V52z" cursor="pointer"/><rect width="46" height="17" x="213.55" y="38" fill="silver" fill-opacity="0" rx="0" ry="0" cursor="pointer"/></g><text x="322" y="15" fill="#333" class="raphael-group-188-caption fusioncharts-caption" text-anchor="middle" font-family="'helvetica neue', arial" font-size="14" font-weight="bold"><tspan x="322" dy="13.703">RR CPU Usage [sender]</tspan></text><g fill="silver" fill-opacity="0" stroke="silver" stroke-opacity="0" class="raphael-group-14-hot raphael-group-65-col-hot"><rect width="50" height="1" x="140.5" y="301.5" rx="0" ry="0"/><rect width="50" height="1" x="403.5" y="301.5" rx="0" ry="0"/><rect width="50" height="1" x="140.5" y="301.5" rx="0" ry="0"/><rect width="50" height="1" x="403.5" y="301.5" rx="0" ry="0"/><rect width="50" height="1" x="140.5" y="301.5" rx="0" ry="0"/><rect width="50" height="1" x="403.5" y="301.5" rx="0" ry="0"/><rect width="50" height="1" x="140.5" y="300.5" rx="0" ry="0"/><rect width="50" height="1" x="403.5" y="300.5" rx="0" ry="0"/><rect width="50" height="1" x="140.5" y="300.5" rx="0" ry="0"/><rect width="50" height="1" x="403.5" y="300.5" rx="0" ry="0"/><rect width="50" height="80" x="140.5" y="220.5" rx="0" ry="0"/><rect width="50" height="111" x="403.5" y="189.5" rx="0" ry="0"/><rect width="50" height="148" x="140.5" y="72.5" rx="0" ry="0"/><rect width="50" height="126" x="403.5" y="63.5" rx="0" ry="0"/><rect width="50" height="22" x="140.5" y="50.5" rx="0" ry="0"/><rect width="50" height="12" x="403.5" y="51.5" rx="0" ry="0"/><rect width="50" height="1" x="190.5" y="301.5" rx="0" ry="0"/><rect width="50" height="1" x="453.5" y="301.5" rx="0" ry="0"/><rect width="50" height="1" x="190.5" y="301.5" rx="0" ry="0"/><rect width="50" height="1" x="453.5" y="301.5" rx="0" ry="0"/><rect width="50" height="1" x="190.5" y="301.5" rx="0" ry="0"/><rect width="50" height="1" x="453.5" y="301.5" rx="0" ry="0"/><rect width="50" height="1" x="190.5" y="301.5" rx="0" ry="0"/><rect width="50" height="1" x="453.5" y="301.5" rx="0" ry="0"/><rect width="50" height="1" x="190.5" y="301.5" rx="0" ry="0"/><rect width="50" height="1" x="453.5" y="301.5" rx="0" ry="0"/><rect width="50" height="74" x="190.5" y="227.5" rx="0" ry="0"/><rect width="50" height="79" x="453.5" y="222.5" rx="0" ry="0"/><rect width="50" height="153" x="190.5" y="74.5" rx="0" ry="0"/><rect width="50" height="135" x="453.5" y="87.5" rx="0" ry="0"/><rect width="50" height="23" x="190.5" y="51.5" rx="0" ry="0"/><rect width="50" height="21" x="453.5" y="66.5" rx="0" ry="0"/></g><g class="raphael-group-17-buttons raphael-group-18-button"><rect width="18" height="17" x="572.5" y="6.5" fill="url('#11-90-rgba_204_204_204_1__0-rgba_255_255_255_1__100')" stroke="#bbb" rx="2" ry="2"/><path fill="#fff" stroke="#9a9a9a" d="M576.5 17.5v3h11v-3 3h-11zm5 2l-3-4.5h2V9.5h2V15h2z"/><rect width="18" height="17" x="572.5" y="6.5" fill="silver" fill-opacity="0" stroke="silver" stroke-opacity="0" rx="2" cursor="pointer" ry="2"/></g><text x="6" y="396" fill-opacity=".5" font-size="9" font-family="verdana, sans" cursor="pointer"><tspan x="6" dy="-1.813">FusionCharts XT Trial</tspan></text></svg>