<svg xmlns="http://www.w3.org/2000/svg" id="raphael-paper-11" width="600" height="400" style="-webkit-tap-highlight-color:rgba(0, 0, 0, 0);-webkit-user-select:none;position:relative;background-color:rgb(255, 255, 255)" overflow="hidden" cursor="default"><defs><linearGradient id="11-90-rgba_204_204_204_1__0-rgba_255_255_255_1__100" x2="0" y1="1"><stop offset="0%" stop-color="#ccc"/><stop offset="100%" stop-color="#fff"/></linearGradient><clipPath id="458BAEB7-C1BA-41D7-BFB7-C495EBDD73AE"><path d="M73 41h459v294H73z"/></clipPath></defs><g class="raphael-group-12-background"><rect width="600" height="400" fill="#fff" fill-opacity=".5" rx="0" ry="0"/><rect width="600" height="400" fill="none" stroke="#767575" stroke-opacity=".5" stroke-width="0" rx="0" ry="0"/></g><g stroke-width="0" class="raphael-group-23-canvas"><rect width="459" height="294" x="73" y="41" fill="none" stroke="#545454" stroke-opacity="0" rx="0" ry="0"/><rect width="459" height="294" x="73" y="41" fill="#fff" rx="0" ry="0"/></g><g class="raphael-group-26-axisbottom"><g fill="#eee" fill-opacity="0" stroke="#000" stroke-width="0" class="raphael-group-35-y-axis-bands"><rect width="459" height="42" x="73" y="251" rx="0" ry="0"/><rect width="459" height="42" x="73" y="167" rx="0" ry="0"/><rect width="459" height="42" x="73" y="83" rx="0" ry="0"/></g><g fill="none" stroke="#999" class="raphael-group-37-y-axis-lines" stroke-dasharray="1 2" shape-rendering="crispedges"><path d="M73 293.5h459M73 251.5h459M73 209.5h459M73 167.5h459M73 125.5h459M73 83.5h459M73 41.5h459"/></g><g fill="none" stroke-opacity=".99" class="raphael-group-43-y-axis-lines" shape-rendering="crispedges"><path stroke="#ff4081" d="M73 334.5h459"/><path stroke="#34343e" d="M73 331.5h459"/><path stroke="#09a274" d="M73 328.5h459M73 326.5h459"/></g><g fill="#333" class="fusioncharts-xaxis-0-gridlabels" text-anchor="middle" font-family="'helvetica neue', arial" font-size="10"><text x="187.75" y="352" class="fusioncharts-label"><tspan x="187.75" dy="-2.305">TCP_RR</tspan></text><text x="417.25" y="352" class="fusioncharts-label"><tspan x="417.25" dy="-2.305">UDP_RR</tspan></text></g><g fill="#333" class="fusioncharts-yaxis-0-gridlabels" text-anchor="end" font-family="'helvetica neue', arial" font-size="10" font-weight="undefined" font-style="undefined"><text x="67" y="335" class="fusioncharts-label"><tspan x="67" dy="3.695">0</tspan></text><text x="67" y="293" class="fusioncharts-label"><tspan x="67" dy="3.695">6,000</tspan></text><text x="67" y="251" class="fusioncharts-label"><tspan x="67" dy="3.695">12,000</tspan></text><text x="67" y="209" class="fusioncharts-label"><tspan x="67" dy="3.695">18,000</tspan></text><text x="67" y="167" class="fusioncharts-label"><tspan x="67" dy="3.695">24,000</tspan></text><text x="67" y="125" class="fusioncharts-label"><tspan x="67" dy="3.695">30,000</tspan></text><text x="67" y="83" class="fusioncharts-label"><tspan x="67" dy="3.695">36,000</tspan></text><text x="67" y="41" class="fusioncharts-label"><tspan x="67" dy="3.695">42,000</tspan></text></g><g fill="#333" class="fusioncharts-yaxis-1-gridlabels" font-family="'helvetica neue', arial" font-size="10" font-weight="undefined" font-style="undefined"><text x="538" y="335" class="fusioncharts-label"><tspan x="538" dy="3.695">85</tspan></text><text x="538" y="276.2" class="fusioncharts-label"><tspan x="538" dy="3.7">308</tspan></text><text x="538" y="217.4" class="fusioncharts-label"><tspan x="538" dy="3.697">531</tspan></text><text x="538" y="158.6" class="fusioncharts-label"><tspan x="538" dy="3.694">754</tspan></text><text x="538" y="99.8" class="fusioncharts-label"><tspan x="538" dy="3.691">977</tspan></text><text x="538" y="41" class="fusioncharts-label"><tspan x="538" dy="3.695">1,200</tspan></text></g><g fill="#333" class="raphael-group-46-axis-name" text-anchor="middle" font-size="10"><text class="fusioncharts-yaxis-0-title" transform="rotate(-90 102.5 85.5)"><tspan x="0" dy="9.797">Throughput (Mbps)</tspan></text><text class="fusioncharts-yaxis-1-title" transform="rotate(90 197.5 385.5)"><tspan x="0" dy="9.797">Performance Ratio (%)</tspan></text></g><path fill="none" stroke="#999" d="M73 335.5h459" class="raphael-group-83-axis-lines"/></g><g class="raphael-group-13-dataset"><g stroke="#333" stroke-opacity="0" class="raphael-group-86-columns" clip-path="url('#458BAEB7-C1BA-41D7-BFB7-C495EBDD73AE')"><rect width="50" height="213" x="137.5" y="122.5" fill="#09a274" rx="0" ry="0"/><rect width="50" height="5" x="367.5" y="330.5" fill="#09a274" rx="0" ry="0"/><rect width="50" height="260" x="187.5" y="75.5" fill="#3465aa" rx="0" ry="0"/><rect width="50" height="57" x="417.5" y="278.5" fill="#3465aa" rx="0" ry="0"/></g><g class="raphael-group-100-line-connector"><path fill="none" stroke="#7c378a" stroke-width="2" d="M188 325L417 42" stroke-linecap="round" stroke-linejoin="round" class="raphael-group-103-connector"/><g fill="#fff" stroke="#7c378a" class="raphael-group-104-anchors"><path d="M185 325a3 3 0 0 0 6 0 3 3 0 0 0-6 0zM414 42a3 3 0 0 0 6 0 3 3 0 0 0-6 0z"/></g></g></g><g class="raphael-group-27-axistop"><g class="fusioncharts-yaxis-1-gridlabels" font-family="'helvetica neue', arial" font-size="10"><text x="538" y="333.682" fill="#ff4081" class="fusioncharts-label"><tspan x="538" dy="3.697">90</tspan></text><text x="538" y="331.045" fill="#34343e" class="fusioncharts-label"><tspan x="538" dy="3.701">100</tspan></text><text x="538" y="328.408" fill="#09a274" class="fusioncharts-label"><tspan x="538" dy="3.689">110</tspan></text><text x="538" y="325.771" fill="#09a274" class="fusioncharts-label"><tspan x="538" dy="3.693">120</tspan></text></g></g><g fill="#fff" class="fusioncharts-datalabels" font-size="10" text-anchor="middle"><text x="162.5" y="153.5" class="fusioncharts-label" transform="matrix(0 -1 1 0 9 316)"><tspan x="162.5" dy="2.5">30,311.952</tspan></text><text x="392.5" y="301.5" class="fusioncharts-label" transform="rotate(-90 392.5 301.5)"><tspan x="392.5" dy="2.5">675.166</tspan></text><text x="212.5" y="106.5" class="fusioncharts-label" transform="rotate(-90 212.5 106.5)"><tspan x="212.5" dy="2.5">37,065.324</tspan></text><text x="442.5" y="306.5" class="fusioncharts-label" transform="rotate(-90 442.5 306.5)"><tspan x="442.5" dy="2.5">8,063.602</tspan></text><text x="188" y="305.75" class="fusioncharts-label" font-family="'helvetica neue', arial" transform="rotate(-90 188 305.75)"><tspan x="188" dy="3.695">122.28</tspan></text><text x="417" y="65.406" class="fusioncharts-label" font-family="'helvetica neue', arial" transform="rotate(-90 417 65.406)"><tspan x="417" dy="3.695">1,194.31</tspan></text></g><g class="fusioncharts-legend" transform="translate(227.5 360.5)"><rect width="150" height="25" fill="#fff" fill-opacity="0" stroke="#545454" stroke-opacity="0" rx="0" ry="0"/><text x="23" y="6.5" fill="#666" class="fusioncharts-legenditem" font-size="10" cursor="pointer"><tspan x="23" dy="8.5">old</tspan></text><path fill="#09a274" stroke="#6bc7ac" stroke-width=".5" d="M7 18v-7.7h2.75V18zm4.125 0V7h2.75v11zm4.125 0v-4.4H18V18z" cursor="pointer"/><rect width="36" height="17" x="4" y="4" fill="silver" fill-opacity="0" rx="0" ry="0" cursor="pointer"/><text x="69.85" y="6.5" fill="#666" class="fusioncharts-legenditem" font-size="10" cursor="pointer"><tspan x="69.85" dy="8.5">new</tspan></text><path fill="#3465aa" stroke="#85a3cc" stroke-width=".5" d="M53.85 18v-7.7h2.75V18zm4.125 0V7h2.75v11zm4.125 0v-4.4h2.75V18z" cursor="pointer"/><rect width="41" height="17" x="50.85" y="4" fill="silver" fill-opacity="0" rx="0" ry="0" cursor="pointer"/><text x="121.7" y="6.5" fill="#666" class="fusioncharts-legenditem" font-size="10" cursor="pointer"><tspan x="121.7" dy="8.5">ratio</tspan></text><path fill="none" stroke="#7c378a" stroke-width="2" d="M105.7 12.5h11" cursor="pointer"/><circle cx="111.2" cy="12.5" r="3.3" fill="#fff" stroke="#7c378a" cursor="pointer"/><rect width="42" height="17" x="102.7" y="4" fill="silver" fill-opacity="0" rx="0" ry="0" cursor="pointer"/></g><text x="302.5" y="15" fill="#333" class="raphael-group-124-caption fusioncharts-caption" text-anchor="middle" font-family="'helvetica neue', arial" font-size="14" font-weight="bold"><tspan x="302.5" dy="13.703">RR Throughput</tspan></text><g fill="silver" fill-opacity="0" stroke="silver" stroke-opacity="0" class="raphael-group-14-hot"><g class="raphael-group-85-col-hot"><rect width="50" height="213" x="137.5" y="122.5" rx="0" ry="0"/><rect width="50" height="15" x="367.5" y="325.5" rx="0" ry="0"/><rect width="50" height="260" x="187.5" y="75.5" rx="0" ry="0"/><rect width="50" height="57" x="417.5" y="278.5" rx="0" ry="0"/></g><g class="raphael-group-99-line-hot"><circle cx="188" cy="325" r="15"/><circle cx="417" cy="42" r="15"/></g></g><g class="raphael-group-17-buttons raphael-group-18-button"><rect width="18" height="17" x="572.5" y="6.5" fill="url('#11-90-rgba_204_204_204_1__0-rgba_255_255_255_1__100')" stroke="#bbb" rx="2" ry="2"/><path fill="#fff" stroke="#9a9a9a" d="M576.5 17.5v3h11v-3 3h-11zm5 2l-3-4.5h2V9.5h2V15h2z"/><rect width="18" height="17" x="572.5" y="6.5" fill="silver" fill-opacity="0" stroke="silver" stroke-opacity="0" rx="2" cursor="pointer" ry="2"/></g><text x="6" y="396" fill-opacity=".5" font-size="9" font-family="verdana, sans" cursor="pointer"><tspan x="6" dy="-1.813">FusionCharts XT Trial</tspan></text></svg>