<svg xmlns="http://www.w3.org/2000/svg" id="raphael-paper-11" width="600" height="400" style="-webkit-tap-highlight-color:rgba(0, 0, 0, 0);-webkit-user-select:none;position:relative;background-color:rgb(255, 255, 255)" overflow="hidden" cursor="default"><defs><linearGradient id="11-90-rgba_204_204_204_1__0-rgba_255_255_255_1__100" x2="0" y1="1"><stop offset="0%" stop-color="#ccc"/><stop offset="100%" stop-color="#fff"/></linearGradient><clipPath id="A48A335E-51FE-4EDE-A354-D1ACDCB99E3A"><path d="M54 41h482v282H54z"/></clipPath></defs><g class="raphael-group-12-background"><rect width="600" height="400" fill="#fff" fill-opacity=".5" rx="0" ry="0"/><rect width="600" height="400" fill="none" stroke="#767575" stroke-opacity=".5" stroke-width="0" rx="0" ry="0"/></g><g stroke-width="0" class="raphael-group-23-canvas"><rect width="482" height="282" x="54" y="41" fill="none" stroke="#545454" stroke-opacity="0" rx="0" ry="0"/><rect width="482" height="282" x="54" y="41" fill="#fff" rx="0" ry="0"/></g><g class="raphael-group-26-axisbottom"><g fill="#eee" fill-opacity="0" stroke="#000" stroke-width="0" class="raphael-group-35-y-axis-bands"><rect width="482" height="40.286" x="54" y="242.429" rx="0" ry="0"/><rect width="482" height="40.286" x="54" y="161.857" rx="0" ry="0"/><rect width="482" height="40.286" x="54" y="81.286" rx="0" ry="0"/></g><g fill="none" stroke="#999" class="raphael-group-37-y-axis-lines" stroke-dasharray="1 2" shape-rendering="crispedges"><path d="M54 283.5h482M54 242.5h482M54 202.5h482M54 162.5h482M54 122.5h482M54 81.5h482M54 41.5h482"/></g><g fill="none" stroke-opacity=".99" class="raphael-group-43-y-axis-lines" shape-rendering="crispedges"><path stroke="#ff4081" d="M54 82.5h482M54 70.5h482"/><path stroke="#34343e" d="M54 58.5h482"/><path stroke="#09a274" d="M54 47.5h482"/></g><g fill="#333" class="fusioncharts-xaxis-0-gridlabels" text-anchor="middle" font-family="'helvetica neue', arial" font-size="10"><text x="88.429" y="340" class="fusioncharts-label"><tspan x="88.429" dy="-2.305">2p/0K ctxsw</tspan></text><text x="157.286" y="340" class="fusioncharts-label"><tspan x="157.286" dy="-2.305">2p/16K ctxsw</tspan></text><text x="226.143" y="340" class="fusioncharts-label"><tspan x="226.143" dy="-2.305">2p/64K ctxsw</tspan></text><text x="295" y="340" class="fusioncharts-label"><tspan x="295" dy="-2.305">8p/16K ctxsw</tspan></text><text x="363.857" y="340" class="fusioncharts-label"><tspan x="363.857" dy="-2.305">8p/64K ctxsw</tspan></text><text x="432.714" y="328" class="fusioncharts-label"><tspan x="432.714" dy="9.695">16p/16K</tspan><tspan x="432.714" dy="12">ctxsw</tspan></text><text x="501.571" y="328" class="fusioncharts-label"><tspan x="501.571" dy="9.695">16p/64K</tspan><tspan x="501.571" dy="12">ctxsw</tspan></text></g><g fill="#333" class="fusioncharts-yaxis-0-gridlabels" text-anchor="end" font-family="'helvetica neue', arial" font-size="10" font-weight="undefined" font-style="undefined"><text x="48" y="323" class="fusioncharts-label"><tspan x="48" dy="3.695">0</tspan></text><text x="48" y="282.714" class="fusioncharts-label"><tspan x="48" dy="3.699">5</tspan></text><text x="48" y="242.429" class="fusioncharts-label"><tspan x="48" dy="3.694">10</tspan></text><text x="48" y="202.143" class="fusioncharts-label"><tspan x="48" dy="3.69">15</tspan></text><text x="48" y="161.857" class="fusioncharts-label"><tspan x="48" dy="3.701">20</tspan></text><text x="48" y="121.571" class="fusioncharts-label"><tspan x="48" dy="3.696">25</tspan></text><text x="48" y="81.286" class="fusioncharts-label"><tspan x="48" dy="3.692">30</tspan></text><text x="48" y="41" class="fusioncharts-label"><tspan x="48" dy="3.695">35</tspan></text></g><g fill="#333" class="fusioncharts-yaxis-1-gridlabels" font-family="'helvetica neue', arial" font-size="10" font-weight="undefined" font-style="undefined"><text x="542" y="323" class="fusioncharts-label"><tspan x="542" dy="3.695">-127</tspan></text><text x="542" y="297.364" class="fusioncharts-label"><tspan x="542" dy="3.692">-105</tspan></text><text x="542" y="271.727" class="fusioncharts-label"><tspan x="542" dy="3.696">-83</tspan></text><text x="542" y="246.091" class="fusioncharts-label"><tspan x="542" dy="3.7">-61</tspan></text><text x="542" y="220.455" class="fusioncharts-label"><tspan x="542" dy="3.689">-39</tspan></text><text x="542" y="194.818" class="fusioncharts-label"><tspan x="542" dy="3.693">-17</tspan></text><text x="542" y="169.182" class="fusioncharts-label"><tspan x="542" dy="3.697">5</tspan></text><text x="542" y="143.545" class="fusioncharts-label"><tspan x="542" dy="3.702">27</tspan></text><text x="542" y="117.909" class="fusioncharts-label"><tspan x="542" dy="3.69">49</tspan></text><text x="542" y="92.273" class="fusioncharts-label"><tspan x="542" dy="3.695">71</tspan></text><text x="542" y="66.636" class="fusioncharts-label"><tspan x="542" dy="3.699">93</tspan></text><text x="542" y="41" class="fusioncharts-label"><tspan x="542" dy="3.695">115</tspan></text></g><g fill="#333" class="raphael-group-46-axis-name" text-anchor="middle" font-size="10"><text class="fusioncharts-yaxis-0-title" transform="rotate(-90 99.5 82.5)"><tspan x="0" dy="9.797">Latency (μs)</tspan></text><text class="fusioncharts-yaxis-1-title" transform="rotate(90 200.5 382.5)"><tspan x="0" dy="9.797">Performance Ratio (%)</tspan></text></g><path fill="none" stroke="#999" d="M54 323.5h482" class="raphael-group-95-axis-lines"/></g><g class="raphael-group-13-dataset"><g stroke="#333" stroke-opacity="0" class="raphael-group-98-columns" clip-path="url('#A48A335E-51FE-4EDE-A354-D1ACDCB99E3A')"><rect width="28" height="18" x="60.5" y="305.5" fill="#09a274" rx="0" ry="0"/><rect width="28" height="17" x="129.5" y="306.5" fill="#09a274" rx="0" ry="0"/><rect width="28" height="16" x="198.5" y="307.5" fill="#09a274" rx="0" ry="0"/><rect width="28" height="26" x="267.5" y="297.5" fill="#09a274" rx="0" ry="0"/><rect width="27" height="27" x="336.5" y="296.5" fill="#09a274" rx="0" ry="0"/><rect width="27" height="80" x="405.5" y="243.5" fill="#09a274" rx="0" ry="0"/><rect width="27" height="203" x="474.5" y="120.5" fill="#09a274" rx="0" ry="0"/><rect width="27" height="19" x="88.5" y="304.5" fill="#3465aa" rx="0" ry="0"/><rect width="27" height="18" x="157.5" y="305.5" fill="#3465aa" rx="0" ry="0"/><rect width="27" height="18" x="226.5" y="305.5" fill="#3465aa" rx="0" ry="0"/><rect width="27" height="28" x="295.5" y="295.5" fill="#3465aa" rx="0" ry="0"/><rect width="28" height="30" x="363.5" y="293.5" fill="#3465aa" rx="0" ry="0"/><rect width="28" height="25" x="432.5" y="298.5" fill="#3465aa" rx="0" ry="0"/><rect width="28" height="202" x="501.5" y="121.5" fill="#3465aa" rx="0" ry="0"/></g><g class="raphael-group-142-line-connector"><path fill="none" stroke="#7c378a" stroke-width="2" d="M88 52l69 1 69-4h69l69-1 69 274 69-263" stroke-linecap="round" stroke-linejoin="round" class="raphael-group-145-connector"/><g fill="#fff" stroke="#7c378a" class="raphael-group-146-anchors"><path d="M85 52a3 3 0 0 0 6 0 3 3 0 0 0-6 0zM154 53a3 3 0 0 0 6 0 3 3 0 0 0-6 0zM223 49a3 3 0 0 0 6 0 3 3 0 0 0-6 0zM292 49a3 3 0 0 0 6 0 3 3 0 0 0-6 0zM361 48a3 3 0 0 0 6 0 3 3 0 0 0-6 0zM430 322a3 3 0 0 0 6 0 3 3 0 0 0-6 0zM499 59a3 3 0 0 0 6 0 3 3 0 0 0-6 0z"/></g></g></g><g class="raphael-group-27-axistop"><g class="fusioncharts-yaxis-1-gridlabels" font-family="'helvetica neue', arial" font-size="10"><text x="542" y="175.008" fill="#333" class="fusioncharts-label" font-weight="undefined" font-style="undefined"><tspan x="542" dy="3.696">0</tspan></text><text x="542" y="81.785" fill="#ff4081" class="fusioncharts-label"><tspan x="542" dy="3.691">80</tspan></text><text x="542" y="70.132" fill="#ff4081" class="fusioncharts-label"><tspan x="542" dy="3.695">90</tspan></text><text x="542" y="58.479" fill="#34343e" class="fusioncharts-label"><tspan x="542" dy="3.698">100</tspan></text><text x="542" y="46.826" fill="#09a274" class="fusioncharts-label"><tspan x="542" dy="3.701">110</tspan></text></g></g><g fill="#fff" class="fusioncharts-datalabels" font-size="10" text-anchor="middle"><text x="74.5" y="287" class="fusioncharts-label" transform="rotate(-90 74.5 287)"><tspan x="74.5" dy="2.5">2.128</tspan></text><text x="143.5" y="293.5" class="fusioncharts-label" transform="rotate(-90 143.5 293.5)"><tspan x="143.5" dy="2.5">2.1</tspan></text><text x="212.5" y="291.5" class="fusioncharts-label" transform="rotate(-90 212.5 291.5)"><tspan x="212.5" dy="2.5">1.98</tspan></text><text x="281.5" y="243" class="fusioncharts-label" transform="rotate(-90 281.5 243)"><tspan x="281.5" dy="2.5">3.1420000000000003</tspan></text><text x="350" y="242" class="fusioncharts-label" transform="rotate(-90 350 242)"><tspan x="350" dy="2.5">3.2939999999999996</tspan></text><text x="419" y="191.5" class="fusioncharts-label" transform="rotate(-90 419 191.5)"><tspan x="419" dy="2.5">9.847999999999997</tspan></text><text x="488" y="175" class="fusioncharts-label" transform="rotate(-90 488 175)"><tspan x="488" dy="2.5">25.142000000000003</tspan></text><text x="102" y="286" class="fusioncharts-label" transform="rotate(-90 102 286)"><tspan x="102" dy="2.5">2.246</tspan></text><text x="171" y="287" class="fusioncharts-label" transform="rotate(-90 171 287)"><tspan x="171" dy="2.5">2.196</tspan></text><text x="240" y="251" class="fusioncharts-label" transform="rotate(-90 240 251)"><tspan x="240" dy="2.5">2.1540000000000004</tspan></text><text x="309" y="277" class="fusioncharts-label" transform="rotate(-90 309 277)"><tspan x="309" dy="2.5">3.428</tspan></text><text x="377.5" y="312" class="fusioncharts-label" transform="rotate(-90 377.5 312)"><tspan x="377.5" dy="2.5">3.606</tspan></text><text x="446.5" y="244" class="fusioncharts-label" transform="rotate(-90 446.5 244)"><tspan x="446.5" dy="2.5">3.0160000000000005</tspan></text><text x="515.5" y="143" class="fusioncharts-label" transform="rotate(-90 515.5 143)"><tspan x="515.5" dy="2.5">25.016</tspan></text><text x="88" y="71.25" class="fusioncharts-label" font-family="'helvetica neue', arial" transform="rotate(-90 88 71.25)"><tspan x="88" dy="3.695">105.25</tspan></text><text x="157" y="72.25" class="fusioncharts-label" font-family="'helvetica neue', arial" transform="rotate(-90 157 72.25)"><tspan x="157" dy="3.695">104.37</tspan></text><text x="226" y="68.25" class="fusioncharts-label" font-family="'helvetica neue', arial" transform="rotate(-90 226 68.25)"><tspan x="226" dy="3.695">108.08</tspan></text><text x="295" y="68.25" class="fusioncharts-label" font-family="'helvetica neue', arial" transform="rotate(-90 295 68.25)"><tspan x="295" dy="3.695">108.34</tspan></text><text x="364" y="67.25" class="fusioncharts-label" font-family="'helvetica neue', arial" transform="rotate(-90 364 67.25)"><tspan x="364" dy="3.695">108.65</tspan></text><text x="433" y="300.813" class="fusioncharts-label" font-family="'helvetica neue', arial" transform="rotate(-90 433 300.813)"><tspan x="433" dy="3.695">-126.53</tspan></text><text x="502" y="72.703" class="fusioncharts-label" font-family="'helvetica neue', arial" transform="rotate(-90 502 72.703)"><tspan x="502" dy="3.695">99.5</tspan></text></g><g class="fusioncharts-legend" transform="translate(221.5 360.5)"><rect width="147" height="25" fill="#fff" fill-opacity="0" stroke="#545454" stroke-opacity="0" rx="0" ry="0"/><text x="23" y="6.5" fill="#666" class="fusioncharts-legenditem" font-size="10" cursor="pointer"><tspan x="23" dy="8.5">old</tspan></text><path fill="#09a274" stroke="#6bc7ac" stroke-width=".5" d="M7 18v-7.7h2.75V18zm4.125 0V7h2.75v11zm4.125 0v-4.4H18V18z" cursor="pointer"/><rect width="35" height="17" x="4" y="4" fill="silver" fill-opacity="0" rx="0" ry="0" cursor="pointer"/><text x="68.85" y="6.5" fill="#666" class="fusioncharts-legenditem" font-size="10" cursor="pointer"><tspan x="68.85" dy="8.5">new</tspan></text><path fill="#3465aa" stroke="#85a3cc" stroke-width=".5" d="M52.85 18v-7.7h2.75V18zm4.125 0V7h2.75v11zm4.125 0v-4.4h2.75V18z" cursor="pointer"/><rect width="40" height="17" x="49.85" y="4" fill="silver" fill-opacity="0" rx="0" ry="0" cursor="pointer"/><text x="119.7" y="6.5" fill="#666" class="fusioncharts-legenditem" font-size="10" cursor="pointer"><tspan x="119.7" dy="8.5">ratio</tspan></text><path fill="none" stroke="#7c378a" stroke-width="2" d="M103.7 12.5h11" cursor="pointer"/><circle cx="109.2" cy="12.5" r="3.3" fill="#fff" stroke="#7c378a" cursor="pointer"/><rect width="41" height="17" x="100.7" y="4" fill="silver" fill-opacity="0" rx="0" ry="0" cursor="pointer"/></g><text x="295" y="15" fill="#333" class="raphael-group-181-caption fusioncharts-caption" text-anchor="middle" font-family="'helvetica neue', arial" font-size="14" font-weight="bold"><tspan x="295" dy="13.703">Context switching</tspan></text><g fill="silver" fill-opacity="0" stroke="silver" stroke-opacity="0" class="raphael-group-14-hot"><g class="raphael-group-97-col-hot"><rect width="28" height="18" x="60.5" y="305.5" rx="0" ry="0"/><rect width="28" height="17" x="129.5" y="306.5" rx="0" ry="0"/><rect width="28" height="16" x="198.5" y="307.5" rx="0" ry="0"/><rect width="28" height="26" x="267.5" y="297.5" rx="0" ry="0"/><rect width="27" height="27" x="336.5" y="296.5" rx="0" ry="0"/><rect width="27" height="80" x="405.5" y="243.5" rx="0" ry="0"/><rect width="27" height="203" x="474.5" y="120.5" rx="0" ry="0"/><rect width="27" height="19" x="88.5" y="304.5" rx="0" ry="0"/><rect width="27" height="18" x="157.5" y="305.5" rx="0" ry="0"/><rect width="27" height="18" x="226.5" y="305.5" rx="0" ry="0"/><rect width="27" height="28" x="295.5" y="295.5" rx="0" ry="0"/><rect width="28" height="30" x="363.5" y="293.5" rx="0" ry="0"/><rect width="28" height="25" x="432.5" y="298.5" rx="0" ry="0"/><rect width="28" height="202" x="501.5" y="121.5" rx="0" ry="0"/></g><g class="raphael-group-141-line-hot"><circle cx="88" cy="52" r="15"/><circle cx="157" cy="53" r="15"/><circle cx="226" cy="49" r="15"/><circle cx="295" cy="49" r="15"/><circle cx="364" cy="48" r="15"/><circle cx="433" cy="322" r="15"/><circle cx="502" cy="59" r="15"/></g></g><g class="raphael-group-17-buttons raphael-group-18-button"><rect width="18" height="17" x="572.5" y="6.5" fill="url('#11-90-rgba_204_204_204_1__0-rgba_255_255_255_1__100')" stroke="#bbb" rx="2" ry="2"/><path fill="#fff" stroke="#9a9a9a" d="M576.5 17.5v3h11v-3 3h-11zm5 2l-3-4.5h2V9.5h2V15h2z"/><rect width="18" height="17" x="572.5" y="6.5" fill="silver" fill-opacity="0" stroke="silver" stroke-opacity="0" rx="2" cursor="pointer" ry="2"/></g><text x="6" y="396" fill-opacity=".5" font-size="9" font-family="verdana, sans" cursor="pointer"><tspan x="6" dy="-1.813">FusionCharts XT Trial</tspan></text></svg>