<svg xmlns="http://www.w3.org/2000/svg" id="raphael-paper-11" width="600" height="400" style="-webkit-tap-highlight-color:rgba(0, 0, 0, 0);-webkit-user-select:none;position:relative;background-color:rgb(255, 255, 255)" overflow="hidden" cursor="default"><defs><linearGradient id="11-90-rgba_204_204_204_1__0-rgba_255_255_255_1__100" x2="0" y1="1"><stop offset="0%" stop-color="#ccc"/><stop offset="100%" stop-color="#fff"/></linearGradient><clipPath id="A8073F6B-0FBC-4F08-9AFC-DBBDA7EBE011"><path d="M87 41h453v277H87z"/></clipPath></defs><g class="raphael-group-12-background"><rect width="600" height="400" fill="#fff" fill-opacity=".5" rx="0" ry="0"/><rect width="600" height="400" fill="none" stroke="#767575" stroke-opacity=".5" stroke-width="0" rx="0" ry="0"/></g><g stroke-width="0" class="raphael-group-23-canvas"><rect width="453" height="277" x="87" y="41" fill="none" stroke="#545454" stroke-opacity="0" rx="0" ry="0"/><rect width="453" height="277" x="87" y="41" fill="#fff" rx="0" ry="0"/></g><g class="raphael-group-26-axisbottom"><g fill="#eee" fill-opacity="0" stroke="#000" stroke-width="0" class="raphael-group-35-y-axis-bands"><rect width="453" height="25.182" x="87" y="267.636" rx="0" ry="0"/><rect width="453" height="25.182" x="87" y="217.273" rx="0" ry="0"/><rect width="453" height="25.182" x="87" y="166.909" rx="0" ry="0"/><rect width="453" height="25.182" x="87" y="116.545" rx="0" ry="0"/><rect width="453" height="25.182" x="87" y="66.182" rx="0" ry="0"/></g><g fill="none" stroke="#999" class="raphael-group-37-y-axis-lines" stroke-dasharray="1 2" shape-rendering="crispedges"><path d="M87 293.5h453M87 268.5h453M87 242.5h453M87 217.5h453M87 192.5h453M87 167.5h453M87 142.5h453M87 117.5h453M87 91.5h453M87 66.5h453M87 41.5h453"/></g><g fill="none" stroke-opacity=".99" class="raphael-group-43-y-axis-lines" shape-rendering="crispedges"><path stroke="#ff4081" d="M87 235.5h453M87 207.5h453"/><path stroke="#34343e" d="M87 180.5h453"/><path stroke="#09a274" d="M87 152.5h453M87 124.5h453"/></g><g fill="#333" class="fusioncharts-xaxis-0-gridlabels" text-anchor="middle" font-family="'helvetica neue', arial" font-size="10"><text x="105.875" y="335" class="fusioncharts-label"><tspan x="105.875" dy="-2.305">4</tspan></text><text x="143.625" y="335" class="fusioncharts-label"><tspan x="143.625" dy="-2.305">8</tspan></text><text x="181.375" y="335" class="fusioncharts-label"><tspan x="181.375" dy="-2.305">512</tspan></text><text x="219.125" y="335" class="fusioncharts-label"><tspan x="219.125" dy="-2.305">4</tspan></text><text x="256.875" y="335" class="fusioncharts-label"><tspan x="256.875" dy="-2.305">8</tspan></text><text x="294.625" y="335" class="fusioncharts-label"><tspan x="294.625" dy="-2.305">512</tspan></text><text x="332.375" y="335" class="fusioncharts-label"><tspan x="332.375" dy="-2.305">4</tspan></text><text x="370.125" y="335" class="fusioncharts-label"><tspan x="370.125" dy="-2.305">8</tspan></text><text x="407.875" y="335" class="fusioncharts-label"><tspan x="407.875" dy="-2.305">512</tspan></text><text x="445.625" y="335" class="fusioncharts-label"><tspan x="445.625" dy="-2.305">4</tspan></text><text x="483.375" y="335" class="fusioncharts-label"><tspan x="483.375" dy="-2.305">8</tspan></text><text x="521.125" y="335" class="fusioncharts-label"><tspan x="521.125" dy="-2.305">512</tspan></text></g><g fill="#333" class="fusioncharts-yaxis-0-gridlabels" text-anchor="end" font-family="'helvetica neue', arial" font-size="10" font-weight="undefined" font-style="undefined"><text x="81" y="318" class="fusioncharts-label"><tspan x="81" dy="3.695">0</tspan></text><text x="81" y="292.818" class="fusioncharts-label"><tspan x="81" dy="3.693">120,000</tspan></text><text x="81" y="267.636" class="fusioncharts-label"><tspan x="81" dy="3.699">240,000</tspan></text><text x="81" y="242.455" class="fusioncharts-label"><tspan x="81" dy="3.689">360,000</tspan></text><text x="81" y="217.273" class="fusioncharts-label"><tspan x="81" dy="3.695">480,000</tspan></text><text x="81" y="192.091" class="fusioncharts-label"><tspan x="81" dy="3.7">600,000</tspan></text><text x="81" y="166.909" class="fusioncharts-label"><tspan x="81" dy="3.69">720,000</tspan></text><text x="81" y="141.727" class="fusioncharts-label"><tspan x="81" dy="3.696">840,000</tspan></text><text x="81" y="116.545" class="fusioncharts-label"><tspan x="81" dy="3.702">960,000</tspan></text><text x="81" y="91.364" class="fusioncharts-label"><tspan x="81" dy="3.692">1,080,000</tspan></text><text x="81" y="66.182" class="fusioncharts-label"><tspan x="81" dy="3.697">1,200,000</tspan></text><text x="81" y="41" class="fusioncharts-label"><tspan x="81" dy="3.695">1,320,000</tspan></text></g><g fill="#333" class="fusioncharts-yaxis-1-gridlabels" font-family="'helvetica neue', arial" font-size="10" font-weight="undefined" font-style="undefined"><text x="546" y="318" class="fusioncharts-label"><tspan x="546" dy="3.695">50</tspan></text><text x="546" y="290.3" class="fusioncharts-label"><tspan x="546" dy="3.691">60</tspan></text><text x="546" y="262.6" class="fusioncharts-label"><tspan x="546" dy="3.694">70</tspan></text><text x="546" y="234.9" class="fusioncharts-label"><tspan x="546" dy="3.697">80</tspan></text><text x="546" y="207.2" class="fusioncharts-label"><tspan x="546" dy="3.7">90</tspan></text><text x="546" y="179.5" class="fusioncharts-label"><tspan x="546" dy="3.695">100</tspan></text><text x="546" y="151.8" class="fusioncharts-label"><tspan x="546" dy="3.691">110</tspan></text><text x="546" y="124.1" class="fusioncharts-label"><tspan x="546" dy="3.694">120</tspan></text><text x="546" y="96.4" class="fusioncharts-label"><tspan x="546" dy="3.697">130</tspan></text><text x="546" y="68.7" class="fusioncharts-label"><tspan x="546" dy="3.7">140</tspan></text><text x="546" y="41" class="fusioncharts-label"><tspan x="546" dy="3.695">150</tspan></text></g><g fill="#333" class="raphael-group-46-axis-name" text-anchor="middle" font-size="10"><text class="fusioncharts-yaxis-0-title" transform="rotate(-90 98.25 81.25)"><tspan x="0" dy="9.797">Throughput (MB/s)</tspan></text><text class="fusioncharts-yaxis-1-title" transform="rotate(90 201.75 381.25)"><tspan x="0" dy="9.797">Performance Ratio (%)</tspan></text><text class="fusioncharts-xaxis-0-title" transform="translate(313.5 340)"><tspan x="0" dy="9.797">Block Size (KB)</tspan></text></g><path fill="none" stroke="#999" d="M87 318.5h453" class="raphael-group-111-axis-lines"/></g><g class="raphael-group-13-dataset"><g stroke="#333" stroke-opacity="0" class="raphael-group-114-columns" clip-path="url('#A8073F6B-0FBC-4F08-9AFC-DBBDA7EBE011')"><rect width="15" height="1" x="90.5" y="317.5" fill="#09a274" rx="0" ry="0"/><rect width="15" height="1" x="128.5" y="317.5" fill="#09a274" rx="0" ry="0"/><rect width="15" height="18" x="166.5" y="300.5" fill="#09a274" rx="0" ry="0"/><rect width="15" height="1" x="204.5" y="317.5" fill="#09a274" rx="0" ry="0"/><rect width="15" height="1" x="241.5" y="317.5" fill="#09a274" rx="0" ry="0"/><rect width="15" height="21" x="279.5" y="297.5" fill="#09a274" rx="0" ry="0"/><rect width="15" height="1" x="317.5" y="317.5" fill="#09a274" rx="0" ry="0"/><rect width="15" height="1" x="355.5" y="317.5" fill="#09a274" rx="0" ry="0"/><rect width="15" height="24" x="392.5" y="294.5" fill="#09a274" rx="0" ry="0"/><rect width="15" height="1" x="430.5" y="317.5" fill="#09a274" rx="0" ry="0"/><rect width="15" height="4" x="468.5" y="314.5" fill="#09a274" rx="0" ry="0"/><rect width="15" height="265" x="506.5" y="53.5" fill="#09a274" rx="0" ry="0"/><rect width="15" height="1" x="105.5" y="317.5" fill="#3465aa" rx="0" ry="0"/><rect width="15" height="1" x="143.5" y="317.5" fill="#3465aa" rx="0" ry="0"/><rect width="15" height="18" x="181.5" y="300.5" fill="#3465aa" rx="0" ry="0"/><rect width="15" height="1" x="219.5" y="317.5" fill="#3465aa" rx="0" ry="0"/><rect width="15" height="1" x="256.5" y="317.5" fill="#3465aa" rx="0" ry="0"/><rect width="15" height="21" x="294.5" y="297.5" fill="#3465aa" rx="0" ry="0"/><rect width="15" height="1" x="332.5" y="317.5" fill="#3465aa" rx="0" ry="0"/><rect width="15" height="1" x="370.5" y="317.5" fill="#3465aa" rx="0" ry="0"/><rect width="15" height="24" x="407.5" y="294.5" fill="#3465aa" rx="0" ry="0"/><rect width="15" height="2" x="445.5" y="316.5" fill="#3465aa" rx="0" ry="0"/><rect width="15" height="4" x="483.5" y="314.5" fill="#3465aa" rx="0" ry="0"/><rect width="15" height="180" x="521.5" y="138.5" fill="#3465aa" rx="0" ry="0"/></g><g class="raphael-group-188-line-connector"><path fill="none" stroke="#7c378a" stroke-width="2" d="M106 182l38-13 37 12 38-8 38 15 38-13 37 13 38-9 38-4 38-79 37 57 38 116" stroke-linecap="round" stroke-linejoin="round" class="raphael-group-191-connector"/><g fill="#fff" stroke="#7c378a" class="raphael-group-192-anchors"><path d="M103 182a3 3 0 0 0 6 0 3 3 0 0 0-6 0zM141 169a3 3 0 0 0 6 0 3 3 0 0 0-6 0zM178 181a3 3 0 0 0 6 0 3 3 0 0 0-6 0zM216 173a3 3 0 0 0 6 0 3 3 0 0 0-6 0zM254 188a3 3 0 0 0 6 0 3 3 0 0 0-6 0zM292 175a3 3 0 0 0 6 0 3 3 0 0 0-6 0zM329 188a3 3 0 0 0 6 0 3 3 0 0 0-6 0zM367 179a3 3 0 0 0 6 0 3 3 0 0 0-6 0zM405 175a3 3 0 0 0 6 0 3 3 0 0 0-6 0zM443 96a3 3 0 0 0 6 0 3 3 0 0 0-6 0zM480 153a3 3 0 0 0 6 0 3 3 0 0 0-6 0zM518 269a3 3 0 0 0 6 0 3 3 0 0 0-6 0z"/></g></g></g><g class="raphael-group-27-axistop"><g class="fusioncharts-yaxis-1-gridlabels" font-family="'helvetica neue', arial" font-size="10"><text x="546" y="234.9" fill="#ff4081" class="fusioncharts-label"><tspan x="546" dy="3.697">80</tspan></text><text x="546" y="207.2" fill="#ff4081" class="fusioncharts-label"><tspan x="546" dy="3.7">90</tspan></text><text x="546" y="179.5" fill="#34343e" class="fusioncharts-label"><tspan x="546" dy="3.695">100</tspan></text><text x="546" y="151.8" fill="#09a274" class="fusioncharts-label"><tspan x="546" dy="3.691">110</tspan></text><text x="546" y="124.1" fill="#09a274" class="fusioncharts-label"><tspan x="546" dy="3.694">120</tspan></text></g></g><g fill="#fff" class="fusioncharts-datalabels" font-size="10" text-anchor="middle"><text x="98" y="292" class="fusioncharts-label" transform="rotate(-90 98 292)"><tspan x="98" dy="2.5">1,302</tspan></text><text x="136" y="292" class="fusioncharts-label" transform="rotate(-90 136 292)"><tspan x="136" dy="2.5">2,556</tspan></text><text x="174" y="279.5" class="fusioncharts-label" transform="rotate(-90 174 279.5)"><tspan x="174" dy="2.5">83,274</tspan></text><text x="212" y="292" class="fusioncharts-label" transform="rotate(-90 212 292)"><tspan x="212" dy="2.5">1,520</tspan></text><text x="249" y="292" class="fusioncharts-label" transform="rotate(-90 249 292)"><tspan x="249" dy="2.5">3,001</tspan></text><text x="287" y="276.5" class="fusioncharts-label" transform="rotate(-90 287 276.5)"><tspan x="287" dy="2.5">97,810</tspan></text><text x="325" y="292" class="fusioncharts-label" transform="rotate(-90 325 292)"><tspan x="325" dy="2.5">1,925</tspan></text><text x="363" y="292" class="fusioncharts-label" transform="rotate(-90 363 292)"><tspan x="363" dy="2.5">3,664</tspan></text><text x="400" y="270.5" class="fusioncharts-label" transform="rotate(-90 400 270.5)"><tspan x="400" dy="2.5">111,949</tspan></text><text x="438" y="292" class="fusioncharts-label" transform="rotate(-90 438 292)"><tspan x="438" dy="2.5">4,724</tspan></text><text x="476" y="288" class="fusioncharts-label" transform="rotate(-90 476 288)"><tspan x="476" dy="2.5">15,583</tspan></text><text x="514" y="86" class="fusioncharts-label" transform="rotate(-90 514 86)"><tspan x="514" dy="2.5">1,261,465.6</tspan></text><text x="113" y="292" class="fusioncharts-label" transform="rotate(-90 113 292)"><tspan x="113" dy="2.5">1,292</tspan></text><text x="151" y="292" class="fusioncharts-label" transform="rotate(-90 151 292)"><tspan x="151" dy="2.5">2,652</tspan></text><text x="189" y="279.5" class="fusioncharts-label" transform="rotate(-90 189 279.5)"><tspan x="189" dy="2.5">82,745</tspan></text><text x="227" y="292" class="fusioncharts-label" transform="rotate(-90 227 292)"><tspan x="227" dy="2.5">1,557</tspan></text><text x="264" y="292" class="fusioncharts-label" transform="rotate(-90 264 292)"><tspan x="264" dy="2.5">2,914</tspan></text><text x="302" y="276.5" class="fusioncharts-label" transform="rotate(-90 302 276.5)"><tspan x="302" dy="2.5">99,473</tspan></text><text x="340" y="292" class="fusioncharts-label" transform="rotate(-90 340 292)"><tspan x="340" dy="2.5">1,868</tspan></text><text x="378" y="292" class="fusioncharts-label" transform="rotate(-90 378 292)"><tspan x="378" dy="2.5">3,672</tspan></text><text x="415" y="270.5" class="fusioncharts-label" transform="rotate(-90 415 270.5)"><tspan x="415" dy="2.5">113,709</tspan></text><text x="453" y="291.5" class="fusioncharts-label" transform="rotate(-90 453 291.5)"><tspan x="453" dy="2.5">6,140</tspan></text><text x="491" y="288" class="fusioncharts-label" transform="rotate(-90 491 288)"><tspan x="491" dy="2.5">17,079</tspan></text><text x="529" y="162.5" class="fusioncharts-label" transform="rotate(-90 529 162.5)"><tspan x="529" dy="2.5">854,063</tspan></text><text x="106" y="165.516" class="fusioncharts-label" font-family="'helvetica neue', arial" transform="rotate(-90 106 165.516)"><tspan x="106" dy="3.695">99.23</tspan></text><text x="144" y="149.75" class="fusioncharts-label" font-family="'helvetica neue', arial" transform="rotate(-90 144 149.75)"><tspan x="144" dy="3.695">103.76</tspan></text><text x="181" y="197.484" class="fusioncharts-label" font-family="'helvetica neue', arial" transform="rotate(-90 181 197.484)"><tspan x="181" dy="3.695">99.36</tspan></text><text x="219" y="153.75" class="fusioncharts-label" font-family="'helvetica neue', arial" transform="rotate(-90 219 153.75)"><tspan x="219" dy="3.695">102.43</tspan></text><text x="257" y="201.703" class="fusioncharts-label" font-family="'helvetica neue', arial" transform="rotate(-90 257 201.703)"><tspan x="257" dy="3.695">97.1</tspan></text><text x="295" y="158.516" class="fusioncharts-label" font-family="'helvetica neue', arial" transform="rotate(-90 295 158.516)"><tspan x="295" dy="3.695">101.7</tspan></text><text x="332" y="204.484" class="fusioncharts-label" font-family="'helvetica neue', arial" transform="rotate(-90 332 204.484)"><tspan x="332" dy="3.695">97.04</tspan></text><text x="370" y="159.75" class="fusioncharts-label" font-family="'helvetica neue', arial" transform="rotate(-90 370 159.75)"><tspan x="370" dy="3.695">100.22</tspan></text><text x="408" y="155.75" class="fusioncharts-label" font-family="'helvetica neue', arial" transform="rotate(-90 408 155.75)"><tspan x="408" dy="3.695">101.57</tspan></text><text x="446" y="76.75" class="fusioncharts-label" font-family="'helvetica neue', arial" transform="rotate(-90 446 76.75)"><tspan x="446" dy="3.695">129.97</tspan></text><text x="483" y="169.484" class="fusioncharts-label" font-family="'helvetica neue', arial" transform="rotate(-90 483 169.484)"><tspan x="483" dy="3.695">109.6</tspan></text><text x="521" y="282.703" class="fusioncharts-label" font-family="'helvetica neue', arial" transform="rotate(-90 521 282.703)"><tspan x="521" dy="3.695">67.7</tspan></text></g><g class="fusioncharts-legend" transform="translate(239.5 360.5)"><rect width="148" height="25" fill="#fff" fill-opacity="0" stroke="#545454" stroke-opacity="0" rx="0" ry="0"/><text x="23" y="6.5" fill="#666" class="fusioncharts-legenditem" font-size="10" cursor="pointer"><tspan x="23" dy="8.5">old</tspan></text><path fill="#09a274" stroke="#6bc7ac" stroke-width=".5" d="M7 18v-7.7h2.75V18zm4.125 0V7h2.75v11zm4.125 0v-4.4H18V18z" cursor="pointer"/><rect width="35" height="17" x="4" y="4" fill="silver" fill-opacity="0" rx="0" ry="0" cursor="pointer"/><text x="68.85" y="6.5" fill="#666" class="fusioncharts-legenditem" font-size="10" cursor="pointer"><tspan x="68.85" dy="8.5">new</tspan></text><path fill="#3465aa" stroke="#85a3cc" stroke-width=".5" d="M52.85 18v-7.7h2.75V18zm4.125 0V7h2.75v11zm4.125 0v-4.4h2.75V18z" cursor="pointer"/><rect width="40" height="17" x="49.85" y="4" fill="silver" fill-opacity="0" rx="0" ry="0" cursor="pointer"/><text x="119.7" y="6.5" fill="#666" class="fusioncharts-legenditem" font-size="10" cursor="pointer"><tspan x="119.7" dy="8.5">ratio</tspan></text><path fill="none" stroke="#7c378a" stroke-width="2" d="M103.7 12.5h11" cursor="pointer"/><circle cx="109.2" cy="12.5" r="3.3" fill="#fff" stroke="#7c378a" cursor="pointer"/><rect width="41" height="17" x="100.7" y="4" fill="silver" fill-opacity="0" rx="0" ry="0" cursor="pointer"/></g><text x="313.5" y="15" fill="#333" class="raphael-group-242-caption fusioncharts-caption" text-anchor="middle" font-family="'helvetica neue', arial" font-size="14" font-weight="bold"><tspan x="313.5" dy="13.703">RandRead</tspan></text><g fill="silver" fill-opacity="0" stroke="silver" stroke-opacity="0" class="raphael-group-14-hot"><g class="raphael-group-113-col-hot"><rect width="15" height="15" x="90.5" y="310.5" rx="0" ry="0"/><rect width="15" height="15" x="128.5" y="310.5" rx="0" ry="0"/><rect width="15" height="18" x="166.5" y="300.5" rx="0" ry="0"/><rect width="15" height="15" x="204.5" y="310.5" rx="0" ry="0"/><rect width="15" height="15" x="241.5" y="310.5" rx="0" ry="0"/><rect width="15" height="21" x="279.5" y="297.5" rx="0" ry="0"/><rect width="15" height="15" x="317.5" y="310.5" rx="0" ry="0"/><rect width="15" height="15" x="355.5" y="310.5" rx="0" ry="0"/><rect width="15" height="24" x="392.5" y="294.5" rx="0" ry="0"/><rect width="15" height="15" x="430.5" y="310.5" rx="0" ry="0"/><rect width="15" height="15" x="468.5" y="309" rx="0" ry="0"/><rect width="15" height="265" x="506.5" y="53.5" rx="0" ry="0"/><rect width="15" height="15" x="105.5" y="310.5" rx="0" ry="0"/><rect width="15" height="15" x="143.5" y="310.5" rx="0" ry="0"/><rect width="15" height="18" x="181.5" y="300.5" rx="0" ry="0"/><rect width="15" height="15" x="219.5" y="310.5" rx="0" ry="0"/><rect width="15" height="15" x="256.5" y="310.5" rx="0" ry="0"/><rect width="15" height="21" x="294.5" y="297.5" rx="0" ry="0"/><rect width="15" height="15" x="332.5" y="310.5" rx="0" ry="0"/><rect width="15" height="15" x="370.5" y="310.5" rx="0" ry="0"/><rect width="15" height="24" x="407.5" y="294.5" rx="0" ry="0"/><rect width="15" height="15" x="445.5" y="310" rx="0" ry="0"/><rect width="15" height="15" x="483.5" y="309" rx="0" ry="0"/><rect width="15" height="180" x="521.5" y="138.5" rx="0" ry="0"/></g><g class="raphael-group-187-line-hot"><circle cx="106" cy="182" r="15"/><circle cx="144" cy="169" r="15"/><circle cx="181" cy="181" r="15"/><circle cx="219" cy="173" r="15"/><circle cx="257" cy="188" r="15"/><circle cx="295" cy="175" r="15"/><circle cx="332" cy="188" r="15"/><circle cx="370" cy="179" r="15"/><circle cx="408" cy="175" r="15"/><circle cx="446" cy="96" r="15"/><circle cx="483" cy="153" r="15"/><circle cx="521" cy="269" r="15"/></g></g><g class="raphael-group-17-buttons raphael-group-18-button"><rect width="18" height="17" x="572.5" y="6.5" fill="url('#11-90-rgba_204_204_204_1__0-rgba_255_255_255_1__100')" stroke="#bbb" rx="2" ry="2"/><path fill="#fff" stroke="#9a9a9a" d="M576.5 17.5v3h11v-3 3h-11zm5 2l-3-4.5h2V9.5h2V15h2z"/><rect width="18" height="17" x="572.5" y="6.5" fill="silver" fill-opacity="0" stroke="silver" stroke-opacity="0" rx="2" cursor="pointer" ry="2"/></g><text x="6" y="396" fill-opacity=".5" font-size="9" font-family="verdana, sans" cursor="pointer"><tspan x="6" dy="-1.813">FusionCharts XT Trial</tspan></text></svg>