<svg xmlns="http://www.w3.org/2000/svg" id="raphael-paper-11" width="600" height="400" style="-webkit-tap-highlight-color:rgba(0, 0, 0, 0);-webkit-user-select:none;position:relative;background-color:rgb(255, 255, 255)" overflow="hidden" cursor="default"><defs><linearGradient id="11-90-rgba_204_204_204_1__0-rgba_255_255_255_1__100" x2="0" y1="1"><stop offset="0%" stop-color="#ccc"/><stop offset="100%" stop-color="#fff"/></linearGradient><clipPath id="D7C74BE6-BAA7-4428-9C5B-848B31D36713"><path d="M67 41h473v282H67z"/></clipPath></defs><g class="raphael-group-12-background"><rect width="600" height="400" fill="#fff" fill-opacity=".5" rx="0" ry="0"/><rect width="600" height="400" fill="none" stroke="#767575" stroke-opacity=".5" stroke-width="0" rx="0" ry="0"/></g><g stroke-width="0" class="raphael-group-23-canvas"><rect width="473" height="282" x="67" y="41" fill="none" stroke="#545454" stroke-opacity="0" rx="0" ry="0"/><rect width="473" height="282" x="67" y="41" fill="#fff" rx="0" ry="0"/></g><g class="raphael-group-26-axisbottom"><g fill="#eee" fill-opacity="0" stroke="#000" stroke-width="0" class="raphael-group-35-y-axis-bands"><rect width="473" height="40.286" x="67" y="242.429" rx="0" ry="0"/><rect width="473" height="40.286" x="67" y="161.857" rx="0" ry="0"/><rect width="473" height="40.286" x="67" y="81.286" rx="0" ry="0"/></g><g fill="none" stroke="#999" class="raphael-group-37-y-axis-lines" stroke-dasharray="1 2" shape-rendering="crispedges"><path d="M67 283.5h473M67 242.5h473M67 202.5h473M67 162.5h473M67 122.5h473M67 81.5h473M67 41.5h473"/></g><g fill="none" stroke-opacity=".99" class="raphael-group-43-y-axis-lines" shape-rendering="crispedges"><path stroke="#ff4081" d="M67 276.5h473"/><path stroke="#34343e" d="M67 182.5h473"/><path stroke="#09a274" d="M67 88.5h473"/></g><g fill="#333" class="fusioncharts-xaxis-0-gridlabels" text-anchor="middle" font-family="'helvetica neue', arial" font-size="10"><text x="106.417" y="328" class="fusioncharts-label"><tspan x="106.417" dy="9.695">UDP_STREAM_</tspan><tspan x="106.417" dy="12">18</tspan></text><text x="185.25" y="328" class="fusioncharts-label"><tspan x="185.25" dy="9.695">UDP_STREAM_</tspan><tspan x="185.25" dy="12">82</tspan></text><text x="264.083" y="328" class="fusioncharts-label"><tspan x="264.083" dy="9.695">UDP_STREAM_</tspan><tspan x="264.083" dy="12">210</tspan></text><text x="342.917" y="328" class="fusioncharts-label"><tspan x="342.917" dy="9.695">UDP_STREAM_</tspan><tspan x="342.917" dy="12">466</tspan></text><text x="421.75" y="328" class="fusioncharts-label"><tspan x="421.75" dy="9.695">UDP_STREAM_</tspan><tspan x="421.75" dy="12">978</tspan></text><text x="500.583" y="328" class="fusioncharts-label"><tspan x="500.583" dy="9.695">UDP_STREAM_</tspan><tspan x="500.583" dy="12">1472</tspan></text></g><g fill="#333" class="fusioncharts-yaxis-0-gridlabels" text-anchor="end" font-family="'helvetica neue', arial" font-size="10" font-weight="undefined" font-style="undefined"><text x="61" y="323" class="fusioncharts-label"><tspan x="61" dy="3.695">0</tspan></text><text x="61" y="282.714" class="fusioncharts-label"><tspan x="61" dy="3.699">1,300</tspan></text><text x="61" y="242.429" class="fusioncharts-label"><tspan x="61" dy="3.694">2,600</tspan></text><text x="61" y="202.143" class="fusioncharts-label"><tspan x="61" dy="3.69">3,900</tspan></text><text x="61" y="161.857" class="fusioncharts-label"><tspan x="61" dy="3.701">5,200</tspan></text><text x="61" y="121.571" class="fusioncharts-label"><tspan x="61" dy="3.696">6,500</tspan></text><text x="61" y="81.286" class="fusioncharts-label"><tspan x="61" dy="3.692">7,800</tspan></text><text x="61" y="41" class="fusioncharts-label"><tspan x="61" dy="3.695">9,100</tspan></text></g><g fill="#333" class="fusioncharts-yaxis-1-gridlabels" font-family="'helvetica neue', arial" font-size="10" font-weight="undefined" font-style="undefined"><text x="546" y="323" class="fusioncharts-label"><tspan x="546" dy="3.695">85</tspan></text><text x="546" y="276" class="fusioncharts-label"><tspan x="546" dy="3.695">90</tspan></text><text x="546" y="229" class="fusioncharts-label"><tspan x="546" dy="3.695">95</tspan></text><text x="546" y="182" class="fusioncharts-label"><tspan x="546" dy="3.695">100</tspan></text><text x="546" y="135" class="fusioncharts-label"><tspan x="546" dy="3.695">105</tspan></text><text x="546" y="88" class="fusioncharts-label"><tspan x="546" dy="3.695">110</tspan></text><text x="546" y="41" class="fusioncharts-label"><tspan x="546" dy="3.695">115</tspan></text></g><g fill="#333" class="raphael-group-46-axis-name" text-anchor="middle" font-size="10"><text class="fusioncharts-yaxis-0-title" transform="rotate(-90 99.5 82.5)"><tspan x="0" dy="9.797">Throughput (Mbps)</tspan></text><text class="fusioncharts-yaxis-1-title" transform="rotate(90 200.5 382.5)"><tspan x="0" dy="9.797">Performance Ratio (%)</tspan></text></g><path fill="none" stroke="#999" d="M67 323.5h473" class="raphael-group-86-axis-lines"/></g><g class="raphael-group-13-dataset"><g stroke="#333" stroke-opacity="0" class="raphael-group-89-columns" clip-path="url('#D7C74BE6-BAA7-4428-9C5B-848B31D36713')"><rect width="32" height="4" x="74.5" y="319.5" fill="#09a274" rx="0" ry="0"/><rect width="32" height="17" x="153.5" y="306.5" fill="#09a274" rx="0" ry="0"/><rect width="32" height="42" x="232.5" y="281.5" fill="#09a274" rx="0" ry="0"/><rect width="31" height="92" x="311.5" y="231.5" fill="#09a274" rx="0" ry="0"/><rect width="31" height="177" x="390.5" y="146.5" fill="#09a274" rx="0" ry="0"/><rect width="31" height="263" x="469.5" y="60.5" fill="#09a274" rx="0" ry="0"/><rect width="31" height="5" x="106.5" y="318.5" fill="#3465aa" rx="0" ry="0"/><rect width="31" height="19" x="185.5" y="304.5" fill="#3465aa" rx="0" ry="0"/><rect width="31" height="46" x="264.5" y="277.5" fill="#3465aa" rx="0" ry="0"/><rect width="32" height="100" x="342.5" y="223.5" fill="#3465aa" rx="0" ry="0"/><rect width="32" height="178" x="421.5" y="145.5" fill="#3465aa" rx="0" ry="0"/><rect width="32" height="267" x="500.5" y="56.5" fill="#3465aa" rx="0" ry="0"/></g><g class="raphael-group-127-line-connector"><path fill="none" stroke="#7c378a" stroke-width="2" d="M106 106l79-5 79-4 79 7 79 74 79-10" stroke-linecap="round" stroke-linejoin="round" class="raphael-group-130-connector"/><g fill="#fff" stroke="#7c378a" class="raphael-group-131-anchors"><path d="M103 106a3 3 0 0 0 6 0 3 3 0 0 0-6 0zM182 101a3 3 0 0 0 6 0 3 3 0 0 0-6 0zM261 97a3 3 0 0 0 6 0 3 3 0 0 0-6 0zM340 104a3 3 0 0 0 6 0 3 3 0 0 0-6 0zM419 178a3 3 0 0 0 6 0 3 3 0 0 0-6 0zM498 168a3 3 0 0 0 6 0 3 3 0 0 0-6 0z"/></g></g></g><g class="raphael-group-27-axistop"><g class="fusioncharts-yaxis-1-gridlabels" font-family="'helvetica neue', arial" font-size="10"><text x="546" y="276" fill="#ff4081" class="fusioncharts-label"><tspan x="546" dy="3.695">90</tspan></text><text x="546" y="182" fill="#34343e" class="fusioncharts-label"><tspan x="546" dy="3.695">100</tspan></text><text x="546" y="88" fill="#09a274" class="fusioncharts-label"><tspan x="546" dy="3.695">110</tspan></text></g></g><g fill="#fff" class="fusioncharts-datalabels" font-size="10" text-anchor="middle"><text x="90.5" y="290" class="fusioncharts-label" transform="rotate(-90 90.5 290)"><tspan x="90.5" dy="2.5">119.652</tspan></text><text x="169.5" y="282.5" class="fusioncharts-label" transform="rotate(-90 169.5 282.5)"><tspan x="169.5" dy="2.5">541.066</tspan></text><text x="248.5" y="253.5" class="fusioncharts-label" transform="rotate(-90 248.5 253.5)"><tspan x="248.5" dy="2.5">1,343.012</tspan></text><text x="327" y="257" class="fusioncharts-label" transform="rotate(-90 327 257)"><tspan x="327" dy="2.5">2,953.17</tspan></text><text x="406" y="174.5" class="fusioncharts-label" transform="rotate(-90 406 174.5)"><tspan x="406" dy="2.5">5,697.148</tspan></text><text x="485" y="88.5" class="fusioncharts-label" transform="rotate(-90 485 88.5)"><tspan x="485" dy="2.5">8,475.356</tspan></text><text x="122" y="289.5" class="fusioncharts-label" transform="rotate(-90 122 289.5)"><tspan x="122" dy="2.5">129.322</tspan></text><text x="201" y="280.5" class="fusioncharts-label" transform="rotate(-90 201 280.5)"><tspan x="201" dy="2.5">587.442</tspan></text><text x="280" y="300" class="fusioncharts-label" transform="rotate(-90 280 300)"><tspan x="280" dy="2.5">1,464.3</tspan></text><text x="358.5" y="251.5" class="fusioncharts-label" transform="rotate(-90 358.5 251.5)"><tspan x="358.5" dy="2.5">3,199.088</tspan></text><text x="437.5" y="173.5" class="fusioncharts-label" transform="rotate(-90 437.5 173.5)"><tspan x="437.5" dy="2.5">5,718.552</tspan></text><text x="516.5" y="84.5" class="fusioncharts-label" transform="rotate(-90 516.5 84.5)"><tspan x="516.5" dy="2.5">8,602.538</tspan></text><text x="106" y="86.75" class="fusioncharts-label" font-family="'helvetica neue', arial" transform="rotate(-90 106 86.75)"><tspan x="106" dy="3.695">108.08</tspan></text><text x="185" y="81.75" class="fusioncharts-label" font-family="'helvetica neue', arial" transform="rotate(-90 185 81.75)"><tspan x="185" dy="3.695">108.57</tspan></text><text x="264" y="77.75" class="fusioncharts-label" font-family="'helvetica neue', arial" transform="rotate(-90 264 77.75)"><tspan x="264" dy="3.695">109.03</tspan></text><text x="343" y="123.25" class="fusioncharts-label" font-family="'helvetica neue', arial" transform="rotate(-90 343 123.25)"><tspan x="343" dy="3.695">108.33</tspan></text><text x="422" y="197.25" class="fusioncharts-label" font-family="'helvetica neue', arial" transform="rotate(-90 422 197.25)"><tspan x="422" dy="3.695">100.38</tspan></text><text x="501" y="151.516" class="fusioncharts-label" font-family="'helvetica neue', arial" transform="rotate(-90 501 151.516)"><tspan x="501" dy="3.695">101.5</tspan></text></g><g class="fusioncharts-legend" transform="translate(229.5 360.5)"><rect width="148" height="25" fill="#fff" fill-opacity="0" stroke="#545454" stroke-opacity="0" rx="0" ry="0"/><text x="23" y="6.5" fill="#666" class="fusioncharts-legenditem" font-size="10" cursor="pointer"><tspan x="23" dy="8.5">old</tspan></text><path fill="#09a274" stroke="#6bc7ac" stroke-width=".5" d="M7 18v-7.7h2.75V18zm4.125 0V7h2.75v11zm4.125 0v-4.4H18V18z" cursor="pointer"/><rect width="35" height="17" x="4" y="4" fill="silver" fill-opacity="0" rx="0" ry="0" cursor="pointer"/><text x="68.85" y="6.5" fill="#666" class="fusioncharts-legenditem" font-size="10" cursor="pointer"><tspan x="68.85" dy="8.5">new</tspan></text><path fill="#3465aa" stroke="#85a3cc" stroke-width=".5" d="M52.85 18v-7.7h2.75V18zm4.125 0V7h2.75v11zm4.125 0v-4.4h2.75V18z" cursor="pointer"/><rect width="40" height="17" x="49.85" y="4" fill="silver" fill-opacity="0" rx="0" ry="0" cursor="pointer"/><text x="119.7" y="6.5" fill="#666" class="fusioncharts-legenditem" font-size="10" cursor="pointer"><tspan x="119.7" dy="8.5">ratio</tspan></text><path fill="none" stroke="#7c378a" stroke-width="2" d="M103.7 12.5h11" cursor="pointer"/><circle cx="109.2" cy="12.5" r="3.3" fill="#fff" stroke="#7c378a" cursor="pointer"/><rect width="41" height="17" x="100.7" y="4" fill="silver" fill-opacity="0" rx="0" ry="0" cursor="pointer"/></g><text x="303.5" y="15" fill="#333" class="raphael-group-163-caption fusioncharts-caption" text-anchor="middle" font-family="'helvetica neue', arial" font-size="14" font-weight="bold"><tspan x="303.5" dy="13.703">Sender Throughput</tspan></text><g fill="silver" fill-opacity="0" stroke="silver" stroke-opacity="0" class="raphael-group-14-hot"><g class="raphael-group-88-col-hot"><rect width="32" height="15" x="74.5" y="314" rx="0" ry="0"/><rect width="32" height="17" x="153.5" y="306.5" rx="0" ry="0"/><rect width="32" height="42" x="232.5" y="281.5" rx="0" ry="0"/><rect width="31" height="92" x="311.5" y="231.5" rx="0" ry="0"/><rect width="31" height="177" x="390.5" y="146.5" rx="0" ry="0"/><rect width="31" height="263" x="469.5" y="60.5" rx="0" ry="0"/><rect width="31" height="15" x="106.5" y="313.5" rx="0" ry="0"/><rect width="31" height="19" x="185.5" y="304.5" rx="0" ry="0"/><rect width="31" height="46" x="264.5" y="277.5" rx="0" ry="0"/><rect width="32" height="100" x="342.5" y="223.5" rx="0" ry="0"/><rect width="32" height="178" x="421.5" y="145.5" rx="0" ry="0"/><rect width="32" height="267" x="500.5" y="56.5" rx="0" ry="0"/></g><g class="raphael-group-126-line-hot"><circle cx="106" cy="106" r="15"/><circle cx="185" cy="101" r="15"/><circle cx="264" cy="97" r="15"/><circle cx="343" cy="104" r="15"/><circle cx="422" cy="178" r="15"/><circle cx="501" cy="168" r="15"/></g></g><g class="raphael-group-17-buttons raphael-group-18-button"><rect width="18" height="17" x="572.5" y="6.5" fill="url('#11-90-rgba_204_204_204_1__0-rgba_255_255_255_1__100')" stroke="#bbb" rx="2" ry="2"/><path fill="#fff" stroke="#9a9a9a" d="M576.5 17.5v3h11v-3 3h-11zm5 2l-3-4.5h2V9.5h2V15h2z"/><rect width="18" height="17" x="572.5" y="6.5" fill="silver" fill-opacity="0" stroke="silver" stroke-opacity="0" rx="2" cursor="pointer" ry="2"/></g><text x="6" y="396" fill-opacity=".5" font-size="9" font-family="verdana, sans" cursor="pointer"><tspan x="6" dy="-1.813">FusionCharts XT Trial</tspan></text></svg>