<svg xmlns="http://www.w3.org/2000/svg" id="raphael-paper-11" width="600" height="400" style="-webkit-tap-highlight-color:rgba(0, 0, 0, 0);-webkit-user-select:none;position:relative;background-color:rgb(255, 255, 255)" overflow="hidden" cursor="default"><defs><linearGradient id="11-90-rgba_204_204_204_1__0-rgba_255_255_255_1__100" x2="0" y1="1"><stop offset="0%" stop-color="#ccc"/><stop offset="100%" stop-color="#fff"/></linearGradient><clipPath id="ED06CBDF-D6ED-4AC4-8609-E1784B6777EA"><path d="M54 41h486v294H54z"/></clipPath></defs><g class="raphael-group-12-background"><rect width="600" height="400" fill="#fff" fill-opacity=".5" rx="0" ry="0"/><rect width="600" height="400" fill="none" stroke="#767575" stroke-opacity=".5" stroke-width="0" rx="0" ry="0"/></g><g stroke-width="0" class="raphael-group-23-canvas"><rect width="486" height="294" x="54" y="41" fill="none" stroke="#545454" stroke-opacity="0" rx="0" ry="0"/><rect width="486" height="294" x="54" y="41" fill="#fff" rx="0" ry="0"/></g><g class="raphael-group-26-axisbottom"><g fill="#eee" fill-opacity="0" stroke="#000" stroke-width="0" class="raphael-group-35-y-axis-bands"><rect width="486" height="42" x="54" y="251" rx="0" ry="0"/><rect width="486" height="42" x="54" y="167" rx="0" ry="0"/><rect width="486" height="42" x="54" y="83" rx="0" ry="0"/></g><g fill="none" stroke="#999" class="raphael-group-37-y-axis-lines" stroke-dasharray="1 2" shape-rendering="crispedges"><path d="M54 293.5h486M54 251.5h486M54 209.5h486M54 167.5h486M54 125.5h486M54 83.5h486M54 41.5h486"/></g><g fill="none" stroke-opacity=".99" class="raphael-group-43-y-axis-lines" shape-rendering="crispedges"><path stroke="#ff4081" d="M54 162.5h486M54 127.5h486"/><path stroke="#34343e" d="M54 93.5h486"/><path stroke="#09a274" d="M54 58.5h486"/></g><g fill="#333" class="fusioncharts-xaxis-0-gridlabels" text-anchor="middle" font-family="'helvetica neue', arial" font-size="10"><text x="114.75" y="352" class="fusioncharts-label"><tspan x="114.75" dy="-2.305">0K File Create</tspan></text><text x="236.25" y="352" class="fusioncharts-label"><tspan x="236.25" dy="-2.305">0K File Delete</tspan></text><text x="357.75" y="352" class="fusioncharts-label"><tspan x="357.75" dy="-2.305">10K File Create</tspan></text><text x="479.25" y="352" class="fusioncharts-label"><tspan x="479.25" dy="-2.305">10K File Delete</tspan></text></g><g fill="#333" class="fusioncharts-yaxis-0-gridlabels" text-anchor="end" font-family="'helvetica neue', arial" font-size="10" font-weight="undefined" font-style="undefined"><text x="48" y="335" class="fusioncharts-label"><tspan x="48" dy="3.695">0</tspan></text><text x="48" y="293" class="fusioncharts-label"><tspan x="48" dy="3.695">3</tspan></text><text x="48" y="251" class="fusioncharts-label"><tspan x="48" dy="3.695">6</tspan></text><text x="48" y="209" class="fusioncharts-label"><tspan x="48" dy="3.695">9</tspan></text><text x="48" y="167" class="fusioncharts-label"><tspan x="48" dy="3.695">12</tspan></text><text x="48" y="125" class="fusioncharts-label"><tspan x="48" dy="3.695">15</tspan></text><text x="48" y="83" class="fusioncharts-label"><tspan x="48" dy="3.695">18</tspan></text><text x="48" y="41" class="fusioncharts-label"><tspan x="48" dy="3.695">21</tspan></text></g><g fill="#333" class="fusioncharts-yaxis-1-gridlabels" font-family="'helvetica neue', arial" font-size="10" font-weight="undefined" font-style="undefined"><text x="546" y="335" class="fusioncharts-label"><tspan x="546" dy="3.695">30</tspan></text><text x="546" y="276.2" class="fusioncharts-label"><tspan x="546" dy="3.7">47</tspan></text><text x="546" y="217.4" class="fusioncharts-label"><tspan x="546" dy="3.697">64</tspan></text><text x="546" y="158.6" class="fusioncharts-label"><tspan x="546" dy="3.694">81</tspan></text><text x="546" y="99.8" class="fusioncharts-label"><tspan x="546" dy="3.691">98</tspan></text><text x="546" y="41" class="fusioncharts-label"><tspan x="546" dy="3.695">115</tspan></text></g><g fill="#333" class="raphael-group-46-axis-name" text-anchor="middle" font-size="10"><text class="fusioncharts-yaxis-0-title" transform="rotate(-90 102.5 85.5)"><tspan x="0" dy="9.797">Latency (μs)</tspan></text><text class="fusioncharts-yaxis-1-title" transform="rotate(90 197.5 385.5)"><tspan x="0" dy="9.797">Performance Ratio (%)</tspan></text></g><path fill="none" stroke="#999" d="M54 335.5h486" class="raphael-group-85-axis-lines"/></g><g class="raphael-group-13-dataset"><g stroke="#333" stroke-opacity="0" class="raphael-group-88-columns" clip-path="url('#ED06CBDF-D6ED-4AC4-8609-E1784B6777EA')"><rect width="48" height="262" x="66.5" y="73.5" fill="#09a274" rx="0" ry="0"/><rect width="49" height="105" x="187.5" y="230.5" fill="#09a274" rx="0" ry="0"/><rect width="48" height="249" x="309.5" y="86.5" fill="#09a274" rx="0" ry="0"/><rect width="49" height="160" x="430.5" y="175.5" fill="#09a274" rx="0" ry="0"/><rect width="49" height="155" x="114.5" y="180.5" fill="#3465aa" rx="0" ry="0"/><rect width="48" height="109" x="236.5" y="226.5" fill="#3465aa" rx="0" ry="0"/><rect width="49" height="260" x="357.5" y="75.5" fill="#3465aa" rx="0" ry="0"/><rect width="48" height="164" x="479.5" y="171.5" fill="#3465aa" rx="0" ry="0"/></g><g class="raphael-group-114-line-connector"><path fill="none" stroke="#7c378a" stroke-width="2" d="M115 332L236 79h122l121 6" stroke-linecap="round" stroke-linejoin="round" class="raphael-group-117-connector"/><g fill="#fff" stroke="#7c378a" class="raphael-group-118-anchors"><path d="M112 332a3 3 0 0 0 6 0 3 3 0 0 0-6 0zM233 79a3 3 0 0 0 6 0 3 3 0 0 0-6 0zM355 79a3 3 0 0 0 6 0 3 3 0 0 0-6 0zM476 85a3 3 0 0 0 6 0 3 3 0 0 0-6 0z"/></g></g></g><g class="raphael-group-27-axistop"><g class="fusioncharts-yaxis-1-gridlabels" font-family="'helvetica neue', arial" font-size="10"><text x="546" y="162.059" fill="#ff4081" class="fusioncharts-label"><tspan x="546" dy="3.699">80</tspan></text><text x="546" y="127.471" fill="#ff4081" class="fusioncharts-label"><tspan x="546" dy="3.689">90</tspan></text><text x="546" y="92.882" fill="#34343e" class="fusioncharts-label"><tspan x="546" dy="3.695">100</tspan></text><text x="546" y="58.294" fill="#09a274" class="fusioncharts-label"><tspan x="546" dy="3.7">110</tspan></text></g></g><g fill="#fff" class="fusioncharts-datalabels" font-size="10" text-anchor="middle"><text x="90.5" y="128" class="fusioncharts-label" transform="rotate(-90 90.5 128)"><tspan x="90.5" dy="2.5">18.660000000000004</tspan></text><text x="212" y="254.5" class="fusioncharts-label" transform="rotate(-90 212 254.5)"><tspan x="212" dy="2.5">7.43206</tspan></text><text x="333.5" y="105" class="fusioncharts-label" transform="rotate(-90 333.5 105)"><tspan x="333.5" dy="2.5">17.78</tspan></text><text x="455" y="194" class="fusioncharts-label" transform="rotate(-90 455 194)"><tspan x="455" dy="2.5">11.38</tspan></text><text x="139" y="199" class="fusioncharts-label" transform="rotate(-90 139 199)"><tspan x="139" dy="2.5">11.04</tspan></text><text x="260.5" y="278.5" class="fusioncharts-label" transform="rotate(-90 260.5 278.5)"><tspan x="260.5" dy="2.5">7.743899999999999</tspan></text><text x="382" y="94" class="fusioncharts-label" transform="rotate(-90 382 94)"><tspan x="382" dy="2.5">18.54</tspan></text><text x="503.5" y="190" class="fusioncharts-label" transform="rotate(-90 503.5 190)"><tspan x="503.5" dy="2.5">11.66</tspan></text><text x="115" y="315.516" class="fusioncharts-label" font-family="'helvetica neue', arial" transform="rotate(-90 115 315.516)"><tspan x="115" dy="3.695">30.98</tspan></text><text x="236" y="98.25" class="fusioncharts-label" font-family="'helvetica neue', arial" transform="rotate(-90 236 98.25)"><tspan x="236" dy="3.695">104.03</tspan></text><text x="358" y="62.516" class="fusioncharts-label" font-family="'helvetica neue', arial" transform="rotate(-90 358 62.516)"><tspan x="358" dy="3.695">104.1</tspan></text><text x="479" y="101.484" class="fusioncharts-label" font-family="'helvetica neue', arial" transform="rotate(-90 479 101.484)"><tspan x="479" dy="3.695">102.4</tspan></text></g><g class="fusioncharts-legend" transform="translate(223.5 360.5)"><rect width="147" height="25" fill="#fff" fill-opacity="0" stroke="#545454" stroke-opacity="0" rx="0" ry="0"/><text x="23" y="6.5" fill="#666" class="fusioncharts-legenditem" font-size="10" cursor="pointer"><tspan x="23" dy="8.5">old</tspan></text><path fill="#09a274" stroke="#6bc7ac" stroke-width=".5" d="M7 18v-7.7h2.75V18zm4.125 0V7h2.75v11zm4.125 0v-4.4H18V18z" cursor="pointer"/><rect width="35" height="17" x="4" y="4" fill="silver" fill-opacity="0" rx="0" ry="0" cursor="pointer"/><text x="68.85" y="6.5" fill="#666" class="fusioncharts-legenditem" font-size="10" cursor="pointer"><tspan x="68.85" dy="8.5">new</tspan></text><path fill="#3465aa" stroke="#85a3cc" stroke-width=".5" d="M52.85 18v-7.7h2.75V18zm4.125 0V7h2.75v11zm4.125 0v-4.4h2.75V18z" cursor="pointer"/><rect width="40" height="17" x="49.85" y="4" fill="silver" fill-opacity="0" rx="0" ry="0" cursor="pointer"/><text x="119.7" y="6.5" fill="#666" class="fusioncharts-legenditem" font-size="10" cursor="pointer"><tspan x="119.7" dy="8.5">ratio</tspan></text><path fill="none" stroke="#7c378a" stroke-width="2" d="M103.7 12.5h11" cursor="pointer"/><circle cx="109.2" cy="12.5" r="3.3" fill="#fff" stroke="#7c378a" cursor="pointer"/><rect width="41" height="17" x="100.7" y="4" fill="silver" fill-opacity="0" rx="0" ry="0" cursor="pointer"/></g><text x="297" y="15" fill="#333" class="raphael-group-144-caption fusioncharts-caption" text-anchor="middle" font-family="'helvetica neue', arial" font-size="14" font-weight="bold"><tspan x="297" dy="13.703">File &amp; VM system 1/3</tspan></text><g fill="silver" fill-opacity="0" stroke="silver" stroke-opacity="0" class="raphael-group-14-hot"><g class="raphael-group-87-col-hot"><rect width="48" height="262" x="66.5" y="73.5" rx="0" ry="0"/><rect width="49" height="105" x="187.5" y="230.5" rx="0" ry="0"/><rect width="48" height="249" x="309.5" y="86.5" rx="0" ry="0"/><rect width="49" height="160" x="430.5" y="175.5" rx="0" ry="0"/><rect width="49" height="155" x="114.5" y="180.5" rx="0" ry="0"/><rect width="48" height="109" x="236.5" y="226.5" rx="0" ry="0"/><rect width="49" height="260" x="357.5" y="75.5" rx="0" ry="0"/><rect width="48" height="164" x="479.5" y="171.5" rx="0" ry="0"/></g><g class="raphael-group-113-line-hot"><circle cx="115" cy="332" r="15"/><circle cx="236" cy="79" r="15"/><circle cx="358" cy="79" r="15"/><circle cx="479" cy="85" r="15"/></g></g><g class="raphael-group-17-buttons raphael-group-18-button"><rect width="18" height="17" x="572.5" y="6.5" fill="url('#11-90-rgba_204_204_204_1__0-rgba_255_255_255_1__100')" stroke="#bbb" rx="2" ry="2"/><path fill="#fff" stroke="#9a9a9a" d="M576.5 17.5v3h11v-3 3h-11zm5 2l-3-4.5h2V9.5h2V15h2z"/><rect width="18" height="17" x="572.5" y="6.5" fill="silver" fill-opacity="0" stroke="silver" stroke-opacity="0" rx="2" cursor="pointer" ry="2"/></g><text x="6" y="396" fill-opacity=".5" font-size="9" font-family="verdana, sans" cursor="pointer"><tspan x="6" dy="-1.813">FusionCharts XT Trial</tspan></text></svg>