<svg xmlns="http://www.w3.org/2000/svg" id="raphael-paper-11" width="600" height="400" style="-webkit-tap-highlight-color:rgba(0, 0, 0, 0);-webkit-user-select:none;position:relative;background-color:rgb(255, 255, 255)" overflow="hidden" cursor="default"><defs><linearGradient id="11-90-rgba_204_204_204_1__0-rgba_255_255_255_1__100" x2="0" y1="1"><stop offset="0%" stop-color="#ccc"/><stop offset="100%" stop-color="#fff"/></linearGradient><clipPath id="E2B4BBCE-8624-432B-A5B4-7E51FD8B905B"><path d="M54 41h531v248H54z"/></clipPath></defs><g class="raphael-group-12-background"><rect width="600" height="400" fill="#fff" fill-opacity=".5" rx="0" ry="0"/><rect width="600" height="400" fill="none" stroke="#767575" stroke-opacity=".5" stroke-width="0" rx="0" ry="0"/></g><g stroke-width="0" class="raphael-group-23-canvas"><rect width="531" height="248" x="54" y="41" fill="none" stroke="#545454" stroke-opacity="0" rx="0" ry="0"/><rect width="531" height="248" x="54" y="41" fill="#fff" rx="0" ry="0"/></g><g class="raphael-group-26-axisbottom"><g fill="#eee" fill-opacity="0" stroke="#000" stroke-width="0" class="raphael-group-35-y-axis-bands"><rect width="531" height="49.6" x="54" y="189.8" rx="0" ry="0"/><rect width="531" height="49.6" x="54" y="90.6" rx="0" ry="0"/></g><g fill="none" stroke="#999" class="raphael-group-37-y-axis-lines" stroke-dasharray="1 2" shape-rendering="crispedges"><path d="M54 239.5h531M54 190.5h531M54 140.5h531M54 91.5h531M54 41.5h531"/></g><g fill="#333" class="fusioncharts-xaxis-0-gridlabels" text-anchor="middle" font-family="'helvetica neue', arial" font-size="10"><text x="91.929" y="306" class="fusioncharts-label"><tspan x="91.929" dy="-2.305">TCP_STREAM</tspan></text><text x="167.786" y="294" class="fusioncharts-label"><tspan x="167.786" dy="9.695">UDP_STREAM_</tspan><tspan x="167.786" dy="12">1472</tspan></text><text x="243.643" y="294" class="fusioncharts-label"><tspan x="243.643" dy="9.695">UDP_STREAM_</tspan><tspan x="243.643" dy="12">466</tspan></text><text x="319.5" y="294" class="fusioncharts-label"><tspan x="319.5" dy="9.695">UDP_STREAM_</tspan><tspan x="319.5" dy="12">18</tspan></text><text x="395.357" y="294" class="fusioncharts-label"><tspan x="395.357" dy="9.695">UDP_STREAM_</tspan><tspan x="395.357" dy="12">210</tspan></text><text x="471.214" y="294" class="fusioncharts-label"><tspan x="471.214" dy="9.695">UDP_STREAM_</tspan><tspan x="471.214" dy="12">978</tspan></text><text x="547.071" y="294" class="fusioncharts-label"><tspan x="547.071" dy="9.695">UDP_STREAM_</tspan><tspan x="547.071" dy="12">82</tspan></text></g><g fill="#333" class="fusioncharts-yaxis-0-gridlabels" text-anchor="end" font-family="'helvetica neue', arial" font-size="10" font-weight="undefined" font-style="undefined"><text x="48" y="289" class="fusioncharts-label"><tspan x="48" dy="3.695">0</tspan></text><text x="48" y="239.4" class="fusioncharts-label"><tspan x="48" dy="3.697">12</tspan></text><text x="48" y="189.8" class="fusioncharts-label"><tspan x="48" dy="3.691">24</tspan></text><text x="48" y="140.2" class="fusioncharts-label"><tspan x="48" dy="3.7">36</tspan></text><text x="48" y="90.6" class="fusioncharts-label"><tspan x="48" dy="3.694">48</tspan></text><text x="48" y="41" class="fusioncharts-label"><tspan x="48" dy="3.695">60</tspan></text></g><text fill="#333" class="raphael-group-46-axis-name fusioncharts-yaxis-0-title" text-anchor="middle" transform="rotate(-90 91 74)" font-size="10"><tspan x="0" dy="9.797">CPU Usage (%)</tspan></text><path fill="none" stroke="#999" d="M54 289.5h531" class="raphael-group-68-axis-lines"/></g><g class="raphael-group-13-dataset"><g stroke="#333" stroke-opacity="0" class="raphael-group-72-columns" clip-path="url('#E2B4BBCE-8624-432B-A5B4-7E51FD8B905B')"><rect width="30" height="1" x="61.5" y="289.5" fill="#09a274" rx="0" ry="0"/><rect width="30" height="1" x="137.5" y="289.5" fill="#09a274" rx="0" ry="0"/><rect width="30" height="1" x="213.5" y="289.5" fill="#09a274" rx="0" ry="0"/><rect width="30" height="1" x="289.5" y="289.5" fill="#09a274" rx="0" ry="0"/><rect width="30" height="1" x="365.5" y="289.5" fill="#09a274" rx="0" ry="0"/><rect width="31" height="1" x="440.5" y="289.5" fill="#09a274" rx="0" ry="0"/><rect width="31" height="1" x="516.5" y="289.5" fill="#09a274" rx="0" ry="0"/><rect width="30" height="1" x="61.5" y="289.5" fill="#3465aa" rx="0" ry="0"/><rect width="30" height="1" x="137.5" y="289.5" fill="#3465aa" rx="0" ry="0"/><rect width="30" height="1" x="213.5" y="289.5" fill="#3465aa" rx="0" ry="0"/><rect width="30" height="1" x="289.5" y="289.5" fill="#3465aa" rx="0" ry="0"/><rect width="30" height="1" x="365.5" y="289.5" fill="#3465aa" rx="0" ry="0"/><rect width="31" height="1" x="440.5" y="289.5" fill="#3465aa" rx="0" ry="0"/><rect width="31" height="1" x="516.5" y="289.5" fill="#3465aa" rx="0" ry="0"/><rect width="30" height="1" x="61.5" y="288.5" fill="#7c378a" rx="0" ry="0"/><rect width="30" height="1" x="137.5" y="288.5" fill="#7c378a" rx="0" ry="0"/><rect width="30" height="1" x="213.5" y="288.5" fill="#7c378a" rx="0" ry="0"/><rect width="30" height="1" x="289.5" y="288.5" fill="#7c378a" rx="0" ry="0"/><rect width="30" height="1" x="365.5" y="288.5" fill="#7c378a" rx="0" ry="0"/><rect width="31" height="1" x="440.5" y="288.5" fill="#7c378a" rx="0" ry="0"/><rect width="31" height="1" x="516.5" y="288.5" fill="#7c378a" rx="0" ry="0"/><rect width="30" height="1" x="61.5" y="288.5" fill="#e91c63" rx="0" ry="0"/><rect width="30" height="1" x="137.5" y="288.5" fill="#e91c63" rx="0" ry="0"/><rect width="30" height="1" x="213.5" y="288.5" fill="#e91c63" rx="0" ry="0"/><rect width="30" height="1" x="289.5" y="288.5" fill="#e91c63" rx="0" ry="0"/><rect width="30" height="1" x="365.5" y="288.5" fill="#e91c63" rx="0" ry="0"/><rect width="31" height="1" x="440.5" y="288.5" fill="#e91c63" rx="0" ry="0"/><rect width="31" height="1" x="516.5" y="288.5" fill="#e91c63" rx="0" ry="0"/><rect width="30" height="1" x="61.5" y="288.5" fill="#ff5622" rx="0" ry="0"/><rect width="30" height="1" x="137.5" y="288.5" fill="#ff5622" rx="0" ry="0"/><rect width="30" height="1" x="213.5" y="288.5" fill="#ff5622" rx="0" ry="0"/><rect width="30" height="1" x="289.5" y="288.5" fill="#ff5622" rx="0" ry="0"/><rect width="30" height="1" x="365.5" y="288.5" fill="#ff5622" rx="0" ry="0"/><rect width="31" height="1" x="440.5" y="288.5" fill="#ff5622" rx="0" ry="0"/><rect width="31" height="1" x="516.5" y="288.5" fill="#ff5622" rx="0" ry="0"/><rect width="30" height="1" x="61.5" y="287.5" fill="#ff9800" rx="0" ry="0"/><rect width="30" height="64" x="137.5" y="224.5" fill="#ff9800" rx="0" ry="0"/><rect width="30" height="64" x="213.5" y="224.5" fill="#ff9800" rx="0" ry="0"/><rect width="30" height="64" x="289.5" y="224.5" fill="#ff9800" rx="0" ry="0"/><rect width="30" height="64" x="365.5" y="224.5" fill="#ff9800" rx="0" ry="0"/><rect width="31" height="64" x="440.5" y="224.5" fill="#ff9800" rx="0" ry="0"/><rect width="31" height="64" x="516.5" y="224.5" fill="#ff9800" rx="0" ry="0"/><rect width="30" height="68" x="61.5" y="219.5" fill="#4baf4f" rx="0" ry="0"/><rect width="30" height="131" x="137.5" y="93.5" fill="#4baf4f" rx="0" ry="0"/><rect width="30" height="131" x="213.5" y="93.5" fill="#4baf4f" rx="0" ry="0"/><rect width="30" height="131" x="289.5" y="93.5" fill="#4baf4f" rx="0" ry="0"/><rect width="30" height="131" x="365.5" y="93.5" fill="#4baf4f" rx="0" ry="0"/><rect width="31" height="131" x="440.5" y="93.5" fill="#4baf4f" rx="0" ry="0"/><rect width="31" height="131" x="516.5" y="93.5" fill="#4baf4f" rx="0" ry="0"/><rect width="30" height="6" x="61.5" y="213.5" fill="#03a9f4" rx="0" ry="0"/><rect width="30" height="21" x="137.5" y="72.5" fill="#03a9f4" rx="0" ry="0"/><rect width="30" height="21" x="213.5" y="72.5" fill="#03a9f4" rx="0" ry="0"/><rect width="30" height="21" x="289.5" y="72.5" fill="#03a9f4" rx="0" ry="0"/><rect width="30" height="21" x="365.5" y="72.5" fill="#03a9f4" rx="0" ry="0"/><rect width="31" height="21" x="440.5" y="72.5" fill="#03a9f4" rx="0" ry="0"/><rect width="31" height="21" x="516.5" y="72.5" fill="#03a9f4" rx="0" ry="0"/><rect width="31" height="1" x="91.5" y="289.5" fill="#09a274" rx="0" ry="0"/><rect width="31" height="1" x="167.5" y="289.5" fill="#09a274" rx="0" ry="0"/><rect width="30" height="1" x="243.5" y="289.5" fill="#09a274" rx="0" ry="0"/><rect width="30" height="1" x="319.5" y="289.5" fill="#09a274" rx="0" ry="0"/><rect width="30" height="1" x="395.5" y="289.5" fill="#09a274" rx="0" ry="0"/><rect width="30" height="1" x="471.5" y="289.5" fill="#09a274" rx="0" ry="0"/><rect width="30" height="1" x="547.5" y="289.5" fill="#09a274" rx="0" ry="0"/><rect width="31" height="1" x="91.5" y="289.5" fill="#3465aa" rx="0" ry="0"/><rect width="31" height="1" x="167.5" y="289.5" fill="#3465aa" rx="0" ry="0"/><rect width="30" height="1" x="243.5" y="289.5" fill="#3465aa" rx="0" ry="0"/><rect width="30" height="1" x="319.5" y="289.5" fill="#3465aa" rx="0" ry="0"/><rect width="30" height="1" x="395.5" y="289.5" fill="#3465aa" rx="0" ry="0"/><rect width="30" height="1" x="471.5" y="289.5" fill="#3465aa" rx="0" ry="0"/><rect width="30" height="1" x="547.5" y="289.5" fill="#3465aa" rx="0" ry="0"/><rect width="31" height="1" x="91.5" y="288.5" fill="#7c378a" rx="0" ry="0"/><rect width="31" height="1" x="167.5" y="288.5" fill="#7c378a" rx="0" ry="0"/><rect width="30" height="1" x="243.5" y="288.5" fill="#7c378a" rx="0" ry="0"/><rect width="30" height="1" x="319.5" y="288.5" fill="#7c378a" rx="0" ry="0"/><rect width="30" height="1" x="395.5" y="288.5" fill="#7c378a" rx="0" ry="0"/><rect width="30" height="1" x="471.5" y="288.5" fill="#7c378a" rx="0" ry="0"/><rect width="30" height="1" x="547.5" y="288.5" fill="#7c378a" rx="0" ry="0"/><rect width="31" height="1" x="91.5" y="288.5" fill="#e91c63" rx="0" ry="0"/><rect width="31" height="1" x="167.5" y="288.5" fill="#e91c63" rx="0" ry="0"/><rect width="30" height="1" x="243.5" y="288.5" fill="#e91c63" rx="0" ry="0"/><rect width="30" height="1" x="319.5" y="288.5" fill="#e91c63" rx="0" ry="0"/><rect width="30" height="1" x="395.5" y="288.5" fill="#e91c63" rx="0" ry="0"/><rect width="30" height="1" x="471.5" y="288.5" fill="#e91c63" rx="0" ry="0"/><rect width="30" height="1" x="547.5" y="288.5" fill="#e91c63" rx="0" ry="0"/><rect width="31" height="1" x="91.5" y="288.5" fill="#ff5622" rx="0" ry="0"/><rect width="31" height="1" x="167.5" y="288.5" fill="#ff5622" rx="0" ry="0"/><rect width="30" height="1" x="243.5" y="288.5" fill="#ff5622" rx="0" ry="0"/><rect width="30" height="1" x="319.5" y="288.5" fill="#ff5622" rx="0" ry="0"/><rect width="30" height="1" x="395.5" y="288.5" fill="#ff5622" rx="0" ry="0"/><rect width="30" height="1" x="471.5" y="288.5" fill="#ff5622" rx="0" ry="0"/><rect width="30" height="1" x="547.5" y="288.5" fill="#ff5622" rx="0" ry="0"/><rect width="31" height="1" x="91.5" y="287.5" fill="#ff9800" rx="0" ry="0"/><rect width="31" height="24" x="167.5" y="264.5" fill="#ff9800" rx="0" ry="0"/><rect width="30" height="24" x="243.5" y="264.5" fill="#ff9800" rx="0" ry="0"/><rect width="30" height="24" x="319.5" y="264.5" fill="#ff9800" rx="0" ry="0"/><rect width="30" height="24" x="395.5" y="264.5" fill="#ff9800" rx="0" ry="0"/><rect width="30" height="24" x="471.5" y="264.5" fill="#ff9800" rx="0" ry="0"/><rect width="30" height="24" x="547.5" y="264.5" fill="#ff9800" rx="0" ry="0"/><rect width="31" height="68" x="91.5" y="219.5" fill="#4baf4f" rx="0" ry="0"/><rect width="31" height="187" x="167.5" y="77.5" fill="#4baf4f" rx="0" ry="0"/><rect width="30" height="187" x="243.5" y="77.5" fill="#4baf4f" rx="0" ry="0"/><rect width="30" height="187" x="319.5" y="77.5" fill="#4baf4f" rx="0" ry="0"/><rect width="30" height="187" x="395.5" y="77.5" fill="#4baf4f" rx="0" ry="0"/><rect width="30" height="187" x="471.5" y="77.5" fill="#4baf4f" rx="0" ry="0"/><rect width="30" height="187" x="547.5" y="77.5" fill="#4baf4f" rx="0" ry="0"/><rect width="31" height="5" x="91.5" y="214.5" fill="#03a9f4" rx="0" ry="0"/><rect width="31" height="27" x="167.5" y="50.5" fill="#03a9f4" rx="0" ry="0"/><rect width="30" height="27" x="243.5" y="50.5" fill="#03a9f4" rx="0" ry="0"/><rect width="30" height="27" x="319.5" y="50.5" fill="#03a9f4" rx="0" ry="0"/><rect width="30" height="27" x="395.5" y="50.5" fill="#03a9f4" rx="0" ry="0"/><rect width="30" height="27" x="471.5" y="50.5" fill="#03a9f4" rx="0" ry="0"/><rect width="30" height="27" x="547.5" y="50.5" fill="#03a9f4" rx="0" ry="0"/></g></g><g class="fusioncharts-legend" transform="translate(78.5 326.5)"><rect width="482" height="59" fill="#fff" fill-opacity="0" stroke="#545454" stroke-opacity="0" rx="0" ry="0"/><text x="23" y="6.5" fill="#666" class="fusioncharts-legenditem" font-size="10" cursor="pointer"><tspan x="23" dy="8.5">%gnice</tspan></text><path fill="#09a274" stroke="#6bc7ac" stroke-width=".5" d="M7 18v-7.7h2.75V18zm4.125 0V7h2.75v11zm4.125 0v-4.4H18V18z" cursor="pointer"/><rect width="56" height="17" x="4" y="4" fill="silver" fill-opacity="0" rx="0" ry="0" cursor="pointer"/><text x="91.85" y="6.5" fill="#666" class="fusioncharts-legenditem" font-size="10" cursor="pointer"><tspan x="91.85" dy="8.5">%guest</tspan></text><path fill="#3465aa" stroke="#85a3cc" stroke-width=".5" d="M75.85 18v-7.7h2.75V18zm4.125 0V7h2.75v11zm4.125 0v-4.4h2.75V18z" cursor="pointer"/><rect width="57" height="17" x="72.85" y="4" fill="silver" fill-opacity="0" rx="0" ry="0" cursor="pointer"/><text x="160.7" y="6.5" fill="#666" class="fusioncharts-legenditem" font-size="10" cursor="pointer"><tspan x="160.7" dy="8.5">%iowait</tspan></text><path fill="#7c378a" stroke="#b087b9" stroke-width=".5" d="M144.7 18v-7.7h2.75V18zm4.125 0V7h2.75v11zm4.125 0v-4.4h2.75V18z" cursor="pointer"/><rect width="58" height="17" x="141.7" y="4" fill="silver" fill-opacity="0" rx="0" ry="0" cursor="pointer"/><text x="229.55" y="6.5" fill="#666" class="fusioncharts-legenditem" font-size="10" cursor="pointer"><tspan x="229.55" dy="8.5">%irq</tspan></text><path fill="#e91c63" stroke="#f277a1" stroke-width=".5" d="M213.55 18v-7.7h2.75V18zm4.125 0V7h2.75v11zm4.125 0v-4.4h2.75V18z" cursor="pointer"/><rect width="43" height="17" x="210.55" y="4" fill="silver" fill-opacity="0" rx="0" ry="0" cursor="pointer"/><text x="298.4" y="6.5" fill="#666" class="fusioncharts-legenditem" font-size="10" cursor="pointer"><tspan x="298.4" dy="8.5">%nice</tspan></text><path fill="#ff5622" stroke="#ff9a7a" stroke-width=".5" d="M282.4 18v-7.7h2.75V18zm4.125 0V7h2.75v11zm4.125 0v-4.4h2.75V18z" cursor="pointer"/><rect width="50" height="17" x="279.4" y="4" fill="silver" fill-opacity="0" rx="0" ry="0" cursor="pointer"/><text x="367.25" y="6.5" fill="#666" class="fusioncharts-legenditem" font-size="10" cursor="pointer"><tspan x="367.25" dy="8.5">%soft</tspan></text><path fill="#ff9800" stroke="#ffc166" stroke-width=".5" d="M351.25 18v-7.7H354V18zm4.125 0V7h2.75v11zm4.125 0v-4.4h2.75V18z" cursor="pointer"/><rect width="49" height="17" x="348.25" y="4" fill="silver" fill-opacity="0" rx="0" ry="0" cursor="pointer"/><text x="436.1" y="6.5" fill="#666" class="fusioncharts-legenditem" font-size="10" cursor="pointer"><tspan x="436.1" dy="8.5">%steal</tspan></text><path fill="#8bc34a" stroke="#b9db92" stroke-width=".5" d="M420.1 18v-7.7h2.75V18zm4.125 0V7h2.75v11zm4.125 0v-4.4h2.75V18z" cursor="pointer"/><rect width="53" height="17" x="417.1" y="4" fill="silver" fill-opacity="0" rx="0" ry="0" cursor="pointer"/><text x="23" y="23.5" fill="#666" class="fusioncharts-legenditem" font-size="10" cursor="pointer"><tspan x="23" dy="8.5">%sys</tspan></text><path fill="#4baf4f" stroke="#93cf95" stroke-width=".5" d="M7 35v-7.7h2.75V35zm4.125 0V24h2.75v11zm4.125 0v-4.4H18V35z" cursor="pointer"/><rect width="47" height="17" x="4" y="21" fill="silver" fill-opacity="0" rx="0" ry="0" cursor="pointer"/><text x="91.85" y="23.5" fill="#666" class="fusioncharts-legenditem" font-size="10" cursor="pointer"><tspan x="91.85" dy="8.5">%usr</tspan></text><path fill="#03a9f4" stroke="#68cbf8" stroke-width=".5" d="M75.85 35v-7.7h2.75V35zm4.125 0V24h2.75v11zm4.125 0v-4.4h2.75V35z" cursor="pointer"/><rect width="46" height="17" x="72.85" y="21" fill="silver" fill-opacity="0" rx="0" ry="0" cursor="pointer"/><text x="160.7" y="23.5" fill="#666" class="fusioncharts-legenditem" font-size="10" cursor="pointer"><tspan x="160.7" dy="8.5">%gnice</tspan></text><path fill="#09a274" stroke="#6bc7ac" stroke-width=".5" d="M144.7 35v-7.7h2.75V35zm4.125 0V24h2.75v11zm4.125 0v-4.4h2.75V35z" cursor="pointer"/><rect width="56" height="17" x="141.7" y="21" fill="silver" fill-opacity="0" rx="0" ry="0" cursor="pointer"/><text x="229.55" y="23.5" fill="#666" class="fusioncharts-legenditem" font-size="10" cursor="pointer"><tspan x="229.55" dy="8.5">%guest</tspan></text><path fill="#3465aa" stroke="#85a3cc" stroke-width=".5" d="M213.55 35v-7.7h2.75V35zm4.125 0V24h2.75v11zm4.125 0v-4.4h2.75V35z" cursor="pointer"/><rect width="57" height="17" x="210.55" y="21" fill="silver" fill-opacity="0" rx="0" ry="0" cursor="pointer"/><text x="298.4" y="23.5" fill="#666" class="fusioncharts-legenditem" font-size="10" cursor="pointer"><tspan x="298.4" dy="8.5">%iowait</tspan></text><path fill="#7c378a" stroke="#b087b9" stroke-width=".5" d="M282.4 35v-7.7h2.75V35zm4.125 0V24h2.75v11zm4.125 0v-4.4h2.75V35z" cursor="pointer"/><rect width="58" height="17" x="279.4" y="21" fill="silver" fill-opacity="0" rx="0" ry="0" cursor="pointer"/><text x="367.25" y="23.5" fill="#666" class="fusioncharts-legenditem" font-size="10" cursor="pointer"><tspan x="367.25" dy="8.5">%irq</tspan></text><path fill="#e91c63" stroke="#f277a1" stroke-width=".5" d="M351.25 35v-7.7H354V35zm4.125 0V24h2.75v11zm4.125 0v-4.4h2.75V35z" cursor="pointer"/><rect width="43" height="17" x="348.25" y="21" fill="silver" fill-opacity="0" rx="0" ry="0" cursor="pointer"/><text x="436.1" y="23.5" fill="#666" class="fusioncharts-legenditem" font-size="10" cursor="pointer"><tspan x="436.1" dy="8.5">%nice</tspan></text><path fill="#ff5622" stroke="#ff9a7a" stroke-width=".5" d="M420.1 35v-7.7h2.75V35zm4.125 0V24h2.75v11zm4.125 0v-4.4h2.75V35z" cursor="pointer"/><rect width="50" height="17" x="417.1" y="21" fill="silver" fill-opacity="0" rx="0" ry="0" cursor="pointer"/><text x="23" y="40.5" fill="#666" class="fusioncharts-legenditem" font-size="10" cursor="pointer"><tspan x="23" dy="8.5">%soft</tspan></text><path fill="#ff9800" stroke="#ffc166" stroke-width=".5" d="M7 52v-7.7h2.75V52zm4.125 0V41h2.75v11zm4.125 0v-4.4H18V52z" cursor="pointer"/><rect width="49" height="17" x="4" y="38" fill="silver" fill-opacity="0" rx="0" ry="0" cursor="pointer"/><text x="91.85" y="40.5" fill="#666" class="fusioncharts-legenditem" font-size="10" cursor="pointer"><tspan x="91.85" dy="8.5">%steal</tspan></text><path fill="#8bc34a" stroke="#b9db92" stroke-width=".5" d="M75.85 52v-7.7h2.75V52zm4.125 0V41h2.75v11zm4.125 0v-4.4h2.75V52z" cursor="pointer"/><rect width="53" height="17" x="72.85" y="38" fill="silver" fill-opacity="0" rx="0" ry="0" cursor="pointer"/><text x="160.7" y="40.5" fill="#666" class="fusioncharts-legenditem" font-size="10" cursor="pointer"><tspan x="160.7" dy="8.5">%sys</tspan></text><path fill="#4baf4f" stroke="#93cf95" stroke-width=".5" d="M144.7 52v-7.7h2.75V52zm4.125 0V41h2.75v11zm4.125 0v-4.4h2.75V52z" cursor="pointer"/><rect width="47" height="17" x="141.7" y="38" fill="silver" fill-opacity="0" rx="0" ry="0" cursor="pointer"/><text x="229.55" y="40.5" fill="#666" class="fusioncharts-legenditem" font-size="10" cursor="pointer"><tspan x="229.55" dy="8.5">%usr</tspan></text><path fill="#03a9f4" stroke="#68cbf8" stroke-width=".5" d="M213.55 52v-7.7h2.75V52zm4.125 0V41h2.75v11zm4.125 0v-4.4h2.75V52z" cursor="pointer"/><rect width="46" height="17" x="210.55" y="38" fill="silver" fill-opacity="0" rx="0" ry="0" cursor="pointer"/></g><text x="319.5" y="15" fill="#333" class="raphael-group-353-caption fusioncharts-caption" text-anchor="middle" font-family="'helvetica neue', arial" font-size="14" font-weight="bold"><tspan x="319.5" dy="13.703">Stream CPU Usage [receiver]</tspan></text><g fill="silver" fill-opacity="0" stroke="silver" stroke-opacity="0" class="raphael-group-14-hot raphael-group-70-col-hot"><rect width="30" height="1" x="61.5" y="289.5" rx="0" ry="0"/><rect width="30" height="1" x="137.5" y="289.5" rx="0" ry="0"/><rect width="30" height="1" x="213.5" y="289.5" rx="0" ry="0"/><rect width="30" height="1" x="289.5" y="289.5" rx="0" ry="0"/><rect width="30" height="1" x="365.5" y="289.5" rx="0" ry="0"/><rect width="31" height="1" x="440.5" y="289.5" rx="0" ry="0"/><rect width="31" height="1" x="516.5" y="289.5" rx="0" ry="0"/><rect width="30" height="1" x="61.5" y="289.5" rx="0" ry="0"/><rect width="30" height="1" x="137.5" y="289.5" rx="0" ry="0"/><rect width="30" height="1" x="213.5" y="289.5" rx="0" ry="0"/><rect width="30" height="1" x="289.5" y="289.5" rx="0" ry="0"/><rect width="30" height="1" x="365.5" y="289.5" rx="0" ry="0"/><rect width="31" height="1" x="440.5" y="289.5" rx="0" ry="0"/><rect width="31" height="1" x="516.5" y="289.5" rx="0" ry="0"/><rect width="30" height="1" x="61.5" y="288.5" rx="0" ry="0"/><rect width="30" height="1" x="137.5" y="288.5" rx="0" ry="0"/><rect width="30" height="1" x="213.5" y="288.5" rx="0" ry="0"/><rect width="30" height="1" x="289.5" y="288.5" rx="0" ry="0"/><rect width="30" height="1" x="365.5" y="288.5" rx="0" ry="0"/><rect width="31" height="1" x="440.5" y="288.5" rx="0" ry="0"/><rect width="31" height="1" x="516.5" y="288.5" rx="0" ry="0"/><rect width="30" height="1" x="61.5" y="288.5" rx="0" ry="0"/><rect width="30" height="1" x="137.5" y="288.5" rx="0" ry="0"/><rect width="30" height="1" x="213.5" y="288.5" rx="0" ry="0"/><rect width="30" height="1" x="289.5" y="288.5" rx="0" ry="0"/><rect width="30" height="1" x="365.5" y="288.5" rx="0" ry="0"/><rect width="31" height="1" x="440.5" y="288.5" rx="0" ry="0"/><rect width="31" height="1" x="516.5" y="288.5" rx="0" ry="0"/><rect width="30" height="1" x="61.5" y="288.5" rx="0" ry="0"/><rect width="30" height="1" x="137.5" y="288.5" rx="0" ry="0"/><rect width="30" height="1" x="213.5" y="288.5" rx="0" ry="0"/><rect width="30" height="1" x="289.5" y="288.5" rx="0" ry="0"/><rect width="30" height="1" x="365.5" y="288.5" rx="0" ry="0"/><rect width="31" height="1" x="440.5" y="288.5" rx="0" ry="0"/><rect width="31" height="1" x="516.5" y="288.5" rx="0" ry="0"/><rect width="30" height="1" x="61.5" y="287.5" rx="0" ry="0"/><rect width="30" height="64" x="137.5" y="224.5" rx="0" ry="0"/><rect width="30" height="64" x="213.5" y="224.5" rx="0" ry="0"/><rect width="30" height="64" x="289.5" y="224.5" rx="0" ry="0"/><rect width="30" height="64" x="365.5" y="224.5" rx="0" ry="0"/><rect width="31" height="64" x="440.5" y="224.5" rx="0" ry="0"/><rect width="31" height="64" x="516.5" y="224.5" rx="0" ry="0"/><rect width="30" height="68" x="61.5" y="219.5" rx="0" ry="0"/><rect width="30" height="131" x="137.5" y="93.5" rx="0" ry="0"/><rect width="30" height="131" x="213.5" y="93.5" rx="0" ry="0"/><rect width="30" height="131" x="289.5" y="93.5" rx="0" ry="0"/><rect width="30" height="131" x="365.5" y="93.5" rx="0" ry="0"/><rect width="31" height="131" x="440.5" y="93.5" rx="0" ry="0"/><rect width="31" height="131" x="516.5" y="93.5" rx="0" ry="0"/><rect width="30" height="6" x="61.5" y="213.5" rx="0" ry="0"/><rect width="30" height="21" x="137.5" y="72.5" rx="0" ry="0"/><rect width="30" height="21" x="213.5" y="72.5" rx="0" ry="0"/><rect width="30" height="21" x="289.5" y="72.5" rx="0" ry="0"/><rect width="30" height="21" x="365.5" y="72.5" rx="0" ry="0"/><rect width="31" height="21" x="440.5" y="72.5" rx="0" ry="0"/><rect width="31" height="21" x="516.5" y="72.5" rx="0" ry="0"/><rect width="31" height="1" x="91.5" y="289.5" rx="0" ry="0"/><rect width="31" height="1" x="167.5" y="289.5" rx="0" ry="0"/><rect width="30" height="1" x="243.5" y="289.5" rx="0" ry="0"/><rect width="30" height="1" x="319.5" y="289.5" rx="0" ry="0"/><rect width="30" height="1" x="395.5" y="289.5" rx="0" ry="0"/><rect width="30" height="1" x="471.5" y="289.5" rx="0" ry="0"/><rect width="30" height="1" x="547.5" y="289.5" rx="0" ry="0"/><rect width="31" height="1" x="91.5" y="289.5" rx="0" ry="0"/><rect width="31" height="1" x="167.5" y="289.5" rx="0" ry="0"/><rect width="30" height="1" x="243.5" y="289.5" rx="0" ry="0"/><rect width="30" height="1" x="319.5" y="289.5" rx="0" ry="0"/><rect width="30" height="1" x="395.5" y="289.5" rx="0" ry="0"/><rect width="30" height="1" x="471.5" y="289.5" rx="0" ry="0"/><rect width="30" height="1" x="547.5" y="289.5" rx="0" ry="0"/><rect width="31" height="1" x="91.5" y="288.5" rx="0" ry="0"/><rect width="31" height="1" x="167.5" y="288.5" rx="0" ry="0"/><rect width="30" height="1" x="243.5" y="288.5" rx="0" ry="0"/><rect width="30" height="1" x="319.5" y="288.5" rx="0" ry="0"/><rect width="30" height="1" x="395.5" y="288.5" rx="0" ry="0"/><rect width="30" height="1" x="471.5" y="288.5" rx="0" ry="0"/><rect width="30" height="1" x="547.5" y="288.5" rx="0" ry="0"/><rect width="31" height="1" x="91.5" y="288.5" rx="0" ry="0"/><rect width="31" height="1" x="167.5" y="288.5" rx="0" ry="0"/><rect width="30" height="1" x="243.5" y="288.5" rx="0" ry="0"/><rect width="30" height="1" x="319.5" y="288.5" rx="0" ry="0"/><rect width="30" height="1" x="395.5" y="288.5" rx="0" ry="0"/><rect width="30" height="1" x="471.5" y="288.5" rx="0" ry="0"/><rect width="30" height="1" x="547.5" y="288.5" rx="0" ry="0"/><rect width="31" height="1" x="91.5" y="288.5" rx="0" ry="0"/><rect width="31" height="1" x="167.5" y="288.5" rx="0" ry="0"/><rect width="30" height="1" x="243.5" y="288.5" rx="0" ry="0"/><rect width="30" height="1" x="319.5" y="288.5" rx="0" ry="0"/><rect width="30" height="1" x="395.5" y="288.5" rx="0" ry="0"/><rect width="30" height="1" x="471.5" y="288.5" rx="0" ry="0"/><rect width="30" height="1" x="547.5" y="288.5" rx="0" ry="0"/><rect width="31" height="1" x="91.5" y="287.5" rx="0" ry="0"/><rect width="31" height="24" x="167.5" y="264.5" rx="0" ry="0"/><rect width="30" height="24" x="243.5" y="264.5" rx="0" ry="0"/><rect width="30" height="24" x="319.5" y="264.5" rx="0" ry="0"/><rect width="30" height="24" x="395.5" y="264.5" rx="0" ry="0"/><rect width="30" height="24" x="471.5" y="264.5" rx="0" ry="0"/><rect width="30" height="24" x="547.5" y="264.5" rx="0" ry="0"/><rect width="31" height="68" x="91.5" y="219.5" rx="0" ry="0"/><rect width="31" height="187" x="167.5" y="77.5" rx="0" ry="0"/><rect width="30" height="187" x="243.5" y="77.5" rx="0" ry="0"/><rect width="30" height="187" x="319.5" y="77.5" rx="0" ry="0"/><rect width="30" height="187" x="395.5" y="77.5" rx="0" ry="0"/><rect width="30" height="187" x="471.5" y="77.5" rx="0" ry="0"/><rect width="30" height="187" x="547.5" y="77.5" rx="0" ry="0"/><rect width="31" height="5" x="91.5" y="214.5" rx="0" ry="0"/><rect width="31" height="27" x="167.5" y="50.5" rx="0" ry="0"/><rect width="30" height="27" x="243.5" y="50.5" rx="0" ry="0"/><rect width="30" height="27" x="319.5" y="50.5" rx="0" ry="0"/><rect width="30" height="27" x="395.5" y="50.5" rx="0" ry="0"/><rect width="30" height="27" x="471.5" y="50.5" rx="0" ry="0"/><rect width="30" height="27" x="547.5" y="50.5" rx="0" ry="0"/></g><g class="raphael-group-17-buttons raphael-group-18-button"><rect width="18" height="17" x="572.5" y="6.5" fill="url('#11-90-rgba_204_204_204_1__0-rgba_255_255_255_1__100')" stroke="#bbb" rx="2" ry="2"/><path fill="#fff" stroke="#9a9a9a" d="M576.5 17.5v3h11v-3 3h-11zm5 2l-3-4.5h2V9.5h2V15h2z"/><rect width="18" height="17" x="572.5" y="6.5" fill="silver" fill-opacity="0" stroke="silver" stroke-opacity="0" rx="2" cursor="pointer" ry="2"/></g><text x="6" y="396" fill-opacity=".5" font-size="9" font-family="verdana, sans" cursor="pointer"><tspan x="6" dy="-1.813">FusionCharts XT Trial</tspan></text></svg>