<svg xmlns="http://www.w3.org/2000/svg" id="raphael-paper-11" width="600" height="400" style="-webkit-tap-highlight-color:rgba(0, 0, 0, 0);-webkit-user-select:none;position:relative;background-color:rgb(255, 255, 255)" overflow="hidden" cursor="default"><defs><linearGradient id="11-90-rgba_204_204_204_1__0-rgba_255_255_255_1__100" x2="0" y1="1"><stop offset="0%" stop-color="#ccc"/><stop offset="100%" stop-color="#fff"/></linearGradient><clipPath id="494AC4B1-9F8F-4283-A1D8-3AEB0F1136EF"><path d="M87 41h439v277H87z"/></clipPath></defs><g class="raphael-group-12-background"><rect width="600" height="400" fill="#fff" fill-opacity=".5" rx="0" ry="0"/><rect width="600" height="400" fill="none" stroke="#767575" stroke-opacity=".5" stroke-width="0" rx="0" ry="0"/></g><g stroke-width="0" class="raphael-group-23-canvas"><rect width="439" height="277" x="87" y="41" fill="none" stroke="#545454" stroke-opacity="0" rx="0" ry="0"/><rect width="439" height="277" x="87" y="41" fill="#fff" rx="0" ry="0"/></g><g class="raphael-group-26-axisbottom"><g fill="#eee" fill-opacity="0" stroke="#000" stroke-width="0" class="raphael-group-35-y-axis-bands"><rect width="439" height="25.182" x="87" y="267.636" rx="0" ry="0"/><rect width="439" height="25.182" x="87" y="217.273" rx="0" ry="0"/><rect width="439" height="25.182" x="87" y="166.909" rx="0" ry="0"/><rect width="439" height="25.182" x="87" y="116.545" rx="0" ry="0"/><rect width="439" height="25.182" x="87" y="66.182" rx="0" ry="0"/></g><g fill="none" stroke="#999" class="raphael-group-37-y-axis-lines" stroke-dasharray="1 2" shape-rendering="crispedges"><path d="M87 293.5h439M87 268.5h439M87 242.5h439M87 217.5h439M87 192.5h439M87 167.5h439M87 142.5h439M87 117.5h439M87 91.5h439M87 66.5h439M87 41.5h439"/></g><g fill="none" stroke-opacity=".99" class="raphael-group-43-y-axis-lines" shape-rendering="crispedges"><path stroke="#ff4081" d="M87 292.5h439M87 283.5h439"/><path stroke="#34343e" d="M87 275.5h439"/><path stroke="#09a274" d="M87 266.5h439M87 257.5h439"/></g><g fill="#333" class="fusioncharts-xaxis-0-gridlabels" text-anchor="middle" font-family="'helvetica neue', arial" font-size="10"><text x="105.292" y="335" class="fusioncharts-label"><tspan x="105.292" dy="-2.305">4</tspan></text><text x="141.875" y="335" class="fusioncharts-label"><tspan x="141.875" dy="-2.305">8</tspan></text><text x="178.458" y="335" class="fusioncharts-label"><tspan x="178.458" dy="-2.305">512</tspan></text><text x="215.042" y="335" class="fusioncharts-label"><tspan x="215.042" dy="-2.305">4</tspan></text><text x="251.625" y="335" class="fusioncharts-label"><tspan x="251.625" dy="-2.305">8</tspan></text><text x="288.208" y="335" class="fusioncharts-label"><tspan x="288.208" dy="-2.305">512</tspan></text><text x="324.792" y="335" class="fusioncharts-label"><tspan x="324.792" dy="-2.305">4</tspan></text><text x="361.375" y="335" class="fusioncharts-label"><tspan x="361.375" dy="-2.305">8</tspan></text><text x="397.958" y="335" class="fusioncharts-label"><tspan x="397.958" dy="-2.305">512</tspan></text><text x="434.542" y="335" class="fusioncharts-label"><tspan x="434.542" dy="-2.305">4</tspan></text><text x="471.125" y="335" class="fusioncharts-label"><tspan x="471.125" dy="-2.305">8</tspan></text><text x="507.708" y="335" class="fusioncharts-label"><tspan x="507.708" dy="-2.305">512</tspan></text></g><g fill="#333" class="fusioncharts-yaxis-0-gridlabels" text-anchor="end" font-family="'helvetica neue', arial" font-size="10" font-weight="undefined" font-style="undefined"><text x="81" y="318" class="fusioncharts-label"><tspan x="81" dy="3.695">0</tspan></text><text x="81" y="292.818" class="fusioncharts-label"><tspan x="81" dy="3.693">300,000</tspan></text><text x="81" y="267.636" class="fusioncharts-label"><tspan x="81" dy="3.699">600,000</tspan></text><text x="81" y="242.455" class="fusioncharts-label"><tspan x="81" dy="3.689">900,000</tspan></text><text x="81" y="217.273" class="fusioncharts-label"><tspan x="81" dy="3.695">1,200,000</tspan></text><text x="81" y="192.091" class="fusioncharts-label"><tspan x="81" dy="3.7">1,500,000</tspan></text><text x="81" y="166.909" class="fusioncharts-label"><tspan x="81" dy="3.69">1,800,000</tspan></text><text x="81" y="141.727" class="fusioncharts-label"><tspan x="81" dy="3.696">2,100,000</tspan></text><text x="81" y="116.545" class="fusioncharts-label"><tspan x="81" dy="3.702">2,400,000</tspan></text><text x="81" y="91.364" class="fusioncharts-label"><tspan x="81" dy="3.692">2,700,000</tspan></text><text x="81" y="66.182" class="fusioncharts-label"><tspan x="81" dy="3.697">3,000,000</tspan></text><text x="81" y="41" class="fusioncharts-label"><tspan x="81" dy="3.695">3,300,000</tspan></text></g><g fill="#333" class="fusioncharts-yaxis-1-gridlabels" font-family="'helvetica neue', arial" font-size="10" font-weight="undefined" font-style="undefined"><text x="532" y="318" class="fusioncharts-label"><tspan x="532" dy="3.695">50</tspan></text><text x="532" y="41" class="fusioncharts-label"><tspan x="532" dy="3.695">368.91</tspan></text></g><g fill="#333" class="raphael-group-46-axis-name" text-anchor="middle" font-size="10"><text class="fusioncharts-yaxis-0-title" transform="rotate(-90 98.25 81.25)"><tspan x="0" dy="9.797">Throughput (MB/s)</tspan></text><text class="fusioncharts-yaxis-1-title" transform="rotate(90 201.75 381.25)"><tspan x="0" dy="9.797">Performance Ratio (%)</tspan></text><text class="fusioncharts-xaxis-0-title" transform="translate(306.5 340)"><tspan x="0" dy="9.797">Block Size (KB)</tspan></text></g><path fill="none" stroke="#999" d="M87 318.5h439" class="raphael-group-102-axis-lines"/></g><g class="raphael-group-13-dataset"><g stroke="#333" stroke-opacity="0" class="raphael-group-105-columns" clip-path="url('#494AC4B1-9F8F-4283-A1D8-3AEB0F1136EF')"><rect width="15" height="17" x="90.5" y="301.5" fill="#09a274" rx="0" ry="0"/><rect width="14" height="17" x="127.5" y="301.5" fill="#09a274" rx="0" ry="0"/><rect width="15" height="17" x="163.5" y="301.5" fill="#09a274" rx="0" ry="0"/><rect width="15" height="16" x="200.5" y="302.5" fill="#09a274" rx="0" ry="0"/><rect width="15" height="16" x="236.5" y="302.5" fill="#09a274" rx="0" ry="0"/><rect width="15" height="16" x="273.5" y="302.5" fill="#09a274" rx="0" ry="0"/><rect width="14" height="16" x="310.5" y="302.5" fill="#09a274" rx="0" ry="0"/><rect width="15" height="20" x="346.5" y="298.5" fill="#09a274" rx="0" ry="0"/><rect width="14" height="15" x="383.5" y="303.5" fill="#09a274" rx="0" ry="0"/><rect width="15" height="85" x="419.5" y="233.5" fill="#09a274" rx="0" ry="0"/><rect width="15" height="45" x="456.5" y="273.5" fill="#09a274" rx="0" ry="0"/><rect width="14" height="198" x="493.5" y="120.5" fill="#09a274" rx="0" ry="0"/><rect width="14" height="17" x="105.5" y="301.5" fill="#3465aa" rx="0" ry="0"/><rect width="15" height="17" x="141.5" y="301.5" fill="#3465aa" rx="0" ry="0"/><rect width="15" height="17" x="178.5" y="301.5" fill="#3465aa" rx="0" ry="0"/><rect width="14" height="16" x="215.5" y="302.5" fill="#3465aa" rx="0" ry="0"/><rect width="15" height="16" x="251.5" y="302.5" fill="#3465aa" rx="0" ry="0"/><rect width="14" height="16" x="288.5" y="302.5" fill="#3465aa" rx="0" ry="0"/><rect width="15" height="18" x="324.5" y="300.5" fill="#3465aa" rx="0" ry="0"/><rect width="15" height="16" x="361.5" y="302.5" fill="#3465aa" rx="0" ry="0"/><rect width="15" height="15" x="397.5" y="303.5" fill="#3465aa" rx="0" ry="0"/><rect width="15" height="46" x="434.5" y="272.5" fill="#3465aa" rx="0" ry="0"/><rect width="14" height="166" x="471.5" y="152.5" fill="#3465aa" rx="0" ry="0"/><rect width="15" height="220" x="507.5" y="98.5" fill="#3465aa" rx="0" ry="0"/></g><g class="raphael-group-179-line-connector"><path fill="none" stroke="#7c378a" stroke-width="2" d="M105 274l37 1h36l37-1h37l36 1 37-16 36 37 37-21 37 39 36-273 37 224" stroke-linecap="round" stroke-linejoin="round" class="raphael-group-182-connector"/><g fill="#fff" stroke="#7c378a" class="raphael-group-183-anchors"><path d="M102 274a3 3 0 0 0 6 0 3 3 0 0 0-6 0zM139 275a3 3 0 0 0 6 0 3 3 0 0 0-6 0zM175 275a3 3 0 0 0 6 0 3 3 0 0 0-6 0zM212 274a3 3 0 0 0 6 0 3 3 0 0 0-6 0zM249 274a3 3 0 0 0 6 0 3 3 0 0 0-6 0zM285 275a3 3 0 0 0 6 0 3 3 0 0 0-6 0zM322 259a3 3 0 0 0 6 0 3 3 0 0 0-6 0zM358 296a3 3 0 0 0 6 0 3 3 0 0 0-6 0zM395 275a3 3 0 0 0 6 0 3 3 0 0 0-6 0zM432 314a3 3 0 0 0 6 0 3 3 0 0 0-6 0zM468 41a3 3 0 0 0 6 0 3 3 0 0 0-6 0zM505 265a3 3 0 0 0 6 0 3 3 0 0 0-6 0z"/></g></g></g><g class="raphael-group-27-axistop"><g class="fusioncharts-yaxis-1-gridlabels" font-family="'helvetica neue', arial" font-size="10"><text x="532" y="291.942" fill="#ff4081" class="fusioncharts-label"><tspan x="532" dy="3.692">80</tspan></text><text x="532" y="283.256" fill="#ff4081" class="fusioncharts-label"><tspan x="532" dy="3.694">90</tspan></text><text x="532" y="274.57" fill="#34343e" class="fusioncharts-label"><tspan x="532" dy="3.695">100</tspan></text><text x="532" y="265.884" fill="#09a274" class="fusioncharts-label"><tspan x="532" dy="3.697">110</tspan></text><text x="532" y="257.198" fill="#09a274" class="fusioncharts-label"><tspan x="532" dy="3.698">120</tspan></text></g></g><g fill="#fff" class="fusioncharts-datalabels" font-size="10" text-anchor="middle"><text x="98" y="277.5" class="fusioncharts-label" transform="rotate(-90 98 277.5)"><tspan x="98" dy="2.5">190,875</tspan></text><text x="134.5" y="277.5" class="fusioncharts-label" transform="rotate(-90 134.5 277.5)"><tspan x="134.5" dy="2.5">191,162</tspan></text><text x="171" y="277.5" class="fusioncharts-label" transform="rotate(-90 171 277.5)"><tspan x="171" dy="2.5">191,145</tspan></text><text x="208" y="278.5" class="fusioncharts-label" transform="rotate(-90 208 278.5)"><tspan x="208" dy="2.5">183,662</tspan></text><text x="244" y="278.5" class="fusioncharts-label" transform="rotate(-90 244 278.5)"><tspan x="244" dy="2.5">183,542</tspan></text><text x="281" y="278.5" class="fusioncharts-label" transform="rotate(-90 281 278.5)"><tspan x="281" dy="2.5">185,105</tspan></text><text x="317.5" y="278.5" class="fusioncharts-label" transform="rotate(-90 317.5 278.5)"><tspan x="317.5" dy="2.5">181,618</tspan></text><text x="354" y="274.5" class="fusioncharts-label" transform="rotate(-90 354 274.5)"><tspan x="354" dy="2.5">237,988</tspan></text><text x="390.5" y="279.5" class="fusioncharts-label" transform="rotate(-90 390.5 279.5)"><tspan x="390.5" dy="2.5">177,649</tspan></text><text x="427" y="268.5" class="fusioncharts-label" transform="rotate(-90 427 268.5)"><tspan x="427" dy="2.5">1,003,448.32</tspan></text><text x="464" y="297.5" class="fusioncharts-label" transform="rotate(-90 464 297.5)"><tspan x="464" dy="2.5">535,807</tspan></text><text x="500.5" y="153" class="fusioncharts-label" transform="rotate(-90 500.5 153)"><tspan x="500.5" dy="2.5">2,356,428.8</tspan></text><text x="112.5" y="277.5" class="fusioncharts-label" transform="rotate(-90 112.5 277.5)"><tspan x="112.5" dy="2.5">191,049</tspan></text><text x="149" y="277.5" class="fusioncharts-label" transform="rotate(-90 149 277.5)"><tspan x="149" dy="2.5">191,084</tspan></text><text x="186" y="277.5" class="fusioncharts-label" transform="rotate(-90 186 277.5)"><tspan x="186" dy="2.5">191,180</tspan></text><text x="222.5" y="278.5" class="fusioncharts-label" transform="rotate(-90 222.5 278.5)"><tspan x="222.5" dy="2.5">185,064</tspan></text><text x="259" y="278.5" class="fusioncharts-label" transform="rotate(-90 259 278.5)"><tspan x="259" dy="2.5">184,901</tspan></text><text x="295.5" y="278.5" class="fusioncharts-label" transform="rotate(-90 295.5 278.5)"><tspan x="295.5" dy="2.5">184,738</tspan></text><text x="332" y="276.5" class="fusioncharts-label" transform="rotate(-90 332 276.5)"><tspan x="332" dy="2.5">214,279</tspan></text><text x="369" y="278.5" class="fusioncharts-label" transform="rotate(-90 369 278.5)"><tspan x="369" dy="2.5">179,489</tspan></text><text x="405" y="279.5" class="fusioncharts-label" transform="rotate(-90 405 279.5)"><tspan x="405" dy="2.5">176,803</tspan></text><text x="442" y="296.5" class="fusioncharts-label" transform="rotate(-90 442 296.5)"><tspan x="442" dy="2.5">542,600</tspan></text><text x="478.5" y="185" class="fusioncharts-label" transform="rotate(-90 478.5 185)"><tspan x="478.5" dy="2.5">1,976,627.2</tspan></text><text x="515" y="131" class="fusioncharts-label" transform="rotate(-90 515 131)"><tspan x="515" dy="2.5">2,616,627.2</tspan></text><text x="105" y="254.75" class="fusioncharts-label" font-family="'helvetica neue', arial" transform="rotate(-90 105 254.75)"><tspan x="105" dy="3.695">100.09</tspan></text><text x="142" y="291.484" class="fusioncharts-label" font-family="'helvetica neue', arial" transform="rotate(-90 142 291.484)"><tspan x="142" dy="3.695">99.96</tspan></text><text x="178" y="255.75" class="fusioncharts-label" font-family="'helvetica neue', arial" transform="rotate(-90 178 255.75)"><tspan x="178" dy="3.695">100.02</tspan></text><text x="215" y="254.75" class="fusioncharts-label" font-family="'helvetica neue', arial" transform="rotate(-90 215 254.75)"><tspan x="215" dy="3.695">100.76</tspan></text><text x="252" y="293.25" class="fusioncharts-label" font-family="'helvetica neue', arial" transform="rotate(-90 252 293.25)"><tspan x="252" dy="3.695">100.74</tspan></text><text x="288" y="288.703" class="fusioncharts-label" font-family="'helvetica neue', arial" transform="rotate(-90 288 288.703)"><tspan x="288" dy="3.695">99.8</tspan></text><text x="325" y="239.75" class="fusioncharts-label" font-family="'helvetica neue', arial" transform="rotate(-90 325 239.75)"><tspan x="325" dy="3.695">117.98</tspan></text><text x="361" y="279.516" class="fusioncharts-label" font-family="'helvetica neue', arial" transform="rotate(-90 361 279.516)"><tspan x="361" dy="3.695">75.42</tspan></text><text x="398" y="258.516" class="fusioncharts-label" font-family="'helvetica neue', arial" transform="rotate(-90 398 258.516)"><tspan x="398" dy="3.695">99.52</tspan></text><text x="435" y="297.516" class="fusioncharts-label" font-family="'helvetica neue', arial" transform="rotate(-90 435 297.516)"><tspan x="435" dy="3.695">54.07</tspan></text><text x="471" y="60.25" class="fusioncharts-label" font-family="'helvetica neue', arial" transform="rotate(-90 471 60.25)"><tspan x="471" dy="3.695">368.91</tspan></text><text x="508" y="284.25" class="fusioncharts-label" font-family="'helvetica neue', arial" transform="rotate(-90 508 284.25)"><tspan x="508" dy="3.695">111.04</tspan></text></g><g class="fusioncharts-legend" transform="translate(232.5 360.5)"><rect width="148" height="25" fill="#fff" fill-opacity="0" stroke="#545454" stroke-opacity="0" rx="0" ry="0"/><text x="23" y="6.5" fill="#666" class="fusioncharts-legenditem" font-size="10" cursor="pointer"><tspan x="23" dy="8.5">old</tspan></text><path fill="#09a274" stroke="#6bc7ac" stroke-width=".5" d="M7 18v-7.7h2.75V18zm4.125 0V7h2.75v11zm4.125 0v-4.4H18V18z" cursor="pointer"/><rect width="35" height="17" x="4" y="4" fill="silver" fill-opacity="0" rx="0" ry="0" cursor="pointer"/><text x="68.85" y="6.5" fill="#666" class="fusioncharts-legenditem" font-size="10" cursor="pointer"><tspan x="68.85" dy="8.5">new</tspan></text><path fill="#3465aa" stroke="#85a3cc" stroke-width=".5" d="M52.85 18v-7.7h2.75V18zm4.125 0V7h2.75v11zm4.125 0v-4.4h2.75V18z" cursor="pointer"/><rect width="40" height="17" x="49.85" y="4" fill="silver" fill-opacity="0" rx="0" ry="0" cursor="pointer"/><text x="119.7" y="6.5" fill="#666" class="fusioncharts-legenditem" font-size="10" cursor="pointer"><tspan x="119.7" dy="8.5">ratio</tspan></text><path fill="none" stroke="#7c378a" stroke-width="2" d="M103.7 12.5h11" cursor="pointer"/><circle cx="109.2" cy="12.5" r="3.3" fill="#fff" stroke="#7c378a" cursor="pointer"/><rect width="41" height="17" x="100.7" y="4" fill="silver" fill-opacity="0" rx="0" ry="0" cursor="pointer"/></g><text x="306.5" y="15" fill="#333" class="raphael-group-233-caption fusioncharts-caption" text-anchor="middle" font-family="'helvetica neue', arial" font-size="14" font-weight="bold"><tspan x="306.5" dy="13.703">Read</tspan></text><g fill="silver" fill-opacity="0" stroke="silver" stroke-opacity="0" class="raphael-group-14-hot"><g class="raphael-group-104-col-hot"><rect width="15" height="17" x="90.5" y="301.5" rx="0" ry="0"/><rect width="14" height="17" x="127.5" y="301.5" rx="0" ry="0"/><rect width="15" height="17" x="163.5" y="301.5" rx="0" ry="0"/><rect width="15" height="16" x="200.5" y="302.5" rx="0" ry="0"/><rect width="15" height="16" x="236.5" y="302.5" rx="0" ry="0"/><rect width="15" height="16" x="273.5" y="302.5" rx="0" ry="0"/><rect width="14" height="16" x="310.5" y="302.5" rx="0" ry="0"/><rect width="15" height="20" x="346.5" y="298.5" rx="0" ry="0"/><rect width="14" height="15" x="383.5" y="303.5" rx="0" ry="0"/><rect width="15" height="85" x="419.5" y="233.5" rx="0" ry="0"/><rect width="15" height="45" x="456.5" y="273.5" rx="0" ry="0"/><rect width="14" height="198" x="493.5" y="120.5" rx="0" ry="0"/><rect width="14" height="17" x="105.5" y="301.5" rx="0" ry="0"/><rect width="15" height="17" x="141.5" y="301.5" rx="0" ry="0"/><rect width="15" height="17" x="178.5" y="301.5" rx="0" ry="0"/><rect width="14" height="16" x="215.5" y="302.5" rx="0" ry="0"/><rect width="15" height="16" x="251.5" y="302.5" rx="0" ry="0"/><rect width="14" height="16" x="288.5" y="302.5" rx="0" ry="0"/><rect width="15" height="18" x="324.5" y="300.5" rx="0" ry="0"/><rect width="15" height="16" x="361.5" y="302.5" rx="0" ry="0"/><rect width="15" height="15" x="397.5" y="303.5" rx="0" ry="0"/><rect width="15" height="46" x="434.5" y="272.5" rx="0" ry="0"/><rect width="14" height="166" x="471.5" y="152.5" rx="0" ry="0"/><rect width="15" height="220" x="507.5" y="98.5" rx="0" ry="0"/></g><g class="raphael-group-178-line-hot"><circle cx="105" cy="274" r="15"/><circle cx="142" cy="275" r="15"/><circle cx="178" cy="275" r="15"/><circle cx="215" cy="274" r="15"/><circle cx="252" cy="274" r="15"/><circle cx="288" cy="275" r="15"/><circle cx="325" cy="259" r="15"/><circle cx="361" cy="296" r="15"/><circle cx="398" cy="275" r="15"/><circle cx="435" cy="314" r="15"/><circle cx="471" cy="41" r="15"/><circle cx="508" cy="265" r="15"/></g></g><g class="raphael-group-17-buttons raphael-group-18-button"><rect width="18" height="17" x="572.5" y="6.5" fill="url('#11-90-rgba_204_204_204_1__0-rgba_255_255_255_1__100')" stroke="#bbb" rx="2" ry="2"/><path fill="#fff" stroke="#9a9a9a" d="M576.5 17.5v3h11v-3 3h-11zm5 2l-3-4.5h2V9.5h2V15h2z"/><rect width="18" height="17" x="572.5" y="6.5" fill="silver" fill-opacity="0" stroke="silver" stroke-opacity="0" rx="2" cursor="pointer" ry="2"/></g><text x="6" y="396" fill-opacity=".5" font-size="9" font-family="verdana, sans" cursor="pointer"><tspan x="6" dy="-1.813">FusionCharts XT Trial</tspan></text></svg>