<svg xmlns="http://www.w3.org/2000/svg" id="raphael-paper-11" width="600" height="400" style="-webkit-tap-highlight-color:rgba(0, 0, 0, 0);-webkit-user-select:none;position:relative;background-color:rgb(255, 255, 255)" overflow="hidden" cursor="default"><defs><linearGradient id="11-90-rgba_204_204_204_1__0-rgba_255_255_255_1__100" x2="0" y1="1"><stop offset="0%" stop-color="#ccc"/><stop offset="100%" stop-color="#fff"/></linearGradient><clipPath id="D8FC2D3D-5211-4FAB-9BB7-4EAE25DD584A"><path d="M87 41h445v277H87z"/></clipPath></defs><g class="raphael-group-12-background"><rect width="600" height="400" fill="#fff" fill-opacity=".5" rx="0" ry="0"/><rect width="600" height="400" fill="none" stroke="#767575" stroke-opacity=".5" stroke-width="0" rx="0" ry="0"/></g><g stroke-width="0" class="raphael-group-23-canvas"><rect width="445" height="277" x="87" y="41" fill="none" stroke="#545454" stroke-opacity="0" rx="0" ry="0"/><rect width="445" height="277" x="87" y="41" fill="#fff" rx="0" ry="0"/></g><g class="raphael-group-26-axisbottom"><g fill="#eee" fill-opacity="0" stroke="#000" stroke-width="0" class="raphael-group-35-y-axis-bands"><rect width="445" height="25.182" x="87" y="267.636" rx="0" ry="0"/><rect width="445" height="25.182" x="87" y="217.273" rx="0" ry="0"/><rect width="445" height="25.182" x="87" y="166.909" rx="0" ry="0"/><rect width="445" height="25.182" x="87" y="116.545" rx="0" ry="0"/><rect width="445" height="25.182" x="87" y="66.182" rx="0" ry="0"/></g><g fill="none" stroke="#999" class="raphael-group-37-y-axis-lines" stroke-dasharray="1 2" shape-rendering="crispedges"><path d="M87 293.5h445M87 268.5h445M87 242.5h445M87 217.5h445M87 192.5h445M87 167.5h445M87 142.5h445M87 117.5h445M87 91.5h445M87 66.5h445M87 41.5h445"/></g><g fill="none" stroke-opacity=".99" class="raphael-group-43-y-axis-lines" shape-rendering="crispedges"><path stroke="#ff4081" d="M87 196.5h445M87 174.5h445"/><path stroke="#34343e" d="M87 152.5h445"/><path stroke="#09a274" d="M87 130.5h445M87 107.5h445"/></g><g fill="#333" class="fusioncharts-xaxis-0-gridlabels" text-anchor="middle" font-family="'helvetica neue', arial" font-size="10"><text x="105.542" y="335" class="fusioncharts-label"><tspan x="105.542" dy="-2.305">4</tspan></text><text x="142.625" y="335" class="fusioncharts-label"><tspan x="142.625" dy="-2.305">8</tspan></text><text x="179.708" y="335" class="fusioncharts-label"><tspan x="179.708" dy="-2.305">512</tspan></text><text x="216.792" y="335" class="fusioncharts-label"><tspan x="216.792" dy="-2.305">4</tspan></text><text x="253.875" y="335" class="fusioncharts-label"><tspan x="253.875" dy="-2.305">8</tspan></text><text x="290.958" y="335" class="fusioncharts-label"><tspan x="290.958" dy="-2.305">512</tspan></text><text x="328.042" y="335" class="fusioncharts-label"><tspan x="328.042" dy="-2.305">4</tspan></text><text x="365.125" y="335" class="fusioncharts-label"><tspan x="365.125" dy="-2.305">8</tspan></text><text x="402.208" y="335" class="fusioncharts-label"><tspan x="402.208" dy="-2.305">512</tspan></text><text x="439.292" y="335" class="fusioncharts-label"><tspan x="439.292" dy="-2.305">4</tspan></text><text x="476.375" y="335" class="fusioncharts-label"><tspan x="476.375" dy="-2.305">8</tspan></text><text x="513.458" y="335" class="fusioncharts-label"><tspan x="513.458" dy="-2.305">512</tspan></text></g><g fill="#333" class="fusioncharts-yaxis-0-gridlabels" text-anchor="end" font-family="'helvetica neue', arial" font-size="10" font-weight="undefined" font-style="undefined"><text x="81" y="318" class="fusioncharts-label"><tspan x="81" dy="3.695">0</tspan></text><text x="81" y="292.818" class="fusioncharts-label"><tspan x="81" dy="3.693">130,000</tspan></text><text x="81" y="267.636" class="fusioncharts-label"><tspan x="81" dy="3.699">260,000</tspan></text><text x="81" y="242.455" class="fusioncharts-label"><tspan x="81" dy="3.689">390,000</tspan></text><text x="81" y="217.273" class="fusioncharts-label"><tspan x="81" dy="3.695">520,000</tspan></text><text x="81" y="192.091" class="fusioncharts-label"><tspan x="81" dy="3.7">650,000</tspan></text><text x="81" y="166.909" class="fusioncharts-label"><tspan x="81" dy="3.69">780,000</tspan></text><text x="81" y="141.727" class="fusioncharts-label"><tspan x="81" dy="3.696">910,000</tspan></text><text x="81" y="116.545" class="fusioncharts-label"><tspan x="81" dy="3.702">1,040,000</tspan></text><text x="81" y="91.364" class="fusioncharts-label"><tspan x="81" dy="3.692">1,170,000</tspan></text><text x="81" y="66.182" class="fusioncharts-label"><tspan x="81" dy="3.697">1,300,000</tspan></text><text x="81" y="41" class="fusioncharts-label"><tspan x="81" dy="3.695">1,430,000</tspan></text></g><g fill="#333" class="fusioncharts-yaxis-1-gridlabels" font-family="'helvetica neue', arial" font-size="10" font-weight="undefined" font-style="undefined"><text x="538" y="318" class="fusioncharts-label"><tspan x="538" dy="3.695">24.95</tspan></text><text x="538" y="41" class="fusioncharts-label"><tspan x="538" dy="3.695">150</tspan></text></g><g fill="#333" class="raphael-group-46-axis-name" text-anchor="middle" font-size="10"><text class="fusioncharts-yaxis-0-title" transform="rotate(-90 98.25 81.25)"><tspan x="0" dy="9.797">Throughput (MB/s)</tspan></text><text class="fusioncharts-yaxis-1-title" transform="rotate(90 201.75 381.25)"><tspan x="0" dy="9.797">Performance Ratio (%)</tspan></text><text class="fusioncharts-xaxis-0-title" transform="translate(309.5 340)"><tspan x="0" dy="9.797">Block Size (KB)</tspan></text></g><path fill="none" stroke="#999" d="M87 318.5h445" class="raphael-group-102-axis-lines"/></g><g class="raphael-group-13-dataset"><g stroke="#333" stroke-opacity="0" class="raphael-group-105-columns" clip-path="url('#D8FC2D3D-5211-4FAB-9BB7-4EAE25DD584A')"><rect width="15" height="1" x="90.5" y="317.5" fill="#09a274" rx="0" ry="0"/><rect width="15" height="1" x="127.5" y="317.5" fill="#09a274" rx="0" ry="0"/><rect width="15" height="17" x="164.5" y="301.5" fill="#09a274" rx="0" ry="0"/><rect width="15" height="1" x="201.5" y="317.5" fill="#09a274" rx="0" ry="0"/><rect width="14" height="1" x="239.5" y="317.5" fill="#09a274" rx="0" ry="0"/><rect width="14" height="20" x="276.5" y="298.5" fill="#09a274" rx="0" ry="0"/><rect width="15" height="1" x="313.5" y="317.5" fill="#09a274" rx="0" ry="0"/><rect width="15" height="1" x="350.5" y="317.5" fill="#09a274" rx="0" ry="0"/><rect width="15" height="22" x="387.5" y="296.5" fill="#09a274" rx="0" ry="0"/><rect width="15" height="2" x="424.5" y="316.5" fill="#09a274" rx="0" ry="0"/><rect width="15" height="4" x="461.5" y="314.5" fill="#09a274" rx="0" ry="0"/><rect width="15" height="253" x="498.5" y="65.5" fill="#09a274" rx="0" ry="0"/><rect width="15" height="1" x="105.5" y="317.5" fill="#3465aa" rx="0" ry="0"/><rect width="15" height="1" x="142.5" y="317.5" fill="#3465aa" rx="0" ry="0"/><rect width="15" height="17" x="179.5" y="301.5" fill="#3465aa" rx="0" ry="0"/><rect width="15" height="1" x="216.5" y="317.5" fill="#3465aa" rx="0" ry="0"/><rect width="15" height="1" x="253.5" y="317.5" fill="#3465aa" rx="0" ry="0"/><rect width="15" height="23" x="290.5" y="295.5" fill="#3465aa" rx="0" ry="0"/><rect width="14" height="1" x="328.5" y="317.5" fill="#3465aa" rx="0" ry="0"/><rect width="14" height="1" x="365.5" y="317.5" fill="#3465aa" rx="0" ry="0"/><rect width="15" height="24" x="402.5" y="294.5" fill="#3465aa" rx="0" ry="0"/><rect width="15" height="2" x="439.5" y="316.5" fill="#3465aa" rx="0" ry="0"/><rect width="15" height="3" x="476.5" y="315.5" fill="#3465aa" rx="0" ry="0"/><rect width="15" height="63" x="513.5" y="255.5" fill="#3465aa" rx="0" ry="0"/></g><g class="raphael-group-179-line-connector"><path fill="none" stroke="#7c378a" stroke-width="2" d="M106 151h37l37 1 37-3 37-2 37-32 37 36 37 9 37-19 37-83 37 151 37 109" stroke-linecap="round" stroke-linejoin="round" class="raphael-group-182-connector"/><g fill="#fff" stroke="#7c378a" class="raphael-group-183-anchors"><path d="M103 151a3 3 0 0 0 6 0 3 3 0 0 0-6 0zM140 151a3 3 0 0 0 6 0 3 3 0 0 0-6 0zM177 152a3 3 0 0 0 6 0 3 3 0 0 0-6 0zM214 149a3 3 0 0 0 6 0 3 3 0 0 0-6 0zM251 147a3 3 0 0 0 6 0 3 3 0 0 0-6 0zM288 115a3 3 0 0 0 6 0 3 3 0 0 0-6 0zM325 151a3 3 0 0 0 6 0 3 3 0 0 0-6 0zM362 160a3 3 0 0 0 6 0 3 3 0 0 0-6 0zM399 141a3 3 0 0 0 6 0 3 3 0 0 0-6 0zM436 58a3 3 0 0 0 6 0 3 3 0 0 0-6 0zM473 209a3 3 0 0 0 6 0 3 3 0 0 0-6 0zM510 318a3 3 0 0 0 6 0 3 3 0 0 0-6 0z"/></g></g></g><g class="raphael-group-27-axistop"><g class="fusioncharts-yaxis-1-gridlabels" font-family="'helvetica neue', arial" font-size="10"><text x="538" y="196.061" fill="#ff4081" class="fusioncharts-label"><tspan x="538" dy="3.702">80</tspan></text><text x="538" y="173.909" fill="#ff4081" class="fusioncharts-label"><tspan x="538" dy="3.691">90</tspan></text><text x="538" y="151.758" fill="#34343e" class="fusioncharts-label"><tspan x="538" dy="3.695">100</tspan></text><text x="538" y="129.606" fill="#09a274" class="fusioncharts-label"><tspan x="538" dy="3.7">110</tspan></text><text x="538" y="107.455" fill="#09a274" class="fusioncharts-label"><tspan x="538" dy="3.689">120</tspan></text></g></g><g fill="#fff" class="fusioncharts-datalabels" font-size="10" text-anchor="middle"><text x="98" y="292" class="fusioncharts-label" transform="rotate(-90 98 292)"><tspan x="98" dy="2.5">1,297</tspan></text><text x="135" y="292" class="fusioncharts-label" transform="rotate(-90 135 292)"><tspan x="135" dy="2.5">2,598</tspan></text><text x="172" y="280.5" class="fusioncharts-label" transform="rotate(-90 172 280.5)"><tspan x="172" dy="2.5">83,365</tspan></text><text x="209" y="292" class="fusioncharts-label" transform="rotate(-90 209 292)"><tspan x="209" dy="2.5">1,544</tspan></text><text x="246.5" y="292" class="fusioncharts-label" transform="rotate(-90 246.5 292)"><tspan x="246.5" dy="2.5">3,022</tspan></text><text x="283.5" y="277.5" class="fusioncharts-label" transform="matrix(0 -1 1 0 6 561)"><tspan x="283.5" dy="2.5">98,548</tspan></text><text x="321" y="292" class="fusioncharts-label" transform="rotate(-90 321 292)"><tspan x="321" dy="2.5">1,945</tspan></text><text x="358" y="292" class="fusioncharts-label" transform="rotate(-90 358 292)"><tspan x="358" dy="2.5">3,687</tspan></text><text x="395" y="272.5" class="fusioncharts-label" transform="rotate(-90 395 272.5)"><tspan x="395" dy="2.5">113,163</tspan></text><text x="432" y="291.5" class="fusioncharts-label" transform="rotate(-90 432 291.5)"><tspan x="432" dy="2.5">5,963</tspan></text><text x="469" y="288" class="fusioncharts-label" transform="rotate(-90 469 288)"><tspan x="469" dy="2.5">15,529</tspan></text><text x="506" y="93.5" class="fusioncharts-label" transform="rotate(-90 506 93.5)"><tspan x="506" dy="2.5">1,303,040</tspan></text><text x="113" y="292" class="fusioncharts-label" transform="rotate(-90 113 292)"><tspan x="113" dy="2.5">1,301</tspan></text><text x="150" y="292" class="fusioncharts-label" transform="rotate(-90 150 292)"><tspan x="150" dy="2.5">2,605</tspan></text><text x="187" y="280.5" class="fusioncharts-label" transform="rotate(-90 187 280.5)"><tspan x="187" dy="2.5">83,352</tspan></text><text x="224" y="292" class="fusioncharts-label" transform="rotate(-90 224 292)"><tspan x="224" dy="2.5">1,564</tspan></text><text x="261" y="292" class="fusioncharts-label" transform="rotate(-90 261 292)"><tspan x="261" dy="2.5">3,081</tspan></text><text x="298" y="271.5" class="fusioncharts-label" transform="rotate(-90 298 271.5)"><tspan x="298" dy="2.5">115,082</tspan></text><text x="335.5" y="292" class="fusioncharts-label" transform="rotate(-90 335.5 292)"><tspan x="335.5" dy="2.5">1,948</tspan></text><text x="372.5" y="292" class="fusioncharts-label" transform="rotate(-90 372.5 292)"><tspan x="372.5" dy="2.5">3,554</tspan></text><text x="410" y="270.5" class="fusioncharts-label" transform="rotate(-90 410 270.5)"><tspan x="410" dy="2.5">118,913</tspan></text><text x="447" y="291.5" class="fusioncharts-label" transform="rotate(-90 447 291.5)"><tspan x="447" dy="2.5">8,477</tspan></text><text x="484" y="288.5" class="fusioncharts-label" transform="rotate(-90 484 288.5)"><tspan x="484" dy="2.5">11,487</tspan></text><text x="521" y="279.5" class="fusioncharts-label" transform="rotate(-90 521 279.5)"><tspan x="521" dy="2.5">325,139</tspan></text><text x="106" y="131.75" class="fusioncharts-label" font-family="'helvetica neue', arial" transform="rotate(-90 106 131.75)"><tspan x="106" dy="3.695">100.31</tspan></text><text x="143" y="170.25" class="fusioncharts-label" font-family="'helvetica neue', arial" transform="rotate(-90 143 170.25)"><tspan x="143" dy="3.695">100.27</tspan></text><text x="180" y="168.484" class="fusioncharts-label" font-family="'helvetica neue', arial" transform="rotate(-90 180 168.484)"><tspan x="180" dy="3.695">99.98</tspan></text><text x="217" y="132.516" class="fusioncharts-label" font-family="'helvetica neue', arial" transform="rotate(-90 217 132.516)"><tspan x="217" dy="3.695">101.3</tspan></text><text x="254" y="127.75" class="fusioncharts-label" font-family="'helvetica neue', arial" transform="rotate(-90 254 127.75)"><tspan x="254" dy="3.695">101.95</tspan></text><text x="291" y="95.75" class="fusioncharts-label" font-family="'helvetica neue', arial" transform="rotate(-90 291 95.75)"><tspan x="291" dy="3.695">116.78</tspan></text><text x="328" y="170.25" class="fusioncharts-label" font-family="'helvetica neue', arial" transform="rotate(-90 328 170.25)"><tspan x="328" dy="3.695">100.15</tspan></text><text x="365" y="176.484" class="fusioncharts-label" font-family="'helvetica neue', arial" transform="rotate(-90 365 176.484)"><tspan x="365" dy="3.695">96.39</tspan></text><text x="402" y="121.75" class="fusioncharts-label" font-family="'helvetica neue', arial" transform="rotate(-90 402 121.75)"><tspan x="402" dy="3.695">105.08</tspan></text><text x="439" y="77.25" class="fusioncharts-label" font-family="'helvetica neue', arial" transform="rotate(-90 439 77.25)"><tspan x="439" dy="3.695">142.16</tspan></text><text x="476" y="225.484" class="fusioncharts-label" font-family="'helvetica neue', arial" transform="rotate(-90 476 225.484)"><tspan x="476" dy="3.695">73.97</tspan></text><text x="513" y="301.516" class="fusioncharts-label" font-family="'helvetica neue', arial" transform="rotate(-90 513 301.516)"><tspan x="513" dy="3.695">24.95</tspan></text></g><g class="fusioncharts-legend" transform="translate(235.5 360.5)"><rect width="148" height="25" fill="#fff" fill-opacity="0" stroke="#545454" stroke-opacity="0" rx="0" ry="0"/><text x="23" y="6.5" fill="#666" class="fusioncharts-legenditem" font-size="10" cursor="pointer"><tspan x="23" dy="8.5">old</tspan></text><path fill="#09a274" stroke="#6bc7ac" stroke-width=".5" d="M7 18v-7.7h2.75V18zm4.125 0V7h2.75v11zm4.125 0v-4.4H18V18z" cursor="pointer"/><rect width="35" height="17" x="4" y="4" fill="silver" fill-opacity="0" rx="0" ry="0" cursor="pointer"/><text x="68.85" y="6.5" fill="#666" class="fusioncharts-legenditem" font-size="10" cursor="pointer"><tspan x="68.85" dy="8.5">new</tspan></text><path fill="#3465aa" stroke="#85a3cc" stroke-width=".5" d="M52.85 18v-7.7h2.75V18zm4.125 0V7h2.75v11zm4.125 0v-4.4h2.75V18z" cursor="pointer"/><rect width="40" height="17" x="49.85" y="4" fill="silver" fill-opacity="0" rx="0" ry="0" cursor="pointer"/><text x="119.7" y="6.5" fill="#666" class="fusioncharts-legenditem" font-size="10" cursor="pointer"><tspan x="119.7" dy="8.5">ratio</tspan></text><path fill="none" stroke="#7c378a" stroke-width="2" d="M103.7 12.5h11" cursor="pointer"/><circle cx="109.2" cy="12.5" r="3.3" fill="#fff" stroke="#7c378a" cursor="pointer"/><rect width="41" height="17" x="100.7" y="4" fill="silver" fill-opacity="0" rx="0" ry="0" cursor="pointer"/></g><text x="309.5" y="15" fill="#333" class="raphael-group-233-caption fusioncharts-caption" text-anchor="middle" font-family="'helvetica neue', arial" font-size="14" font-weight="bold"><tspan x="309.5" dy="13.703">RandRead</tspan></text><g fill="silver" fill-opacity="0" stroke="silver" stroke-opacity="0" class="raphael-group-14-hot"><g class="raphael-group-104-col-hot"><rect width="15" height="15" x="90.5" y="310.5" rx="0" ry="0"/><rect width="15" height="15" x="127.5" y="310.5" rx="0" ry="0"/><rect width="15" height="17" x="164.5" y="301.5" rx="0" ry="0"/><rect width="15" height="15" x="201.5" y="310.5" rx="0" ry="0"/><rect width="14" height="15" x="239.5" y="310.5" rx="0" ry="0"/><rect width="14" height="20" x="276.5" y="298.5" rx="0" ry="0"/><rect width="15" height="15" x="313.5" y="310.5" rx="0" ry="0"/><rect width="15" height="15" x="350.5" y="310.5" rx="0" ry="0"/><rect width="15" height="22" x="387.5" y="296.5" rx="0" ry="0"/><rect width="15" height="15" x="424.5" y="310" rx="0" ry="0"/><rect width="15" height="15" x="461.5" y="309" rx="0" ry="0"/><rect width="15" height="253" x="498.5" y="65.5" rx="0" ry="0"/><rect width="15" height="15" x="105.5" y="310.5" rx="0" ry="0"/><rect width="15" height="15" x="142.5" y="310.5" rx="0" ry="0"/><rect width="15" height="17" x="179.5" y="301.5" rx="0" ry="0"/><rect width="15" height="15" x="216.5" y="310.5" rx="0" ry="0"/><rect width="15" height="15" x="253.5" y="310.5" rx="0" ry="0"/><rect width="15" height="23" x="290.5" y="295.5" rx="0" ry="0"/><rect width="14" height="15" x="328.5" y="310.5" rx="0" ry="0"/><rect width="14" height="15" x="365.5" y="310.5" rx="0" ry="0"/><rect width="15" height="24" x="402.5" y="294.5" rx="0" ry="0"/><rect width="15" height="15" x="439.5" y="310" rx="0" ry="0"/><rect width="15" height="15" x="476.5" y="309.5" rx="0" ry="0"/><rect width="15" height="63" x="513.5" y="255.5" rx="0" ry="0"/></g><g class="raphael-group-178-line-hot"><circle cx="106" cy="151" r="15"/><circle cx="143" cy="151" r="15"/><circle cx="180" cy="152" r="15"/><circle cx="217" cy="149" r="15"/><circle cx="254" cy="147" r="15"/><circle cx="291" cy="115" r="15"/><circle cx="328" cy="151" r="15"/><circle cx="365" cy="160" r="15"/><circle cx="402" cy="141" r="15"/><circle cx="439" cy="58" r="15"/><circle cx="476" cy="209" r="15"/><circle cx="513" cy="318" r="15"/></g></g><g class="raphael-group-17-buttons raphael-group-18-button"><rect width="18" height="17" x="572.5" y="6.5" fill="url('#11-90-rgba_204_204_204_1__0-rgba_255_255_255_1__100')" stroke="#bbb" rx="2" ry="2"/><path fill="#fff" stroke="#9a9a9a" d="M576.5 17.5v3h11v-3 3h-11zm5 2l-3-4.5h2V9.5h2V15h2z"/><rect width="18" height="17" x="572.5" y="6.5" fill="silver" fill-opacity="0" stroke="silver" stroke-opacity="0" rx="2" cursor="pointer" ry="2"/></g><text x="6" y="396" fill-opacity=".5" font-size="9" font-family="verdana, sans" cursor="pointer"><tspan x="6" dy="-1.813">FusionCharts XT Trial</tspan></text></svg>