<svg xmlns="http://www.w3.org/2000/svg" id="raphael-paper-11" width="600" height="400" style="-webkit-tap-highlight-color:rgba(0, 0, 0, 0);-webkit-user-select:none;position:relative;background-color:rgb(255, 255, 255)" overflow="hidden" cursor="default"><defs><linearGradient id="11-90-rgba_204_204_204_1__0-rgba_255_255_255_1__100" x2="0" y1="1"><stop offset="0%" stop-color="#ccc"/><stop offset="100%" stop-color="#fff"/></linearGradient><clipPath id="F80BAE75-EAA0-4A10-B375-03A24A1E4E0B"><path d="M59 41h481v277H59z"/></clipPath></defs><g class="raphael-group-12-background"><rect width="600" height="400" fill="#fff" fill-opacity=".5" rx="0" ry="0"/><rect width="600" height="400" fill="none" stroke="#767575" stroke-opacity=".5" stroke-width="0" rx="0" ry="0"/></g><g stroke-width="0" class="raphael-group-23-canvas"><rect width="481" height="277" x="59" y="41" fill="none" stroke="#545454" stroke-opacity="0" rx="0" ry="0"/><rect width="481" height="277" x="59" y="41" fill="#fff" rx="0" ry="0"/></g><g class="raphael-group-26-axisbottom"><g fill="#eee" fill-opacity="0" stroke="#000" stroke-width="0" class="raphael-group-35-y-axis-bands"><rect width="481" height="39.571" x="59" y="238.857" rx="0" ry="0"/><rect width="481" height="39.571" x="59" y="159.714" rx="0" ry="0"/><rect width="481" height="39.571" x="59" y="80.571" rx="0" ry="0"/></g><g fill="none" stroke="#999" class="raphael-group-37-y-axis-lines" stroke-dasharray="1 2" shape-rendering="crispedges"><path d="M59 278.5h481M59 239.5h481M59 199.5h481M59 160.5h481M59 120.5h481M59 81.5h481M59 41.5h481"/></g><g fill="none" stroke-opacity=".99" class="raphael-group-43-y-axis-lines" shape-rendering="crispedges"><path stroke="#ff4081" d="M59 272.5h481"/><path stroke="#34343e" d="M59 180.5h481"/><path stroke="#09a274" d="M59 87.5h481"/></g><g fill="#333" class="fusioncharts-xaxis-0-gridlabels" text-anchor="middle" font-family="'helvetica neue', arial" font-size="10"><text x="139.167" y="335" class="fusioncharts-label"><tspan x="139.167" dy="-2.305">1</tspan></text><text x="299.5" y="335" class="fusioncharts-label"><tspan x="299.5" dy="-2.305">10</tspan></text><text x="459.833" y="335" class="fusioncharts-label"><tspan x="459.833" dy="-2.305">80</tspan></text></g><g fill="#333" class="fusioncharts-yaxis-0-gridlabels" text-anchor="end" font-family="'helvetica neue', arial" font-size="10" font-weight="undefined" font-style="undefined"><text x="53" y="318" class="fusioncharts-label"><tspan x="53" dy="3.695">0</tspan></text><text x="53" y="278.429" class="fusioncharts-label"><tspan x="53" dy="3.694">100</tspan></text><text x="53" y="238.857" class="fusioncharts-label"><tspan x="53" dy="3.701">200</tspan></text><text x="53" y="199.286" class="fusioncharts-label"><tspan x="53" dy="3.692">300</tspan></text><text x="53" y="159.714" class="fusioncharts-label"><tspan x="53" dy="3.699">400</tspan></text><text x="53" y="120.143" class="fusioncharts-label"><tspan x="53" dy="3.69">500</tspan></text><text x="53" y="80.571" class="fusioncharts-label"><tspan x="53" dy="3.696">600</tspan></text><text x="53" y="41" class="fusioncharts-label"><tspan x="53" dy="3.695">700</tspan></text></g><g fill="#333" class="fusioncharts-yaxis-1-gridlabels" font-family="'helvetica neue', arial" font-size="10" font-weight="undefined" font-style="undefined"><text x="546" y="318" class="fusioncharts-label"><tspan x="546" dy="3.695">85</tspan></text><text x="546" y="271.833" class="fusioncharts-label"><tspan x="546" dy="3.693">90</tspan></text><text x="546" y="225.667" class="fusioncharts-label"><tspan x="546" dy="3.698">95</tspan></text><text x="546" y="179.5" class="fusioncharts-label"><tspan x="546" dy="3.695">100</tspan></text><text x="546" y="133.333" class="fusioncharts-label"><tspan x="546" dy="3.693">105</tspan></text><text x="546" y="87.167" class="fusioncharts-label"><tspan x="546" dy="3.698">110</tspan></text><text x="546" y="41" class="fusioncharts-label"><tspan x="546" dy="3.695">115</tspan></text></g><g fill="#333" class="raphael-group-46-axis-name" text-anchor="middle" font-size="10"><text class="fusioncharts-yaxis-0-title" transform="rotate(-90 98.25 81.25)"><tspan x="0" dy="9.797">Average Compile Time (s)</tspan></text><text class="fusioncharts-yaxis-1-title" transform="rotate(90 201.75 381.25)"><tspan x="0" dy="9.797">Performance Ratio (%)</tspan></text><text class="fusioncharts-xaxis-0-title" transform="translate(299.5 340)"><tspan x="0" dy="9.797">Number of Threads</tspan></text></g><path fill="none" stroke="#999" d="M59 318.5h481" class="raphael-group-84-axis-lines"/></g><g class="raphael-group-13-dataset"><g stroke="#333" stroke-opacity="0" class="raphael-group-87-columns" clip-path="url('#F80BAE75-EAA0-4A10-B375-03A24A1E4E0B')"><rect width="50" height="258" x="89.5" y="60.5" fill="#09a274" rx="0" ry="0"/><rect width="50" height="29" x="249.5" y="289.5" fill="#09a274" rx="0" ry="0"/><rect width="50" height="18" x="409.5" y="300.5" fill="#09a274" rx="0" ry="0"/><rect width="50" height="262" x="139.5" y="56.5" fill="#3465aa" rx="0" ry="0"/><rect width="50" height="29" x="299.5" y="289.5" fill="#3465aa" rx="0" ry="0"/><rect width="50" height="18" x="459.5" y="300.5" fill="#3465aa" rx="0" ry="0"/></g><g class="raphael-group-107-line-connector"><path fill="none" stroke="#7c378a" stroke-width="2" d="M139 167l161 8 160 2" stroke-linecap="round" stroke-linejoin="round" class="raphael-group-110-connector"/><g fill="#fff" stroke="#7c378a" class="raphael-group-111-anchors"><path d="M136 167a3 3 0 0 0 6 0 3 3 0 0 0-6 0zM297 175a3 3 0 0 0 6 0 3 3 0 0 0-6 0zM457 177a3 3 0 0 0 6 0 3 3 0 0 0-6 0z"/></g></g></g><g class="raphael-group-27-axistop"><g class="fusioncharts-yaxis-1-gridlabels" font-family="'helvetica neue', arial" font-size="10"><text x="546" y="271.833" fill="#ff4081" class="fusioncharts-label"><tspan x="546" dy="3.693">90</tspan></text><text x="546" y="179.5" fill="#34343e" class="fusioncharts-label"><tspan x="546" dy="3.695">100</tspan></text><text x="546" y="87.167" fill="#09a274" class="fusioncharts-label"><tspan x="546" dy="3.698">110</tspan></text></g></g><g fill="#fff" class="fusioncharts-datalabels" font-size="10" text-anchor="middle"><text x="114.5" y="84.5" class="fusioncharts-label" transform="rotate(-90 114.5 84.5)"><tspan x="114.5" dy="2.5">651.802</tspan></text><text x="274.5" y="268" class="fusioncharts-label" transform="rotate(-90 274.5 268)"><tspan x="274.5" dy="2.5">72.142</tspan></text><text x="434.5" y="279" class="fusioncharts-label" transform="rotate(-90 434.5 279)"><tspan x="434.5" dy="2.5">44.634</tspan></text><text x="164.5" y="78" class="fusioncharts-label" transform="rotate(-90 164.5 78)"><tspan x="164.5" dy="2.5">660.59</tspan></text><text x="324.5" y="268" class="fusioncharts-label" transform="rotate(-90 324.5 268)"><tspan x="324.5" dy="2.5">72.498</tspan></text><text x="484.5" y="279" class="fusioncharts-label" transform="rotate(-90 484.5 279)"><tspan x="484.5" dy="2.5">44.764</tspan></text><text x="139" y="147.75" class="fusioncharts-label" font-family="'helvetica neue', arial" transform="rotate(-90 139 147.75)"><tspan x="139" dy="3.695">101.35</tspan></text><text x="300" y="194.25" class="fusioncharts-label" font-family="'helvetica neue', arial" transform="rotate(-90 300 194.25)"><tspan x="300" dy="3.695">100.49</tspan></text><text x="460" y="196.25" class="fusioncharts-label" font-family="'helvetica neue', arial" transform="rotate(-90 460 196.25)"><tspan x="460" dy="3.695">100.29</tspan></text></g><g class="fusioncharts-legend" transform="translate(224.5 360.5)"><rect width="150" height="25" fill="#fff" fill-opacity="0" stroke="#545454" stroke-opacity="0" rx="0" ry="0"/><text x="23" y="6.5" fill="#666" class="fusioncharts-legenditem" font-size="10" cursor="pointer"><tspan x="23" dy="8.5">old</tspan></text><path fill="#09a274" stroke="#6bc7ac" stroke-width=".5" d="M7 18v-7.7h2.75V18zm4.125 0V7h2.75v11zm4.125 0v-4.4H18V18z" cursor="pointer"/><rect width="36" height="17" x="4" y="4" fill="silver" fill-opacity="0" rx="0" ry="0" cursor="pointer"/><text x="69.85" y="6.5" fill="#666" class="fusioncharts-legenditem" font-size="10" cursor="pointer"><tspan x="69.85" dy="8.5">new</tspan></text><path fill="#3465aa" stroke="#85a3cc" stroke-width=".5" d="M53.85 18v-7.7h2.75V18zm4.125 0V7h2.75v11zm4.125 0v-4.4h2.75V18z" cursor="pointer"/><rect width="41" height="17" x="50.85" y="4" fill="silver" fill-opacity="0" rx="0" ry="0" cursor="pointer"/><text x="121.7" y="6.5" fill="#666" class="fusioncharts-legenditem" font-size="10" cursor="pointer"><tspan x="121.7" dy="8.5">ratio</tspan></text><path fill="none" stroke="#7c378a" stroke-width="2" d="M105.7 12.5h11" cursor="pointer"/><circle cx="111.2" cy="12.5" r="3.3" fill="#fff" stroke="#7c378a" cursor="pointer"/><rect width="42" height="17" x="102.7" y="4" fill="silver" fill-opacity="0" rx="0" ry="0" cursor="pointer"/></g><text x="299.5" y="15" fill="#333" class="raphael-group-134-caption fusioncharts-caption" text-anchor="middle" font-family="'helvetica neue', arial" font-size="14" font-weight="bold"><tspan x="299.5" dy="13.703">elapsed_times</tspan></text><g fill="silver" fill-opacity="0" stroke="silver" stroke-opacity="0" class="raphael-group-14-hot"><g class="raphael-group-86-col-hot"><rect width="50" height="258" x="89.5" y="60.5" rx="0" ry="0"/><rect width="50" height="29" x="249.5" y="289.5" rx="0" ry="0"/><rect width="50" height="18" x="409.5" y="300.5" rx="0" ry="0"/><rect width="50" height="262" x="139.5" y="56.5" rx="0" ry="0"/><rect width="50" height="29" x="299.5" y="289.5" rx="0" ry="0"/><rect width="50" height="18" x="459.5" y="300.5" rx="0" ry="0"/></g><g class="raphael-group-106-line-hot"><circle cx="139" cy="167" r="15"/><circle cx="300" cy="175" r="15"/><circle cx="460" cy="177" r="15"/></g></g><g class="raphael-group-17-buttons raphael-group-18-button"><rect width="18" height="17" x="572.5" y="6.5" fill="url('#11-90-rgba_204_204_204_1__0-rgba_255_255_255_1__100')" stroke="#bbb" rx="2" ry="2"/><path fill="#fff" stroke="#9a9a9a" d="M576.5 17.5v3h11v-3 3h-11zm5 2l-3-4.5h2V9.5h2V15h2z"/><rect width="18" height="17" x="572.5" y="6.5" fill="silver" fill-opacity="0" stroke="silver" stroke-opacity="0" rx="2" cursor="pointer" ry="2"/></g><text x="6" y="396" fill-opacity=".5" font-size="9" font-family="verdana, sans" cursor="pointer"><tspan x="6" dy="-1.813">FusionCharts XT Trial</tspan></text></svg>