<svg xmlns="http://www.w3.org/2000/svg" id="raphael-paper-11" width="600" height="400" style="-webkit-tap-highlight-color:rgba(0, 0, 0, 0);-webkit-user-select:none;position:relative;background-color:rgb(255, 255, 255)" overflow="hidden" cursor="default"><defs><linearGradient id="11-90-rgba_204_204_204_1__0-rgba_255_255_255_1__100" x2="0" y1="1"><stop offset="0%" stop-color="#ccc"/><stop offset="100%" stop-color="#fff"/></linearGradient><clipPath id="94349667-8532-4DC7-8E64-318C8B4D8C20"><path d="M78 41h462v277H78z"/></clipPath></defs><g class="raphael-group-12-background"><rect width="600" height="400" fill="#fff" fill-opacity=".5" rx="0" ry="0"/><rect width="600" height="400" fill="none" stroke="#767575" stroke-opacity=".5" stroke-width="0" rx="0" ry="0"/></g><g stroke-width="0" class="raphael-group-23-canvas"><rect width="462" height="277" x="78" y="41" fill="none" stroke="#545454" stroke-opacity="0" rx="0" ry="0"/><rect width="462" height="277" x="78" y="41" fill="#fff" rx="0" ry="0"/></g><g class="raphael-group-26-axisbottom"><g fill="#eee" fill-opacity="0" stroke="#000" stroke-width="0" class="raphael-group-35-y-axis-bands"><rect width="462" height="25.182" x="78" y="267.636" rx="0" ry="0"/><rect width="462" height="25.182" x="78" y="217.273" rx="0" ry="0"/><rect width="462" height="25.182" x="78" y="166.909" rx="0" ry="0"/><rect width="462" height="25.182" x="78" y="116.545" rx="0" ry="0"/><rect width="462" height="25.182" x="78" y="66.182" rx="0" ry="0"/></g><g fill="none" stroke="#999" class="raphael-group-37-y-axis-lines" stroke-dasharray="1 2" shape-rendering="crispedges"><path d="M78 293.5h462M78 268.5h462M78 242.5h462M78 217.5h462M78 192.5h462M78 167.5h462M78 142.5h462M78 117.5h462M78 91.5h462M78 66.5h462M78 41.5h462"/></g><g fill="none" stroke-opacity=".99" class="raphael-group-43-y-axis-lines" shape-rendering="crispedges"><path stroke="#ff4081" d="M78 235.5h462M78 207.5h462"/><path stroke="#34343e" d="M78 180.5h462"/><path stroke="#09a274" d="M78 152.5h462M78 124.5h462"/></g><g fill="#333" class="fusioncharts-xaxis-0-gridlabels" text-anchor="middle" font-family="'helvetica neue', arial" font-size="10"><text x="97.25" y="335" class="fusioncharts-label"><tspan x="97.25" dy="-2.305">4</tspan></text><text x="135.75" y="335" class="fusioncharts-label"><tspan x="135.75" dy="-2.305">8</tspan></text><text x="174.25" y="335" class="fusioncharts-label"><tspan x="174.25" dy="-2.305">512</tspan></text><text x="212.75" y="335" class="fusioncharts-label"><tspan x="212.75" dy="-2.305">4</tspan></text><text x="251.25" y="335" class="fusioncharts-label"><tspan x="251.25" dy="-2.305">8</tspan></text><text x="289.75" y="335" class="fusioncharts-label"><tspan x="289.75" dy="-2.305">512</tspan></text><text x="328.25" y="335" class="fusioncharts-label"><tspan x="328.25" dy="-2.305">4</tspan></text><text x="366.75" y="335" class="fusioncharts-label"><tspan x="366.75" dy="-2.305">8</tspan></text><text x="405.25" y="335" class="fusioncharts-label"><tspan x="405.25" dy="-2.305">512</tspan></text><text x="443.75" y="335" class="fusioncharts-label"><tspan x="443.75" dy="-2.305">4</tspan></text><text x="482.25" y="335" class="fusioncharts-label"><tspan x="482.25" dy="-2.305">8</tspan></text><text x="520.75" y="335" class="fusioncharts-label"><tspan x="520.75" dy="-2.305">512</tspan></text></g><g fill="#333" class="fusioncharts-yaxis-0-gridlabels" text-anchor="end" font-family="'helvetica neue', arial" font-size="10" font-weight="undefined" font-style="undefined"><text x="72" y="318" class="fusioncharts-label"><tspan x="72" dy="3.695">0</tspan></text><text x="72" y="292.818" class="fusioncharts-label"><tspan x="72" dy="3.693">60,000</tspan></text><text x="72" y="267.636" class="fusioncharts-label"><tspan x="72" dy="3.699">120,000</tspan></text><text x="72" y="242.455" class="fusioncharts-label"><tspan x="72" dy="3.689">180,000</tspan></text><text x="72" y="217.273" class="fusioncharts-label"><tspan x="72" dy="3.695">240,000</tspan></text><text x="72" y="192.091" class="fusioncharts-label"><tspan x="72" dy="3.7">300,000</tspan></text><text x="72" y="166.909" class="fusioncharts-label"><tspan x="72" dy="3.69">360,000</tspan></text><text x="72" y="141.727" class="fusioncharts-label"><tspan x="72" dy="3.696">420,000</tspan></text><text x="72" y="116.545" class="fusioncharts-label"><tspan x="72" dy="3.702">480,000</tspan></text><text x="72" y="91.364" class="fusioncharts-label"><tspan x="72" dy="3.692">540,000</tspan></text><text x="72" y="66.182" class="fusioncharts-label"><tspan x="72" dy="3.697">600,000</tspan></text><text x="72" y="41" class="fusioncharts-label"><tspan x="72" dy="3.695">660,000</tspan></text></g><g fill="#333" class="fusioncharts-yaxis-1-gridlabels" font-family="'helvetica neue', arial" font-size="10" font-weight="undefined" font-style="undefined"><text x="546" y="318" class="fusioncharts-label"><tspan x="546" dy="3.695">50</tspan></text><text x="546" y="290.3" class="fusioncharts-label"><tspan x="546" dy="3.691">60</tspan></text><text x="546" y="262.6" class="fusioncharts-label"><tspan x="546" dy="3.694">70</tspan></text><text x="546" y="234.9" class="fusioncharts-label"><tspan x="546" dy="3.697">80</tspan></text><text x="546" y="207.2" class="fusioncharts-label"><tspan x="546" dy="3.7">90</tspan></text><text x="546" y="179.5" class="fusioncharts-label"><tspan x="546" dy="3.695">100</tspan></text><text x="546" y="151.8" class="fusioncharts-label"><tspan x="546" dy="3.691">110</tspan></text><text x="546" y="124.1" class="fusioncharts-label"><tspan x="546" dy="3.694">120</tspan></text><text x="546" y="96.4" class="fusioncharts-label"><tspan x="546" dy="3.697">130</tspan></text><text x="546" y="68.7" class="fusioncharts-label"><tspan x="546" dy="3.7">140</tspan></text><text x="546" y="41" class="fusioncharts-label"><tspan x="546" dy="3.695">150</tspan></text></g><g fill="#333" class="raphael-group-46-axis-name" text-anchor="middle" font-size="10"><text class="fusioncharts-yaxis-0-title" transform="rotate(-90 98.25 81.25)"><tspan x="0" dy="9.797">Throughput (MB/s)</tspan></text><text class="fusioncharts-yaxis-1-title" transform="rotate(90 201.75 381.25)"><tspan x="0" dy="9.797">Performance Ratio (%)</tspan></text><text class="fusioncharts-xaxis-0-title" transform="translate(309 340)"><tspan x="0" dy="9.797">Block Size (KB)</tspan></text></g><path fill="none" stroke="#999" d="M78 318.5h462" class="raphael-group-111-axis-lines"/></g><g class="raphael-group-13-dataset"><g stroke="#333" stroke-opacity="0" class="raphael-group-114-columns" clip-path="url('#94349667-8532-4DC7-8E64-318C8B4D8C20')"><rect width="16" height="24" x="81.5" y="294.5" fill="#09a274" rx="0" ry="0"/><rect width="15" height="42" x="120.5" y="276.5" fill="#09a274" rx="0" ry="0"/><rect width="16" height="205" x="158.5" y="113.5" fill="#09a274" rx="0" ry="0"/><rect width="15" height="47" x="197.5" y="271.5" fill="#09a274" rx="0" ry="0"/><rect width="16" height="83" x="235.5" y="235.5" fill="#09a274" rx="0" ry="0"/><rect width="15" height="106" x="274.5" y="212.5" fill="#09a274" rx="0" ry="0"/><rect width="16" height="92" x="312.5" y="226.5" fill="#09a274" rx="0" ry="0"/><rect width="15" height="165" x="351.5" y="153.5" fill="#09a274" rx="0" ry="0"/><rect width="16" height="81" x="389.5" y="237.5" fill="#09a274" rx="0" ry="0"/><rect width="15" height="158" x="428.5" y="160.5" fill="#09a274" rx="0" ry="0"/><rect width="16" height="110" x="466.5" y="208.5" fill="#09a274" rx="0" ry="0"/><rect width="15" height="81" x="505.5" y="237.5" fill="#09a274" rx="0" ry="0"/><rect width="15" height="32" x="97.5" y="286.5" fill="#3465aa" rx="0" ry="0"/><rect width="16" height="56" x="135.5" y="262.5" fill="#3465aa" rx="0" ry="0"/><rect width="15" height="232" x="174.5" y="86.5" fill="#3465aa" rx="0" ry="0"/><rect width="16" height="62" x="212.5" y="256.5" fill="#3465aa" rx="0" ry="0"/><rect width="15" height="111" x="251.5" y="207.5" fill="#3465aa" rx="0" ry="0"/><rect width="16" height="100" x="289.5" y="218.5" fill="#3465aa" rx="0" ry="0"/><rect width="15" height="120" x="328.5" y="198.5" fill="#3465aa" rx="0" ry="0"/><rect width="16" height="179" x="366.5" y="139.5" fill="#3465aa" rx="0" ry="0"/><rect width="15" height="80" x="405.5" y="238.5" fill="#3465aa" rx="0" ry="0"/><rect width="16" height="155" x="443.5" y="163.5" fill="#3465aa" rx="0" ry="0"/><rect width="15" height="81" x="482.5" y="237.5" fill="#3465aa" rx="0" ry="0"/><rect width="16" height="82" x="520.5" y="236.5" fill="#3465aa" rx="0" ry="0"/></g><g class="raphael-group-188-line-connector"><path fill="none" stroke="#7c378a" stroke-width="2" d="M97 75l39 13 38 55 39-52 38-6 39 109 38-98 39 60 38 25 39 4 38 67 39-75" stroke-linecap="round" stroke-linejoin="round" class="raphael-group-191-connector"/><g fill="#fff" stroke="#7c378a" class="raphael-group-192-anchors"><path d="M94 75a3 3 0 0 0 6 0 3 3 0 0 0-6 0zM133 88a3 3 0 0 0 6 0 3 3 0 0 0-6 0zM171 143a3 3 0 0 0 6 0 3 3 0 0 0-6 0zM210 91a3 3 0 0 0 6 0 3 3 0 0 0-6 0zM248 85a3 3 0 0 0 6 0 3 3 0 0 0-6 0zM287 194a3 3 0 0 0 6 0 3 3 0 0 0-6 0zM325 96a3 3 0 0 0 6 0 3 3 0 0 0-6 0zM364 156a3 3 0 0 0 6 0 3 3 0 0 0-6 0zM402 181a3 3 0 0 0 6 0 3 3 0 0 0-6 0zM441 185a3 3 0 0 0 6 0 3 3 0 0 0-6 0zM479 252a3 3 0 0 0 6 0 3 3 0 0 0-6 0zM518 177a3 3 0 0 0 6 0 3 3 0 0 0-6 0z"/></g></g></g><g class="raphael-group-27-axistop"><g class="fusioncharts-yaxis-1-gridlabels" font-family="'helvetica neue', arial" font-size="10"><text x="546" y="234.9" fill="#ff4081" class="fusioncharts-label"><tspan x="546" dy="3.697">80</tspan></text><text x="546" y="207.2" fill="#ff4081" class="fusioncharts-label"><tspan x="546" dy="3.7">90</tspan></text><text x="546" y="179.5" fill="#34343e" class="fusioncharts-label"><tspan x="546" dy="3.695">100</tspan></text><text x="546" y="151.8" fill="#09a274" class="fusioncharts-label"><tspan x="546" dy="3.691">110</tspan></text><text x="546" y="124.1" fill="#09a274" class="fusioncharts-label"><tspan x="546" dy="3.694">120</tspan></text></g></g><g fill="#fff" class="fusioncharts-datalabels" font-size="10" text-anchor="middle"><text x="89.5" y="273.5" class="fusioncharts-label" transform="rotate(-90 89.5 273.5)"><tspan x="89.5" dy="2.5">55,125</tspan></text><text x="128" y="297.5" class="fusioncharts-label" transform="rotate(-90 128 297.5)"><tspan x="128" dy="2.5">99,952</tspan></text><text x="166.5" y="137.5" class="fusioncharts-label" transform="rotate(-90 166.5 137.5)"><tspan x="166.5" dy="2.5">488,277</tspan></text><text x="205" y="295.5" class="fusioncharts-label" transform="rotate(-90 205 295.5)"><tspan x="205" dy="2.5">111,535</tspan></text><text x="243.5" y="259.5" class="fusioncharts-label" transform="rotate(-90 243.5 259.5)"><tspan x="243.5" dy="2.5">196,041</tspan></text><text x="282" y="236.5" class="fusioncharts-label" transform="rotate(-90 282 236.5)"><tspan x="282" dy="2.5">250,555</tspan></text><text x="320.5" y="250.5" class="fusioncharts-label" transform="rotate(-90 320.5 250.5)"><tspan x="320.5" dy="2.5">218,498</tspan></text><text x="359" y="177.5" class="fusioncharts-label" transform="rotate(-90 359 177.5)"><tspan x="359" dy="2.5">391,186</tspan></text><text x="397.5" y="261.5" class="fusioncharts-label" transform="rotate(-90 397.5 261.5)"><tspan x="397.5" dy="2.5">191,538</tspan></text><text x="436" y="184.5" class="fusioncharts-label" transform="rotate(-90 436 184.5)"><tspan x="436" dy="2.5">375,867</tspan></text><text x="474.5" y="232.5" class="fusioncharts-label" transform="rotate(-90 474.5 232.5)"><tspan x="474.5" dy="2.5">260,240</tspan></text><text x="513" y="261.5" class="fusioncharts-label" transform="rotate(-90 513 261.5)"><tspan x="513" dy="2.5">192,011</tspan></text><text x="105" y="265.5" class="fusioncharts-label" transform="rotate(-90 105 265.5)"><tspan x="105" dy="2.5">75,993</tspan></text><text x="143.5" y="286.5" class="fusioncharts-label" transform="rotate(-90 143.5 286.5)"><tspan x="143.5" dy="2.5">133,114</tspan></text><text x="182" y="110.5" class="fusioncharts-label" transform="rotate(-90 182 110.5)"><tspan x="182" dy="2.5">552,100</tspan></text><text x="220.5" y="280.5" class="fusioncharts-label" transform="rotate(-90 220.5 280.5)"><tspan x="220.5" dy="2.5">147,147</tspan></text><text x="259" y="231.5" class="fusioncharts-label" transform="rotate(-90 259 231.5)"><tspan x="259" dy="2.5">262,932</tspan></text><text x="297.5" y="242.5" class="fusioncharts-label" transform="rotate(-90 297.5 242.5)"><tspan x="297.5" dy="2.5">237,127</tspan></text><text x="336" y="222.5" class="fusioncharts-label" transform="rotate(-90 336 222.5)"><tspan x="336" dy="2.5">284,494</tspan></text><text x="374.5" y="163.5" class="fusioncharts-label" transform="rotate(-90 374.5 163.5)"><tspan x="374.5" dy="2.5">424,438</tspan></text><text x="413" y="262.5" class="fusioncharts-label" transform="rotate(-90 413 262.5)"><tspan x="413" dy="2.5">190,269</tspan></text><text x="451.5" y="187.5" class="fusioncharts-label" transform="rotate(-90 451.5 187.5)"><tspan x="451.5" dy="2.5">368,568</tspan></text><text x="490" y="261.5" class="fusioncharts-label" transform="rotate(-90 490 261.5)"><tspan x="490" dy="2.5">192,505</tspan></text><text x="528.5" y="260.5" class="fusioncharts-label" transform="rotate(-90 528.5 260.5)"><tspan x="528.5" dy="2.5">193,651</tspan></text><text x="97" y="94.25" class="fusioncharts-label" font-family="'helvetica neue', arial" transform="rotate(-90 97 94.25)"><tspan x="97" dy="3.695">137.86</tspan></text><text x="136" y="107.25" class="fusioncharts-label" font-family="'helvetica neue', arial" transform="rotate(-90 136 107.25)"><tspan x="136" dy="3.695">133.18</tspan></text><text x="174" y="162.25" class="fusioncharts-label" font-family="'helvetica neue', arial" transform="rotate(-90 174 162.25)"><tspan x="174" dy="3.695">113.07</tspan></text><text x="213" y="71.75" class="fusioncharts-label" font-family="'helvetica neue', arial" transform="rotate(-90 213 71.75)"><tspan x="213" dy="3.695">131.93</tspan></text><text x="251" y="65.75" class="fusioncharts-label" font-family="'helvetica neue', arial" transform="rotate(-90 251 65.75)"><tspan x="251" dy="3.695">134.12</tspan></text><text x="290" y="210.484" class="fusioncharts-label" font-family="'helvetica neue', arial" transform="rotate(-90 290 210.484)"><tspan x="290" dy="3.695">94.64</tspan></text><text x="328" y="79.516" class="fusioncharts-label" font-family="'helvetica neue', arial" transform="rotate(-90 328 79.516)"><tspan x="328" dy="3.695">130.2</tspan></text><text x="367" y="172.484" class="fusioncharts-label" font-family="'helvetica neue', arial" transform="rotate(-90 367 172.484)"><tspan x="367" dy="3.695">108.5</tspan></text><text x="405" y="197.484" class="fusioncharts-label" font-family="'helvetica neue', arial" transform="rotate(-90 405 197.484)"><tspan x="405" dy="3.695">99.34</tspan></text><text x="444" y="201.484" class="fusioncharts-label" font-family="'helvetica neue', arial" transform="rotate(-90 444 201.484)"><tspan x="444" dy="3.695">98.06</tspan></text><text x="482" y="268.484" class="fusioncharts-label" font-family="'helvetica neue', arial" transform="rotate(-90 482 268.484)"><tspan x="482" dy="3.695">73.97</tspan></text><text x="521" y="157.75" class="fusioncharts-label" font-family="'helvetica neue', arial" transform="rotate(-90 521 157.75)"><tspan x="521" dy="3.695">100.85</tspan></text></g><g class="fusioncharts-legend" transform="translate(233.5 360.5)"><rect width="151" height="25" fill="#fff" fill-opacity="0" stroke="#545454" stroke-opacity="0" rx="0" ry="0"/><text x="23" y="6.5" fill="#666" class="fusioncharts-legenditem" font-size="10" cursor="pointer"><tspan x="23" dy="8.5">old</tspan></text><path fill="#09a274" stroke="#6bc7ac" stroke-width=".5" d="M7 18v-7.7h2.75V18zm4.125 0V7h2.75v11zm4.125 0v-4.4H18V18z" cursor="pointer"/><rect width="36" height="17" x="4" y="4" fill="silver" fill-opacity="0" rx="0" ry="0" cursor="pointer"/><text x="69.85" y="6.5" fill="#666" class="fusioncharts-legenditem" font-size="10" cursor="pointer"><tspan x="69.85" dy="8.5">new</tspan></text><path fill="#3465aa" stroke="#85a3cc" stroke-width=".5" d="M53.85 18v-7.7h2.75V18zm4.125 0V7h2.75v11zm4.125 0v-4.4h2.75V18z" cursor="pointer"/><rect width="41" height="17" x="50.85" y="4" fill="silver" fill-opacity="0" rx="0" ry="0" cursor="pointer"/><text x="121.7" y="6.5" fill="#666" class="fusioncharts-legenditem" font-size="10" cursor="pointer"><tspan x="121.7" dy="8.5">ratio</tspan></text><path fill="none" stroke="#7c378a" stroke-width="2" d="M105.7 12.5h11" cursor="pointer"/><circle cx="111.2" cy="12.5" r="3.3" fill="#fff" stroke="#7c378a" cursor="pointer"/><rect width="42" height="17" x="102.7" y="4" fill="silver" fill-opacity="0" rx="0" ry="0" cursor="pointer"/></g><text x="309" y="15" fill="#333" class="raphael-group-242-caption fusioncharts-caption" text-anchor="middle" font-family="'helvetica neue', arial" font-size="14" font-weight="bold"><tspan x="309" dy="13.703">O_SYNC_Write</tspan></text><g fill="silver" fill-opacity="0" stroke="silver" stroke-opacity="0" class="raphael-group-14-hot"><g class="raphael-group-113-col-hot"><rect width="16" height="24" x="81.5" y="294.5" rx="0" ry="0"/><rect width="15" height="42" x="120.5" y="276.5" rx="0" ry="0"/><rect width="16" height="205" x="158.5" y="113.5" rx="0" ry="0"/><rect width="15" height="47" x="197.5" y="271.5" rx="0" ry="0"/><rect width="16" height="83" x="235.5" y="235.5" rx="0" ry="0"/><rect width="15" height="106" x="274.5" y="212.5" rx="0" ry="0"/><rect width="16" height="92" x="312.5" y="226.5" rx="0" ry="0"/><rect width="15" height="165" x="351.5" y="153.5" rx="0" ry="0"/><rect width="16" height="81" x="389.5" y="237.5" rx="0" ry="0"/><rect width="15" height="158" x="428.5" y="160.5" rx="0" ry="0"/><rect width="16" height="110" x="466.5" y="208.5" rx="0" ry="0"/><rect width="15" height="81" x="505.5" y="237.5" rx="0" ry="0"/><rect width="15" height="32" x="97.5" y="286.5" rx="0" ry="0"/><rect width="16" height="56" x="135.5" y="262.5" rx="0" ry="0"/><rect width="15" height="232" x="174.5" y="86.5" rx="0" ry="0"/><rect width="16" height="62" x="212.5" y="256.5" rx="0" ry="0"/><rect width="15" height="111" x="251.5" y="207.5" rx="0" ry="0"/><rect width="16" height="100" x="289.5" y="218.5" rx="0" ry="0"/><rect width="15" height="120" x="328.5" y="198.5" rx="0" ry="0"/><rect width="16" height="179" x="366.5" y="139.5" rx="0" ry="0"/><rect width="15" height="80" x="405.5" y="238.5" rx="0" ry="0"/><rect width="16" height="155" x="443.5" y="163.5" rx="0" ry="0"/><rect width="15" height="81" x="482.5" y="237.5" rx="0" ry="0"/><rect width="16" height="82" x="520.5" y="236.5" rx="0" ry="0"/></g><g class="raphael-group-187-line-hot"><circle cx="97" cy="75" r="15"/><circle cx="136" cy="88" r="15"/><circle cx="174" cy="143" r="15"/><circle cx="213" cy="91" r="15"/><circle cx="251" cy="85" r="15"/><circle cx="290" cy="194" r="15"/><circle cx="328" cy="96" r="15"/><circle cx="367" cy="156" r="15"/><circle cx="405" cy="181" r="15"/><circle cx="444" cy="185" r="15"/><circle cx="482" cy="252" r="15"/><circle cx="521" cy="177" r="15"/></g></g><g class="raphael-group-17-buttons raphael-group-18-button"><rect width="18" height="17" x="572.5" y="6.5" fill="url('#11-90-rgba_204_204_204_1__0-rgba_255_255_255_1__100')" stroke="#bbb" rx="2" ry="2"/><path fill="#fff" stroke="#9a9a9a" d="M576.5 17.5v3h11v-3 3h-11zm5 2l-3-4.5h2V9.5h2V15h2z"/><rect width="18" height="17" x="572.5" y="6.5" fill="silver" fill-opacity="0" stroke="silver" stroke-opacity="0" rx="2" cursor="pointer" ry="2"/></g><text x="6" y="396" fill-opacity=".5" font-size="9" font-family="verdana, sans" cursor="pointer"><tspan x="6" dy="-1.813">FusionCharts XT Trial</tspan></text></svg>