<svg xmlns="http://www.w3.org/2000/svg" id="raphael-paper-11" width="600" height="400" style="-webkit-tap-highlight-color:rgba(0, 0, 0, 0);-webkit-user-select:none;position:relative;background-color:rgb(255, 255, 255)" overflow="hidden" cursor="default"><defs><linearGradient id="11-90-rgba_204_204_204_1__0-rgba_255_255_255_1__100" x2="0" y1="1"><stop offset="0%" stop-color="#ccc"/><stop offset="100%" stop-color="#fff"/></linearGradient><clipPath id="F7E5A5A7-F8BE-45D5-9FA6-75DED376AA45"><path d="M56 41h484v294H56z"/></clipPath></defs><g class="raphael-group-12-background"><rect width="600" height="400" fill="#fff" fill-opacity=".5" rx="0" ry="0"/><rect width="600" height="400" fill="none" stroke="#767575" stroke-opacity=".5" stroke-width="0" rx="0" ry="0"/></g><g stroke-width="0" class="raphael-group-23-canvas"><rect width="484" height="294" x="56" y="41" fill="none" stroke="#545454" stroke-opacity="0" rx="0" ry="0"/><rect width="484" height="294" x="56" y="41" fill="#fff" rx="0" ry="0"/></g><g class="raphael-group-26-axisbottom"><g fill="#eee" fill-opacity="0" stroke="#000" stroke-width="0" class="raphael-group-35-y-axis-bands"><rect width="484" height="42" x="56" y="251" rx="0" ry="0"/><rect width="484" height="42" x="56" y="167" rx="0" ry="0"/><rect width="484" height="42" x="56" y="83" rx="0" ry="0"/></g><g fill="none" stroke="#999" class="raphael-group-37-y-axis-lines" stroke-dasharray="1 2" shape-rendering="crispedges"><path d="M56 293.5h484M56 251.5h484M56 209.5h484M56 167.5h484M56 125.5h484M56 83.5h484M56 41.5h484"/></g><g fill="none" stroke-opacity=".99" class="raphael-group-43-y-axis-lines" shape-rendering="crispedges"><path stroke="#ff4081" d="M56 286.5h484"/><path stroke="#34343e" d="M56 188.5h484"/><path stroke="#09a274" d="M56 90.5h484"/></g><g fill="#333" class="fusioncharts-xaxis-0-gridlabels" text-anchor="middle" font-family="'helvetica neue', arial" font-size="10"><text x="136.667" y="352" class="fusioncharts-label"><tspan x="136.667" dy="-2.305">Prot Fault</tspan></text><text x="298" y="352" class="fusioncharts-label"><tspan x="298" dy="-2.305">Page Fault</tspan></text><text x="459.333" y="352" class="fusioncharts-label"><tspan x="459.333" dy="-2.305">100fd selct</tspan></text></g><g fill="#333" class="fusioncharts-yaxis-0-gridlabels" text-anchor="end" font-family="'helvetica neue', arial" font-size="10" font-weight="undefined" font-style="undefined"><text x="50" y="335" class="fusioncharts-label"><tspan x="50" dy="3.695">0</tspan></text><text x="50" y="293" class="fusioncharts-label"><tspan x="50" dy="3.695">0.2</tspan></text><text x="50" y="251" class="fusioncharts-label"><tspan x="50" dy="3.695">0.4</tspan></text><text x="50" y="209" class="fusioncharts-label"><tspan x="50" dy="3.695">0.6</tspan></text><text x="50" y="167" class="fusioncharts-label"><tspan x="50" dy="3.695">0.8</tspan></text><text x="50" y="125" class="fusioncharts-label"><tspan x="50" dy="3.695">1</tspan></text><text x="50" y="83" class="fusioncharts-label"><tspan x="50" dy="3.695">1.2</tspan></text><text x="50" y="41" class="fusioncharts-label"><tspan x="50" dy="3.695">1.4</tspan></text></g><g fill="#333" class="fusioncharts-yaxis-1-gridlabels" font-family="'helvetica neue', arial" font-size="10" font-weight="undefined" font-style="undefined"><text x="546" y="335" class="fusioncharts-label"><tspan x="546" dy="3.695">85</tspan></text><text x="546" y="286" class="fusioncharts-label"><tspan x="546" dy="3.695">90</tspan></text><text x="546" y="237" class="fusioncharts-label"><tspan x="546" dy="3.695">95</tspan></text><text x="546" y="188" class="fusioncharts-label"><tspan x="546" dy="3.695">100</tspan></text><text x="546" y="139" class="fusioncharts-label"><tspan x="546" dy="3.695">105</tspan></text><text x="546" y="90" class="fusioncharts-label"><tspan x="546" dy="3.695">110</tspan></text><text x="546" y="41" class="fusioncharts-label"><tspan x="546" dy="3.695">115</tspan></text></g><g fill="#333" class="raphael-group-46-axis-name" text-anchor="middle" font-size="10"><text class="fusioncharts-yaxis-0-title" transform="rotate(-90 102.5 85.5)"><tspan x="0" dy="9.797">Latency (μs)</tspan></text><text class="fusioncharts-yaxis-1-title" transform="rotate(90 197.5 385.5)"><tspan x="0" dy="9.797">Performance Ratio (%)</tspan></text></g><path fill="none" stroke="#999" d="M56 335.5h484" class="raphael-group-83-axis-lines"/></g><g class="raphael-group-13-dataset"><g stroke="#333" stroke-opacity="0" class="raphael-group-86-columns" clip-path="url('#F7E5A5A7-F8BE-45D5-9FA6-75DED376AA45')"><rect width="50" height="70" x="86.5" y="265.5" fill="#09a274" rx="0" ry="0"/><rect width="50" height="189" x="248.5" y="146.5" fill="#09a274" rx="0" ry="0"/><rect width="50" height="246" x="409.5" y="89.5" fill="#09a274" rx="0" ry="0"/><rect width="50" height="72" x="136.5" y="263.5" fill="#3465aa" rx="0" ry="0"/><rect width="50" height="196" x="298.5" y="139.5" fill="#3465aa" rx="0" ry="0"/><rect width="50" height="245" x="459.5" y="90.5" fill="#3465aa" rx="0" ry="0"/></g><g class="raphael-group-106-line-connector"><path fill="none" stroke="#7c378a" stroke-width="2" d="M137 166l161-14 161 39" stroke-linecap="round" stroke-linejoin="round" class="raphael-group-109-connector"/><g fill="#fff" stroke="#7c378a" class="raphael-group-110-anchors"><path d="M134 166a3 3 0 0 0 6 0 3 3 0 0 0-6 0zM295 152a3 3 0 0 0 6 0 3 3 0 0 0-6 0zM456 191a3 3 0 0 0 6 0 3 3 0 0 0-6 0z"/></g></g></g><g class="raphael-group-27-axistop"><g class="fusioncharts-yaxis-1-gridlabels" font-family="'helvetica neue', arial" font-size="10"><text x="546" y="286" fill="#ff4081" class="fusioncharts-label"><tspan x="546" dy="3.695">90</tspan></text><text x="546" y="188" fill="#34343e" class="fusioncharts-label"><tspan x="546" dy="3.695">100</tspan></text><text x="546" y="90" fill="#09a274" class="fusioncharts-label"><tspan x="546" dy="3.695">110</tspan></text></g></g><g fill="#fff" class="fusioncharts-datalabels" font-size="10" text-anchor="middle"><text x="111.5" y="208" class="fusioncharts-label" transform="rotate(-90 111.5 208)"><tspan x="111.5" dy="2.5">0.33199999999999996</tspan></text><text x="273.5" y="170.5" class="fusioncharts-label" transform="rotate(-90 273.5 170.5)"><tspan x="273.5" dy="2.5">0.89672</tspan></text><text x="434.5" y="108" class="fusioncharts-label" transform="rotate(-90 434.5 108)"><tspan x="434.5" dy="2.5">1.168</tspan></text><text x="161.5" y="285" class="fusioncharts-label" transform="rotate(-90 161.5 285)"><tspan x="161.5" dy="2.5">0.3396</tspan></text><text x="323.5" y="161" class="fusioncharts-label" transform="rotate(-90 323.5 161)"><tspan x="323.5" dy="2.5">0.9308</tspan></text><text x="484.5" y="145" class="fusioncharts-label" transform="rotate(-90 484.5 145)"><tspan x="484.5" dy="2.5">1.1643999999999999</tspan></text><text x="137" y="146.75" class="fusioncharts-label" font-family="'helvetica neue', arial" transform="rotate(-90 137 146.75)"><tspan x="137" dy="3.695">102.24</tspan></text><text x="298" y="132.75" class="fusioncharts-label" font-family="'helvetica neue', arial" transform="rotate(-90 298 132.75)"><tspan x="298" dy="3.695">103.66</tspan></text><text x="459" y="207.484" class="fusioncharts-label" font-family="'helvetica neue', arial" transform="rotate(-90 459 207.484)"><tspan x="459" dy="3.695">99.69</tspan></text></g><g class="fusioncharts-legend" transform="translate(222.5 360.5)"><rect width="151" height="25" fill="#fff" fill-opacity="0" stroke="#545454" stroke-opacity="0" rx="0" ry="0"/><text x="23" y="6.5" fill="#666" class="fusioncharts-legenditem" font-size="10" cursor="pointer"><tspan x="23" dy="8.5">old</tspan></text><path fill="#09a274" stroke="#6bc7ac" stroke-width=".5" d="M7 18v-7.7h2.75V18zm4.125 0V7h2.75v11zm4.125 0v-4.4H18V18z" cursor="pointer"/><rect width="36" height="17" x="4" y="4" fill="silver" fill-opacity="0" rx="0" ry="0" cursor="pointer"/><text x="69.85" y="6.5" fill="#666" class="fusioncharts-legenditem" font-size="10" cursor="pointer"><tspan x="69.85" dy="8.5">new</tspan></text><path fill="#3465aa" stroke="#85a3cc" stroke-width=".5" d="M53.85 18v-7.7h2.75V18zm4.125 0V7h2.75v11zm4.125 0v-4.4h2.75V18z" cursor="pointer"/><rect width="41" height="17" x="50.85" y="4" fill="silver" fill-opacity="0" rx="0" ry="0" cursor="pointer"/><text x="121.7" y="6.5" fill="#666" class="fusioncharts-legenditem" font-size="10" cursor="pointer"><tspan x="121.7" dy="8.5">ratio</tspan></text><path fill="none" stroke="#7c378a" stroke-width="2" d="M105.7 12.5h11" cursor="pointer"/><circle cx="111.2" cy="12.5" r="3.3" fill="#fff" stroke="#7c378a" cursor="pointer"/><rect width="42" height="17" x="102.7" y="4" fill="silver" fill-opacity="0" rx="0" ry="0" cursor="pointer"/></g><text x="298" y="15" fill="#333" class="raphael-group-133-caption fusioncharts-caption" text-anchor="middle" font-family="'helvetica neue', arial" font-size="14" font-weight="bold"><tspan x="298" dy="13.703">File &amp; VM system 3/3</tspan></text><g fill="silver" fill-opacity="0" stroke="silver" stroke-opacity="0" class="raphael-group-14-hot"><g class="raphael-group-85-col-hot"><rect width="50" height="70" x="86.5" y="265.5" rx="0" ry="0"/><rect width="50" height="189" x="248.5" y="146.5" rx="0" ry="0"/><rect width="50" height="246" x="409.5" y="89.5" rx="0" ry="0"/><rect width="50" height="72" x="136.5" y="263.5" rx="0" ry="0"/><rect width="50" height="196" x="298.5" y="139.5" rx="0" ry="0"/><rect width="50" height="245" x="459.5" y="90.5" rx="0" ry="0"/></g><g class="raphael-group-105-line-hot"><circle cx="137" cy="166" r="15"/><circle cx="298" cy="152" r="15"/><circle cx="459" cy="191" r="15"/></g></g><g class="raphael-group-17-buttons raphael-group-18-button"><rect width="18" height="17" x="572.5" y="6.5" fill="url('#11-90-rgba_204_204_204_1__0-rgba_255_255_255_1__100')" stroke="#bbb" rx="2" ry="2"/><path fill="#fff" stroke="#9a9a9a" d="M576.5 17.5v3h11v-3 3h-11zm5 2l-3-4.5h2V9.5h2V15h2z"/><rect width="18" height="17" x="572.5" y="6.5" fill="silver" fill-opacity="0" stroke="silver" stroke-opacity="0" rx="2" cursor="pointer" ry="2"/></g><text x="6" y="396" fill-opacity=".5" font-size="9" font-family="verdana, sans" cursor="pointer"><tspan x="6" dy="-1.813">FusionCharts XT Trial</tspan></text></svg>