<svg xmlns="http://www.w3.org/2000/svg" id="raphael-paper-11" width="600" height="400" style="-webkit-tap-highlight-color:rgba(0, 0, 0, 0);-webkit-user-select:none;position:relative;background-color:rgb(255, 255, 255)" overflow="hidden" cursor="default"><defs><linearGradient id="11-90-rgba_204_204_204_1__0-rgba_255_255_255_1__100" x2="0" y1="1"><stop offset="0%" stop-color="#ccc"/><stop offset="100%" stop-color="#fff"/></linearGradient><clipPath id="80CDBBEC-B839-4849-9812-5281E4C81B2D"><path d="M67 41h473v294H67z"/></clipPath></defs><g class="raphael-group-12-background"><rect width="600" height="400" fill="#fff" fill-opacity=".5" rx="0" ry="0"/><rect width="600" height="400" fill="none" stroke="#767575" stroke-opacity=".5" stroke-width="0" rx="0" ry="0"/></g><g stroke-width="0" class="raphael-group-23-canvas"><rect width="473" height="294" x="67" y="41" fill="none" stroke="#545454" stroke-opacity="0" rx="0" ry="0"/><rect width="473" height="294" x="67" y="41" fill="#fff" rx="0" ry="0"/></g><g class="raphael-group-26-axisbottom"><g fill="#eee" fill-opacity="0" stroke="#000" stroke-width="0" class="raphael-group-35-y-axis-bands"><rect width="473" height="42" x="67" y="251" rx="0" ry="0"/><rect width="473" height="42" x="67" y="167" rx="0" ry="0"/><rect width="473" height="42" x="67" y="83" rx="0" ry="0"/></g><g fill="none" stroke="#999" class="raphael-group-37-y-axis-lines" stroke-dasharray="1 2" shape-rendering="crispedges"><path d="M67 293.5h473M67 251.5h473M67 209.5h473M67 167.5h473M67 125.5h473M67 83.5h473M67 41.5h473"/></g><g fill="none" stroke-opacity=".99" class="raphael-group-43-y-axis-lines" shape-rendering="crispedges"><path stroke="#ff4081" d="M67 286.5h473"/><path stroke="#34343e" d="M67 188.5h473"/><path stroke="#09a274" d="M67 90.5h473"/></g><text x="303.5" y="352" fill="#333" class="fusioncharts-xaxis-0-gridlabels fusioncharts-label" text-anchor="middle" font-family="'helvetica neue', arial" font-size="10"><tspan x="303.5" dy="-2.305">Mmap Latency</tspan></text><g fill="#333" class="fusioncharts-yaxis-0-gridlabels" text-anchor="end" font-family="'helvetica neue', arial" font-size="10" font-weight="undefined" font-style="undefined"><text x="61" y="335" class="fusioncharts-label"><tspan x="61" dy="3.695">0</tspan></text><text x="61" y="293" class="fusioncharts-label"><tspan x="61" dy="3.695">500</tspan></text><text x="61" y="251" class="fusioncharts-label"><tspan x="61" dy="3.695">1,000</tspan></text><text x="61" y="209" class="fusioncharts-label"><tspan x="61" dy="3.695">1,500</tspan></text><text x="61" y="167" class="fusioncharts-label"><tspan x="61" dy="3.695">2,000</tspan></text><text x="61" y="125" class="fusioncharts-label"><tspan x="61" dy="3.695">2,500</tspan></text><text x="61" y="83" class="fusioncharts-label"><tspan x="61" dy="3.695">3,000</tspan></text><text x="61" y="41" class="fusioncharts-label"><tspan x="61" dy="3.695">3,500</tspan></text></g><g fill="#333" class="fusioncharts-yaxis-1-gridlabels" font-family="'helvetica neue', arial" font-size="10" font-weight="undefined" font-style="undefined"><text x="546" y="335" class="fusioncharts-label"><tspan x="546" dy="3.695">85</tspan></text><text x="546" y="286" class="fusioncharts-label"><tspan x="546" dy="3.695">90</tspan></text><text x="546" y="237" class="fusioncharts-label"><tspan x="546" dy="3.695">95</tspan></text><text x="546" y="188" class="fusioncharts-label"><tspan x="546" dy="3.695">100</tspan></text><text x="546" y="139" class="fusioncharts-label"><tspan x="546" dy="3.695">105</tspan></text><text x="546" y="90" class="fusioncharts-label"><tspan x="546" dy="3.695">110</tspan></text><text x="546" y="41" class="fusioncharts-label"><tspan x="546" dy="3.695">115</tspan></text></g><g fill="#333" class="raphael-group-46-axis-name" text-anchor="middle" font-size="10"><text class="fusioncharts-yaxis-0-title" transform="rotate(-90 102.5 85.5)"><tspan x="0" dy="9.797">Latency (μs)</tspan></text><text class="fusioncharts-yaxis-1-title" transform="rotate(90 197.5 385.5)"><tspan x="0" dy="9.797">Performance Ratio (%)</tspan></text></g><path fill="none" stroke="#999" d="M67 335.5h473" class="raphael-group-81-axis-lines"/></g><g class="raphael-group-13-dataset"><g stroke="#333" stroke-opacity="0" class="raphael-group-84-columns" clip-path="url('#80CDBBEC-B839-4849-9812-5281E4C81B2D')"><rect width="50" height="255" x="253.5" y="80.5" fill="#09a274" rx="0" ry="0"/><rect width="50" height="266" x="303.5" y="69.5" fill="#3465aa" rx="0" ry="0"/></g><g class="raphael-group-92-line-connector"><path fill="#fff" stroke="#7c378a" d="M301 147a3 3 0 0 0 6 0 3 3 0 0 0-6 0z" class="raphael-group-96-anchors"/></g></g><g class="raphael-group-27-axistop"><g class="fusioncharts-yaxis-1-gridlabels" font-family="'helvetica neue', arial" font-size="10"><text x="546" y="286" fill="#ff4081" class="fusioncharts-label"><tspan x="546" dy="3.695">90</tspan></text><text x="546" y="188" fill="#34343e" class="fusioncharts-label"><tspan x="546" dy="3.695">100</tspan></text><text x="546" y="90" fill="#09a274" class="fusioncharts-label"><tspan x="546" dy="3.695">110</tspan></text></g></g><g fill="#fff" class="fusioncharts-datalabels" font-size="10" text-anchor="middle"><text x="278.5" y="103" class="fusioncharts-label" transform="rotate(-90 278.5 103)"><tspan x="278.5" dy="2.5">3,029.4</tspan></text><text x="328.5" y="92" class="fusioncharts-label" transform="rotate(-90 328.5 92)"><tspan x="328.5" dy="2.5">3,161.4</tspan></text><text x="304" y="127.75" class="fusioncharts-label" font-family="'helvetica neue', arial" transform="rotate(-90 304 127.75)"><tspan x="304" dy="3.695">104.18</tspan></text></g><g class="fusioncharts-legend" transform="translate(228.5 360.5)"><rect width="150" height="25" fill="#fff" fill-opacity="0" stroke="#545454" stroke-opacity="0" rx="0" ry="0"/><text x="23" y="6.5" fill="#666" class="fusioncharts-legenditem" font-size="10" cursor="pointer"><tspan x="23" dy="8.5">old</tspan></text><path fill="#09a274" stroke="#6bc7ac" stroke-width=".5" d="M7 18v-7.7h2.75V18zm4.125 0V7h2.75v11zm4.125 0v-4.4H18V18z" cursor="pointer"/><rect width="36" height="17" x="4" y="4" fill="silver" fill-opacity="0" rx="0" ry="0" cursor="pointer"/><text x="69.85" y="6.5" fill="#666" class="fusioncharts-legenditem" font-size="10" cursor="pointer"><tspan x="69.85" dy="8.5">new</tspan></text><path fill="#3465aa" stroke="#85a3cc" stroke-width=".5" d="M53.85 18v-7.7h2.75V18zm4.125 0V7h2.75v11zm4.125 0v-4.4h2.75V18z" cursor="pointer"/><rect width="41" height="17" x="50.85" y="4" fill="silver" fill-opacity="0" rx="0" ry="0" cursor="pointer"/><text x="121.7" y="6.5" fill="#666" class="fusioncharts-legenditem" font-size="10" cursor="pointer"><tspan x="121.7" dy="8.5">ratio</tspan></text><path fill="none" stroke="#7c378a" stroke-width="2" d="M105.7 12.5h11" cursor="pointer"/><circle cx="111.2" cy="12.5" r="3.3" fill="#fff" stroke="#7c378a" cursor="pointer"/><rect width="42" height="17" x="102.7" y="4" fill="silver" fill-opacity="0" rx="0" ry="0" cursor="pointer"/></g><text x="303.5" y="15" fill="#333" class="raphael-group-112-caption fusioncharts-caption" text-anchor="middle" font-family="'helvetica neue', arial" font-size="14" font-weight="bold"><tspan x="303.5" dy="13.703">File &amp; VM system 2/3</tspan></text><g class="raphael-group-14-hot"><g fill="silver" fill-opacity="0" stroke="silver" stroke-opacity="0" class="raphael-group-83-col-hot"><rect width="50" height="255" x="253.5" y="80.5" rx="0" ry="0"/><rect width="50" height="266" x="303.5" y="69.5" rx="0" ry="0"/></g><circle cx="304" cy="147" r="15" fill="silver" fill-opacity="0" stroke="silver" stroke-opacity="0" class="raphael-group-91-line-hot"/></g><g class="raphael-group-17-buttons raphael-group-18-button"><rect width="18" height="17" x="572.5" y="6.5" fill="url('#11-90-rgba_204_204_204_1__0-rgba_255_255_255_1__100')" stroke="#bbb" rx="2" ry="2"/><path fill="#fff" stroke="#9a9a9a" d="M576.5 17.5v3h11v-3 3h-11zm5 2l-3-4.5h2V9.5h2V15h2z"/><rect width="18" height="17" x="572.5" y="6.5" fill="silver" fill-opacity="0" stroke="silver" stroke-opacity="0" rx="2" cursor="pointer" ry="2"/></g><text x="6" y="396" fill-opacity=".5" font-size="9" font-family="verdana, sans" cursor="pointer"><tspan x="6" dy="-1.813">FusionCharts XT Trial</tspan></text></svg>